<?xml version="1.0" encoding="utf-8"?>
<!-- Generator: Adobe Illustrator 27.5.0, SVG Export Plug-In . SVG Version: 6.00 Build 0)  -->
<svg version="1.1" id="_x2018_ëîé_x5F_1" xmlns="http://www.w3.org/2000/svg" xmlns:xlink="http://www.w3.org/1999/xlink"
	 x="0px" y="0px" viewBox="0 0 3200 2000" style="enable-background:new 0 0 3200 2000;" xml:space="preserve">
<rect style="fill:#FFFFFF;" width="3200" height="2000"/>
<g>
	<path style="fill:#EBF3FA;" d="M248.401,1454.561c-4.721,0-12.732-57.308-13.52-61.978
		c-23.305-138.321-23.091-289.9,33.248-420.555c38.203-88.594,105.709-159.212,186.541-210.896
		C544.024,704,647.07,679.573,752.134,674.871c120.9-5.411,240.912,11.705,361.463,16.848
		c123.499,5.269,245.675-13.313,366.299-38.076c107.35-22.038,214.041-47.721,322.504-63.943
		c105.982-16.391,216.39-26.808,323.613-18.583c87.485,6.711,171.296,31.566,245.277,79.236
		c68.346,44.039,125.34,104.465,197.447,142.813c39.918,21.229,83.412,34.223,128.333,39.126
		c42.938,4.686,85.396,2.068,127.747,12.349c66.371,16.111,125.169,53.888,168.244,106.774
		c83.859,102.958,108.424,250.939,79.193,378.636c-10.103,44.134-27.169,87.134-52.966,124.508
		C2957.198,1454.561,260.026,1454.561,248.401,1454.561z"/>
	<path style="fill:#DCEAFF;" d="M1017.146,684.326v770.238H157.85c0,0-121.509-397.467,121.496-612.268
		C497.358,649.595,739.31,665.781,1017.146,684.326z"/>
	<g>
		<path style="fill:#9FC1F4;" d="M851.428,932.967h-86.673c-3.979,0-7.234-3.255-7.234-7.234v-83.655
			c0-3.979,3.255-7.234,7.234-7.234h86.673c3.979,0,7.234,3.255,7.234,7.234v83.655
			C858.662,929.712,855.407,932.967,851.428,932.967z"/>
		<path style="fill:#F0F6FF;" d="M847.673,928.717H768.51c-3.634,0-6.607-2.974-6.607-6.607v-76.407
			c0-3.634,2.973-6.607,6.607-6.607h79.164c3.634,0,6.607,2.973,6.607,6.607v76.407
			C854.281,925.743,851.308,928.717,847.673,928.717z"/>
		<g>
			<g>
				<path style="fill:#9FC1F4;" d="M805.997,848.05c0-1.157,0.938-2.095,2.095-2.095c1.157,0,2.095,0.938,2.095,2.095
					c0,1.157-0.938,2.095-2.095,2.095C806.935,850.146,805.997,849.208,805.997,848.05z"/>
				<path style="fill:#9FC1F4;" d="M822.902,851.012c0.562-1.011,1.838-1.375,2.849-0.814c1.012,0.562,1.376,1.837,0.814,2.849
					c-0.562,1.011-1.837,1.375-2.849,0.813C822.704,853.299,822.34,852.023,822.902,851.012z"/>
				<path style="fill:#9FC1F4;" d="M837.386,862.519c0.972-0.628,2.269-0.348,2.896,0.625c0.628,0.973,0.348,2.269-0.625,2.896
					c-0.973,0.627-2.269,0.348-2.896-0.625C836.133,864.442,836.413,863.146,837.386,862.519z"/>
				<path style="fill:#9FC1F4;" d="M844.56,880.328c1.157,0,2.095,0.938,2.095,2.095c0,1.157-0.938,2.095-2.095,2.095
					c-1.157,0-2.095-0.938-2.095-2.095C842.464,881.267,843.402,880.328,844.56,880.328z"/>
				<path style="fill:#9FC1F4;" d="M840.896,900.997c0.818,0.818,0.818,2.145,0,2.963c-0.818,0.818-2.144,0.818-2.963,0
					c-0.818-0.818-0.818-2.145,0-2.963S840.078,900.179,840.896,900.997z"/>
				<path style="fill:#9FC1F4;" d="M827.74,914.188c0.818,0.818,0.818,2.145,0,2.963c-0.818,0.818-2.144,0.818-2.963,0
					c-0.818-0.818-0.818-2.144,0-2.963C825.596,913.369,826.922,913.369,827.74,914.188z"/>
				<path style="fill:#9FC1F4;" d="M805.997,920.986c0-1.157,0.938-2.095,2.095-2.095c1.157,0,2.095,0.938,2.095,2.095
					c0,1.157-0.938,2.095-2.095,2.095C806.935,923.081,805.997,922.144,805.997,920.986z"/>
			</g>
			<g>
				<path style="fill:#9FC1F4;" d="M793.214,851.012c-0.562-1.011-1.838-1.375-2.849-0.814c-1.012,0.562-1.376,1.837-0.813,2.849
					c0.562,1.011,1.837,1.375,2.849,0.813C793.412,853.299,793.776,852.023,793.214,851.012z"/>
				<path style="fill:#9FC1F4;" d="M778.731,862.519c-0.973-0.628-2.269-0.348-2.897,0.625c-0.628,0.973-0.348,2.269,0.625,2.896
					c0.973,0.627,2.27,0.348,2.896-0.625C779.983,864.442,779.703,863.146,778.731,862.519z"/>
				<path style="fill:#9FC1F4;" d="M771.557,880.328c-1.157,0-2.095,0.938-2.095,2.095c0,1.157,0.938,2.095,2.095,2.095
					c1.157,0,2.095-0.938,2.095-2.095C773.652,881.267,772.714,880.328,771.557,880.328z"/>
				<path style="fill:#9FC1F4;" d="M775.22,900.997c-0.818,0.818-0.818,2.145,0,2.963c0.818,0.818,2.145,0.818,2.963,0
					c0.818-0.818,0.818-2.145,0-2.963C777.364,900.179,776.038,900.179,775.22,900.997z"/>
				<path style="fill:#9FC1F4;" d="M788.376,914.188c-0.818,0.818-0.818,2.145,0,2.963c0.818,0.818,2.145,0.818,2.963,0
					c0.818-0.818,0.818-2.144,0-2.963C790.521,913.369,789.194,913.369,788.376,914.188z"/>
			</g>
		</g>
		<g>
			<path style="fill:#9FC1F4;" d="M807.526,882.423c0-1.157,0.938-2.095,2.095-2.095c1.157,0,2.095,0.938,2.095,2.095
				c0,1.157-0.938,2.095-2.095,2.095C808.465,884.519,807.526,883.581,807.526,882.423z"/>
			<g>
				<rect x="809.336" y="856.25" style="fill:#9FC1F4;" width="0.572" height="26.173"/>
			</g>
			<g>
				
					<rect x="807.475" y="876.082" transform="matrix(0.7864 -0.6177 0.6177 0.7864 -367.3396 691.5482)" style="fill:#9FC1F4;" width="17.64" height="1.716"/>
			</g>
		</g>
	</g>
	<g style="opacity:0.7;">
		<g>
			<rect x="2563.365" y="915.348" style="fill:#BAD4F4;" width="294.977" height="539.213"/>
			<rect x="2576.314" y="924.819" style="fill:#DFEBFD;" width="269.438" height="529.742"/>
			<path style="fill:#C8DBF4;" d="M2800.051,1186.068c0-6.578,5.332-11.911,11.91-11.911s11.911,5.333,11.911,11.911
				s-5.333,11.91-11.911,11.91S2800.051,1192.646,2800.051,1186.068z"/>
			<g>
				<rect x="2655.816" y="1005.098" style="fill:#FFFFFF;" width="111.222" height="35.111"/>
				<rect x="2676.457" y="1015.983" style="fill:#BAD4F4;" width="69.94" height="3.612"/>
				<rect x="2686.246" y="1025.711" style="fill:#BAD4F4;" width="50.361" height="3.612"/>
			</g>
		</g>
		<g>
			<path style="fill:#BAD4F4;" d="M2654.48,1003.76v37.78h113.89v-37.78H2654.48z M2765.7,1038.87h-108.55v-32.44h108.55V1038.87z"
				/>
		</g>
	</g>
	<g>
		<g>
			<rect x="1289.289" y="915.348" style="fill:#BAD4F4;" width="294.976" height="539.213"/>
			<rect x="1302.238" y="924.819" style="fill:#DFEBFD;" width="269.439" height="529.742"/>
			<path style="fill:#C8DBF4;" d="M1525.974,1186.068c0-6.578,5.333-11.911,11.911-11.911s11.911,5.333,11.911,11.911
				s-5.333,11.91-11.911,11.91S1525.974,1192.646,1525.974,1186.068z"/>
			<g>
				<rect x="1381.74" y="1005.098" style="fill:#FFFFFF;" width="111.221" height="35.111"/>
				<rect x="1402.38" y="1015.983" style="fill:#BAD4F4;" width="69.94" height="3.612"/>
				<rect x="1412.169" y="1025.711" style="fill:#BAD4F4;" width="50.362" height="3.612"/>
			</g>
		</g>
		<g>
			<path style="fill:#BAD4F4;" d="M1380.4,1003.76v37.78h113.9v-37.78H1380.4z M1491.63,1038.87h-108.56v-32.44h108.56V1038.87z"/>
		</g>
	</g>
	<g style="opacity:0.7;">
		<g>
			<rect x="343.327" y="915.348" style="fill:#BAD4F4;" width="294.976" height="539.213"/>
			<rect x="356.276" y="924.819" style="fill:#EEF5FF;" width="269.439" height="529.742"/>
			<path style="fill:#C8DBF4;" d="M580.012,1186.068c0-6.578,5.333-11.911,11.911-11.911c6.578,0,11.911,5.333,11.911,11.911
				s-5.333,11.91-11.911,11.91C585.345,1197.979,580.012,1192.646,580.012,1186.068z"/>
		</g>
	</g>
	<g>
		<path style="fill:#233862;" d="M2840.277,1454.561h-26.409c0.197-1.385,0.87-5.599,2.106-9.479
			c0.428-1.352,0.928-2.665,1.496-3.805c2.567-5.127,18.882-1.866,18.882-1.866s1.515,1.299,2.698,6.258
			C2839.574,1447.852,2840.036,1450.751,2840.277,1454.561z"/>
		<path style="fill:#AEC3FF;" d="M2791.797,1051.174c0,0-21.045,3.695-25.802,16.116c-4.758,12.421-31.636,213.059-31.636,213.059
			s13.31,10.546,41.88,6.76C2804.809,1283.322,2791.797,1051.174,2791.797,1051.174z"/>
		<path style="fill:#233862;" d="M2760.473,1446.226c-0.071,3.593-0.523,6.993-1.827,8.335h-52.235
			c0.663-1.891,2.544-4.732,7.906-5.604c6.094-0.985,15.592-3.92,21.138-9.782c1.977-2.082,3.448-4.54,4.093-7.411
			c2.458-10.941,20.32,3.352,20.32,3.352S2760.589,1440.877,2760.473,1446.226z"/>
		<path style="fill:#EA8B49;" d="M2737.979,1440.905c5.838,1.862,16.994,7.547,24.082,4.873
			c4.579-1.727,30.183-75.787,31.843-108.181c0.123-2.355,0.586-5.642,1.312-9.648c1.517-8.36,4.169-19.849,7.224-32.525
			c8.193-33.967,19.275-76.46,19.034-90.041c-0.371-21.08-62.82-4.418-62.82-4.418s-4.296,17.291-5.152,42.326
			c-1.695,49.694-6.358,133.635-19.039,191.93C2733.923,1437.693,2735.557,1440.137,2737.979,1440.905z"/>
		<path style="fill:#FFA561;" d="M2781.322,1205.456l33.014,239.272c0,0,14.497,3.496,25.773,0.699c0,0,9.665-127.256,8.859-158.021
			c-0.805-30.766,6.938-82.322-1.767-88.008C2838.498,1193.712,2781.322,1205.456,2781.322,1205.456z"/>
		<path style="fill:#FFFFFF;" d="M2851.375,1062.135c0,0-34.693-22.434-59.578-10.961c-3.966,1.828-8.489,6.93-11.728,10.498
			c-8.995,9.912-26.571,167.36-26.571,167.36s49.894,16.898,97.877-5.734V1062.135z"/>
		<path style="fill:#AEC3FF;" d="M2789.822,1050.605c0,0-35.123,14.394-39.88,25.453c-4.757,11.061-20.218,78.979-20.218,86.942
			s26.92,1.78,31.254-11.064c3.599-10.667,15.737-43.435,22.138-64.16L2789.822,1050.605z"/>
		<g>
			<path style="fill:#FFB27D;" d="M2797.117,1061.573c7.667,1.504,18.931-0.1,27.177-5.534c-3.723-8.893-5.249-15.914-5.792-20.457
				c-0.032-0.242-0.056-0.477-0.08-0.702c-0.245-2.355-0.209-3.953-0.095-4.687h-19.823c0,0-5.419,2.479-5.419,4.19
				c0,0.916-0.008,1.792-0.024,2.629c-0.039,2.279-0.13,4.27-0.249,5.979c-0.377,5.563-1.015,8.183-1.015,8.183
				S2789.374,1060.055,2797.117,1061.573z"/>
			<path style="fill:#E2915A;" d="M2792.812,1042.991c15.018,2.902,23.735-5.305,25.69-7.409c0.277-0.302,0.42-0.48,0.42-0.48
				c-0.158-0.079-0.325-0.15-0.5-0.222c-5.59-2.264-18.276-0.464-25.361,2.133
				C2793.021,1039.292,2792.931,1041.282,2792.812,1042.991z"/>
			<path style="fill:#FFB27D;" d="M2823.407,1026.936c-2.684,14.443-21.32,13.969-29.374,13.061
				c-2.267-0.252-3.693-0.541-3.693-0.541c-2.555-0.683-3.981-4.708-4.644-9.98c-1.314-10.435,0.347-25.753,2.108-29.67
				c2.653-5.895,7.65-12.271,26.418-7.671C2832.994,996.737,2826.851,1008.43,2823.407,1026.936z"/>
			<path style="fill:#233862;" d="M2787.106,991.747c2.565-3.551,8.004-7.891,12.943-10.563c10.612-5.741,24.194,0.181,24.252,0.206
				c15.329,6.74,19.333,18.468,11.205,36.738c-8.594,19.319-16.777,17.146-16.777,17.146s1.737-1.08,1.58-7.102
				c-0.009-0.343-0.022-0.629-0.038-0.874c-0.079-1.234,0.355-2.472,1.278-3.295c1.903-1.699,2.832-6.839,1.237-8.271
				c-1.923-1.726-4.627,0.371-5.49,1.983c-0.754,1.14-2.105,1.538-3.363,0.743c-4.771-3.017-1.672-9.05-6.231-12.74
				c-4.56-3.69-13.811-0.592-20.65-3.533C2778.1,998.85,2785.174,994.423,2787.106,991.747z"/>
		</g>
		<path style="fill:#AEC3FF;" d="M2784.971,1295.09c3.021,0.777,6.01,1.415,8.983,1.907c2.629,0.447,5.245,0.78,7.866,1.003
			c14.847,1.292,29.762-0.797,47.193-5.797c3.926-1.125,7.98-2.402,12.191-3.817c0.448-0.15-1.146-46.247-2.985-93.794
			c-0.187-4.908-0.381-9.836-0.571-14.729c-0.083-2.073-0.162-4.135-0.245-6.192c-1.669-42.052-3.322-80.028-3.671-82.074
			c-0.797-4.627-1.543-8.571-2.355-11.989c-2.375-9.963-5.324-15.426-11.755-20.124c-0.626-0.476-5.769-3.068-10.304-5.324
			c-3.759-1.867-7.097-3.497-7.097-3.497c-0.004,0-0.004,0-0.004,0c-1.495,0.734-3.291,4.159-5.17,8.969
			c-3.453,8.864-7.18,22.439-9.772,32.576c-0.008,0.028-0.012,0.044-0.012,0.052c0,0.004,0,0.004,0,0.004
			c-1.67,6.546-2.867,11.644-3.207,13.106c-0.58,2.471-1.345,7.252-2.244,13.733c-1.222,8.821-2.681,20.795-4.223,34.381
			c-0.158,1.396-0.317,2.812-0.476,4.238c-0.183,1.63-0.369,3.278-0.552,4.944c-0.059,0.535-0.118,1.07-0.174,1.605
			c-0.595,5.38-1.193,10.934-1.788,16.579c-0.496,4.667-7.573,8.04-8.061,12.786c-0.281,2.787-0.869,28.5-1.626,36.707
			C2784.37,1236.203,2784.756,1292.334,2784.971,1295.09z"/>
		<path style="fill:#9DB0F4;" d="M2836.175,1108.55c0.022,0.096,1.202,42.523-30.712,47.677c-31.915,5.154-10.71,6.517-10.71,6.517
			s60.048-2.552,61.039-4.138S2836.175,1108.55,2836.175,1108.55z"/>
		<path style="fill:#9DB0F4;" d="M2809.21,1174.44c0,0,0.599,0.424,1.748,1.165c0.021,0.008,0.04,0.024,0.06,0.036
			c4.869,3.108,19.319,11.58,40.359,17.262c2.208,0.599,4.492,1.165,6.843,1.688c-0.187-4.908-0.381-9.836-0.571-14.729
			c2.779-0.218,5.439-0.57,7.91-1.094c-0.084-0.646-0.171-1.293-0.254-1.938c-2.676-1.099-5.337-2.157-7.901-3.16
			c-2.09-0.816-4.111-1.594-6.026-2.315c-8.643-3.282-15.049-5.507-15.049-5.507l-25.584,8.104L2809.21,1174.44z"/>
		<path style="fill:#AEC3FF;" d="M2802.438,1173.73c0,0,3.286,0.82,8.52,1.875c0.021,0,0.036,0.004,0.056,0.012
			c9.65,1.939,25.873,4.659,40.363,4.512c2.137-0.023,4.238-0.106,6.271-0.266c2.779-0.218,5.439-0.57,7.91-1.094
			c5.296-1.118,9.732-3.009,12.635-5.967c21.555-21.956-11.763-100.755-18.769-108.423c-8.179-8.952-23.105-12.092-31.348-13.17
			c-0.345-0.044-0.674-0.087-0.995-0.127c-2.898-0.345-4.758-0.416-4.86-0.421c-0.004,0-0.004,0-0.004,0s0.646,2.078,1.729,5.603
			c0.42,1.364,0.907,2.945,1.442,4.71c5.063,16.58,14.832,49.164,19.138,67.54c1.577,6.724,2.422,11.545,2.038,12.984
			c-1.682,6.275-19.098,9.503-30.131,10.93c-4.604,0.595-8.096,0.876-8.877,0.936c-0.056,0-0.107,0.005-0.162,0.013l-0.639,2.616
			l-1.526,6.276l-1.503,6.164L2802.438,1173.73z"/>
		<polygon style="fill:#233862;" points="2742.319,1211.502 2816.349,1208.384 2801.329,1116.125 2727.3,1119.244 		"/>
		<path style="fill:#FFB27D;" d="M2807.394,1153.377c0,0-14.41-1.005-15.134,2.354c-1.685,7.83,12.39,14.26,16.949,13.82
			C2813.768,1169.112,2810.711,1152.854,2807.394,1153.377z"/>
		<path style="fill:#FFB27D;" d="M2731.348,1137.979c0,0,13.787-4.311,15.268-1.21c3.45,7.228-8.756,16.738-13.293,17.365
			S2727.999,1138.237,2731.348,1137.979z"/>
		<path style="fill:#9DB0F4;" d="M2820.723,1046.03c0,0,6.063,2.89,9.102,7.25c0,0-22.661,39.346-22.561,38.978
			C2807.365,1091.889,2814.924,1051.069,2820.723,1046.03z"/>
		<path style="fill:#9DB0F4;" d="M2792.497,1046.585c-1.996,0.753-5.824,4.674-6.687,6.843l-2.694,34.349
			c0,0,5.752-25.208,8.681-36.603C2792.541,1048.277,2792.404,1047.397,2792.497,1046.585z"/>
		<path style="fill:#C65447;" d="M2776.789,1117.159c0,0-0.586-2.56-3.955-2.263c-3.37,0.297-22.301,1.229-22.301,1.229
			s-3.651-0.06-3.313,2.279L2776.789,1117.159z"/>
		<path style="fill:#FFFFFF;" d="M2798.504,1030.193c0,0-2.457,2.24-6.422,1.547c-2.351-0.412-3.667-3.47-3.667-3.47
			S2792.934,1027.458,2798.504,1030.193z"/>
	</g>
	<g>
		<path style="fill:#EF8E4B;" d="M1639.588,1378.332l-15.451-120.08c-1.998-15.528,9.752-29.315,24.982-29.315h431.003
			c17.023,0,31.946,11.704,36.447,28.588l30.436,114.151L1639.588,1378.332z"/>
		<path style="fill:#F79857;" d="M1678.983,1378.332l-15.452-120.08c-1.998-15.528,9.752-29.315,24.983-29.315h431.002
			c17.024,0,31.946,11.704,36.448,28.588l30.436,114.151L1678.983,1378.332z"/>
		<path style="fill:#EF8E4B;" d="M2160.666,1395.124h-504.52c-9.107,0-16.559-7.452-16.559-16.559v-33.523
			c0-9.107,7.451-16.559,16.559-16.559h504.52c9.107,0,16.559,7.451,16.559,16.559v33.523
			C2177.225,1387.672,2169.773,1395.124,2160.666,1395.124z"/>
		<path style="fill:#FFA561;" d="M2199.738,1395.124h-441.051c-18.071,0-32.857-14.786-32.857-32.857v-0.926
			c0-18.071,14.786-32.857,32.857-32.857h441.051c18.071,0,32.857,14.786,32.857,32.857v0.926
			C2232.596,1380.338,2217.81,1395.124,2199.738,1395.124z"/>
		<g>
			<path style="fill:#2E3552;" d="M1708.432,1454.561L1708.432,1454.561c-3.254,0-5.739-2.988-5.235-6.294l8.104-53.143h14.529
				l-14.294,56.963C1711.171,1453.543,1709.894,1454.561,1708.432,1454.561z"/>
		</g>
		<g>
			<path style="fill:#2E3552;" d="M2203.799,1454.561L2203.799,1454.561c3.254,0,5.739-2.988,5.235-6.294l-8.104-53.143H2186.4
				l14.294,56.963C2201.06,1453.543,2202.337,1454.561,2203.799,1454.561z"/>
		</g>
		<g>
			<path style="fill:#2E3552;" d="M2143.879,1454.561L2143.879,1454.561c3.255,0,5.74-2.988,5.235-6.294l-8.104-53.143h-14.528
				l14.294,56.963C2141.141,1453.543,2142.417,1454.561,2143.879,1454.561z"/>
		</g>
		<g>
			<path style="fill:#2E3552;" d="M1656.238,1454.561L1656.238,1454.561c-3.254,0-5.74-2.988-5.235-6.294l8.104-53.143h14.529
				l-14.295,56.963C1658.977,1453.543,1657.7,1454.561,1656.238,1454.561z"/>
		</g>
	</g>
	<g>
		<g>
			<g>
				<g>
					<path style="fill:#ED7D2B;" d="M852.827,1411.128l0.222-0.004c1.813-0.033,3.213-1.516,3.042-3.22l-12.094-120.781
						l-10.553,0.941l17.366,121.431C850.945,1410.444,851.813,1411.146,852.827,1411.128z"/>
				</g>
				<g>
					<path style="fill:#ED7D2B;" d="M736.374,1411.128l-0.222-0.004c-1.813-0.033-3.213-1.516-3.042-3.22l12.094-120.781
						l10.553,0.941l-17.366,121.431C738.256,1410.444,737.388,1411.146,736.374,1411.128z"/>
				</g>
				<g>
					<path style="fill:#ED7D2B;" d="M938.148,1411.128l0.222-0.004c1.813-0.033,3.213-1.516,3.043-3.22l-12.094-120.781
						l-10.553,0.941l17.366,121.431C936.267,1410.444,937.134,1411.146,938.148,1411.128z"/>
				</g>
				<path style="fill:#ED7D2B;" d="M739.976,1269.553l-21.467-106.012c-2.755-14.354,9.138-27.479,24.581-27.126l41.401,0.946
					c14.283,0.326,26.701,9.885,30.67,23.608l31.408,108.583H739.976z"/>
				<path style="fill:#ED7D2B;" d="M752.963,1269.553l-21.468-106.012c-2.755-14.354,9.139-27.479,24.581-27.126l41.401,0.946
					c14.283,0.326,26.701,9.885,30.67,23.608l31.408,108.583H752.963z"/>
				<path style="fill:#ED7D2B;" d="M745.959,1288.889H909.76c3.291,0,5.983-2.693,5.983-5.984v-7.367
					c0-3.291-2.692-5.984-5.983-5.984H739.976v13.352C739.976,1286.195,742.668,1288.889,745.959,1288.889z"/>
				<path style="fill:#ED7D2B;" d="M822.827,1288.889h104.419c2.651,0,4.82-2.169,4.82-4.82v-9.695c0-2.65-2.169-4.82-4.82-4.82
					H822.827c-2.651,0-4.82,2.17-4.82,4.82v9.695C818.006,1286.72,820.175,1288.889,822.827,1288.889z"/>
			</g>
			<g>
				<g>
					<g>
						<path style="fill:#ABDDDA;" d="M832.868,1160.634l17.399,44.026c0,0,16.765,19.757,30.239,13.389l-42.637-82.795
							L832.868,1160.634z"/>
						<path style="fill:#FFB27D;" d="M951.089,1402.524c-0.501,4.864,6.266,6.121,14.113,6.597
							c7.848,0.476,5.458,2.058,16.197,4.122c10.739,2.064,15.084-0.834,15.878-2.279c0.708-1.282-4.274-3.354-9.581-5.69
							c-0.668-0.292-1.336-0.593-2.005-0.894c-5.972-2.703-9.281-8.121-13.906-13.16c-4.38-4.773-8.425-19.95-8.425-19.95
							l-14.59-3.279c0,0,3.96,13.662,5.323,19.492c0.802,3.428-0.477,7.238-1.605,10.137
							C951.878,1399.195,951.264,1400.81,951.089,1402.524z"/>
						<path style="fill:#0F2549;" d="M965.202,1409.121c7.848,0.476,5.458,2.058,16.197,4.122
							c10.739,2.064,15.084-0.834,15.878-2.279c0.708-1.282-4.274-3.354-9.581-5.69l-0.084,0.09c0,0-7.594,2.487-16.301,0.02
							c-7.098-2.009-13.935-6.337-18.824-7.764c-0.609,1.576-1.224,3.19-1.398,4.905
							C950.588,1407.389,957.354,1408.646,965.202,1409.121z"/>
						<path style="fill:#8E312D;" d="M928.985,1233.5c-7.851-5.513-58.781-29.695-85.282-32.537l-30.29-11.071
							c0,0-24.932,36.928-25.13,65.178c-0.092,13.173,5.975,14.481,5.977,14.483c0,0,93.898,0.697,98.014,1.122
							c6.737,0.694,15.624,17.478,17.845,32.765c2.221,15.287,41.376,77.461,41.376,77.461s8.165,2.616,11.942,2.395
							c4.061-0.238,5.941-1.6,5.941-1.6S946.689,1245.932,928.985,1233.5z"/>
						<path style="fill:#FFB27D;" d="M926.802,1402.524c-0.501,4.864,6.265,6.121,14.113,6.597
							c7.848,0.476,5.458,2.058,16.197,4.122c10.739,2.064,15.083-0.834,15.877-2.279c0.708-1.282-4.273-3.354-9.581-5.69
							c-0.668-0.292-1.337-0.593-2.005-0.894c-5.972-2.703-9.282-8.121-13.906-13.16c-4.381-4.773-8.426-19.95-8.426-19.95
							l-14.589-3.279c0,0,3.96,13.662,5.323,19.492c0.802,3.428-0.477,7.238-1.605,10.137
							C927.591,1399.195,926.976,1400.81,926.802,1402.524z"/>
						<path style="fill:#233862;" d="M940.915,1409.121c7.848,0.476,5.458,2.058,16.197,4.122
							c10.739,2.064,15.083-0.834,15.877-2.279c0.708-1.282-4.273-3.354-9.581-5.69l-0.084,0.09c0,0-7.593,2.487-16.301,0.02
							c-7.098-2.009-13.935-6.337-18.824-7.764c-0.609,1.576-1.224,3.19-1.398,4.905
							C926.3,1407.389,933.067,1408.646,940.915,1409.121z"/>
						<path style="fill:#A9453D;" d="M904.483,1233.5c-6.817-4.787-23.977-6.96-48.921-15.086
							c-6.007-1.957-29.132-13.104-30.664-19.232l11.409-5.268l-47.395-4.022c0,0-11.992,23.245-12.189,51.495
							c-0.092,13.173,11.559,28.164,11.561,28.166c0,0,75.373,0.697,79.489,1.122c6.737,0.694,15.624,17.478,17.845,32.765
							c2.221,15.287,41.376,77.461,41.376,77.461s8.166,2.616,11.942,2.395c4.061-0.238,5.941-1.6,5.941-1.6
							S922.187,1245.932,904.483,1233.5z"/>
						<path style="fill:#233862;" d="M834.008,1036.463c-7.237-3.801-18.25-4.314-20.039-4.556
							c-21.409-2.877-34.294,28.232-35.052,37.658c-1.397,17.375-10.588,20.023-23.525,30.905
							c-25.94,21.817-18.333,47.17-4.149,56.59c8.51,5.652,23.511,0,23.511,0c0.212,0.147,41.026-22.816,61.144-33.894
							C866.059,1118.88,852.451,1046.147,834.008,1036.463z"/>
						<path style="fill:#FFB27D;" d="M829.543,1112.465c0.094,0.049-9.513,4.418-16.448,2.126
							c-6.523-2.149-12.27-11.971-12.177-11.985c2.832-0.41,5.709-3.203,6.513-19.756l1.254,0.315l21.083,5.329
							c0,0-0.834,6.679-1.178,12.993C828.299,1106.789,828.359,1111.836,829.543,1112.465z"/>
						<path style="fill:#ED975D;" d="M829.768,1088.494c0,0,0,1.374-0.788,7.588c-11.923-3.008-17.181-6.962-20.889-11.486
							L829.768,1088.494z"/>
						<path style="fill:#FFB27D;" d="M834.266,1089.335c0,0-27.879,4.539-30.438-12.866c-2.56-17.405-7.882-28.541,9.81-32.175
							c17.692-3.635,22.135,2.497,24.402,8.099C840.307,1057.995,841.452,1087.705,834.266,1089.335z"/>
						<path style="fill:#233862;" d="M834.292,1043.564c0,0-12.66,19.984-23.962,24.718c-11.302,4.733-16.854,2.33-16.854,2.33
							s5.142-7.796,6.481-18.265c0.395-3.085,2.405-5.73,5.293-6.887C813.36,1042.213,829.048,1037.09,834.292,1043.564z"/>
						<path style="fill:#233862;" d="M823.171,1045.496c0,0,7.421,3.805,10.477,7.37c2.949,3.44,6.355,12.777,6.112,16.97
							c0,0,3.661-20.094-3.964-27C827.711,1035.512,823.171,1045.496,823.171,1045.496z"/>
						<path style="fill:#FFFFFF;" d="M851.847,1154.986c-0.846,56.668,20.039,40.807,13.84,46.185
							c-1.494,1.294-7.606,10.939-30.661,12.085c-17.394,0.865-48.752-7.344-49.914-10.555c-4.008-11.111-1.178-14.563-4.523-31.575
							c-0.349-1.809-0.78-3.768-1.286-5.9c-2.788-11.684-5.502-15.658,4.39-34.429c8.97-17.003,19.519-30.815,20.357-30.318
							c23.667,14.05,24.477,2.273,24.477,2.273S852.262,1127.345,851.847,1154.986z"/>
						<path style="fill:#AFCDFB;" d="M828.527,1102.752c0,0,24.222,4.105,27.082,14.59c2.859,10.485,30.812,89.831,30.812,89.831
							s-29.81,0.813-35.529-4.906c-5.719-5.719-13.594-69.356-13.594-69.356L828.527,1102.752z"/>
						<path style="fill:#FFB27D;" d="M835.026,1199.044c0,0,3.592,4.633,4.77,5.187c1.177,0.553,1.938,0.415,1.938,0.415
							l-2.42-4.356L835.026,1199.044z"/>
						<path style="fill:#FFB27D;" d="M834.196,1194.272l10.443,5.071c0,0-0.444,0.727-1.73,0.668
							c-1.286-0.059-4.53-1.244-4.53-1.244L834.196,1194.272z"/>
						<path style="fill:#95B3EF;" d="M828.744,1099.053l-0.217,3.699c2.753,9.465,7.409,38.715,13.207,61.346l4.053-32.405
							l-3.334-2.723l1.251-4.584l-10.921-20.727L828.744,1099.053z"/>
						<path style="fill:#AFCDFB;" d="M815.337,1253.882c-37.359,12.5-53.768,4.836-53.768,4.836l6.104-36.115l3.333-19.695
							l7.148-42.277l12.206-40.199l10.681-6.468l9.319,46.667l2.453,45.893l0.117,2.206L815.337,1253.882z"/>
						<path style="fill:#95B3EF;" d="M783.476,1165.023c-0.625,0.985-0.653,20.188,17.441,24.886
							c18.094,4.698-26.497,9.272-26.497,9.272s-14.378-11.034-14.169-13.743C760.458,1182.729,783.476,1165.023,783.476,1165.023z"
							/>
						<path style="fill:#95B3EF;" d="M812.931,1208.729c-7.676,3.897-26.702,12.653-45.258,13.874l3.333-19.695l41.808,3.615
							L812.931,1208.729z"/>
						<path style="fill:#FFB27D;" d="M814.287,1196.568c0,0,17.143-3.817,19.909-2.296s9.526,7.062,10.373,8.989
							c0.846,1.929-6.158-1.463-8.436-2.074c-1.476-0.396-5.359,0.954-7.282,1.595c-8.091,2.697-13.049,1.31-13.049,1.31
							L814.287,1196.568z"/>
						<path style="fill:#AFCDFB;" d="M804.051,1100.479c0,0-24.263,1.419-32.232,12.532c-11.217,15.645-33.469,82.319-20.716,91.212
							c14.361,10.015,65.363,2.62,65.363,2.62s1.697-7.933-0.665-11.771c-2.361-3.837-40.735-10.036-42.506-11.808
							c-1.771-1.771,22.139-34.536,22.139-39.85S804.051,1100.479,804.051,1100.479z"/>
						<path style="fill:#95B3EF;" d="M805.448,1097.362l4.916,63.271l-11.253-24.226l1.928-4.313c0,0-4.116-7.085-4.116-7.919
							c0-0.833,1.171-23.017,1.171-23.017L805.448,1097.362z"/>
					</g>
				</g>
			</g>
		</g>
		<rect x="833.702" y="1202.267" style="fill:#233862;" width="32.298" height="2.098"/>
		<g>
			<polygon style="fill:#142D5E;" points="966.636,1188.144 868.284,1188.144 886.154,1122.051 984.506,1122.051 			"/>
			<polygon style="fill:#2B478B;" points="969.742,1188.144 871.391,1188.144 889.26,1122.051 987.612,1122.051 			"/>
			<polygon style="fill:#142D5E;" points="927.849,1204.176 907.227,1204.364 921.503,1160.846 942.125,1160.657 			"/>
			<rect x="894.491" y="1202.29" style="fill:#142D5E;" width="45.039" height="2.074"/>
		</g>
	</g>
	<g>
		<rect x="502.386" y="1217.827" style="fill:#FFA561;" width="555.874" height="237.599"/>
		<rect x="484.512" y="1204.393" style="fill:#FFFFFF;" width="591.622" height="19.428"/>
		<rect x="502.386" y="1374.993" style="fill:#FFFFFF;" width="555.874" height="38.366"/>
	</g>
	<g>
		<g>
			<path style="fill:#233862;" d="M1402.648,1217.237c-0.768,0-1.502-0.436-1.848-1.177l-6.855-14.715h-22.738
				c-1.125,0-2.037-0.912-2.037-2.037s0.912-2.037,2.037-2.037h24.036c0.792,0,1.512,0.46,1.847,1.178l7.403,15.891
				c0.476,1.02,0.034,2.231-0.986,2.707C1403.229,1217.176,1402.937,1217.237,1402.648,1217.237z"/>
		</g>
		<path style="fill:#233862;" d="M1388.059,1202.382h-17.47c-1.694,0-3.08-1.386-3.08-3.08l0,0c0-1.693,1.386-3.079,3.08-3.079
			h17.47c1.694,0,3.08,1.386,3.08,3.079l0,0C1391.139,1200.996,1389.753,1202.382,1388.059,1202.382z"/>
		<path style="fill:#FFB27D;" d="M1370.282,1192.918c0.569,0.435,10.707-0.854,13.97,1.205c3.263,2.058,6.396,7.769,4.931,9.808
			s-8.398-4.083-10.438-3.979c-2.039,0.104-7.895-1.706-7.895-1.706L1370.282,1192.918z"/>
		<path style="fill:#F9DDBF;" d="M1373.377,1192.106c0,0,1.059,1.843,1.041,3.449c-0.03,2.708-1.041,3.999-1.041,3.999
			s-12.261,0.979-25.46-0.926c-7.338-1.061-14.965-3.014-20.937-6.522c-8.109-4.768-15.643-21.744-21.247-37.949
			c-5.947-17.181-9.724-33.5-9.724-33.5c2.761-6.681,10.066-10.707,16.217-9.72c3.369,0.539,11.274,3.141,13.061,5.49
			c2.741,3.602,10.487,36.489,16.564,52.055C1343.189,1171.9,1373.377,1192.106,1373.377,1192.106z"/>
		<path style="fill:#EAC3A2;" d="M1347.917,1198.629c-7.338-1.061-14.965-3.014-20.937-6.522
			c-8.109-4.768-15.643-21.744-21.247-37.949c-0.089-11.702-0.089-21.365-0.089-21.365l13.276,5.507
			c0.408,0.815,4.691,40.992,14.276,49.15C1341.337,1194.375,1346.534,1197.764,1347.917,1198.629z"/>
		
			<rect x="1512.055" y="1299.735" transform="matrix(-1 -1.224647e-16 1.224647e-16 -1 3030.4922 2732.8877)" style="opacity:0.2;fill:#233862;" width="6.383" height="133.417"/>
		<g style="opacity:0.2;">
			<path style="fill:#233862;" d="M1526.575,1443.055c0-6.257-5.072-11.328-11.329-11.328s-11.329,5.071-11.329,11.328
				s5.072,11.329,11.329,11.329S1526.575,1449.312,1526.575,1443.055z"/>
			<path style="fill:#F99746;" d="M1511.356,1443.055c0-2.147,1.741-3.89,3.89-3.89s3.89,1.742,3.89,3.89
				c0,2.148-1.741,3.89-3.89,3.89S1511.356,1445.203,1511.356,1443.055z"/>
		</g>
		<g>
			<path style="fill:#233862;" d="M1354.033,1217.237c-0.768,0-1.502-0.436-1.848-1.177l-6.855-14.715h-22.738
				c-1.125,0-2.037-0.912-2.037-2.037s0.912-2.037,2.037-2.037h24.036c0.792,0,1.512,0.46,1.846,1.178l7.404,15.891
				c0.475,1.02,0.034,2.231-0.986,2.707C1354.613,1217.176,1354.321,1217.237,1354.033,1217.237z"/>
		</g>
		<g style="opacity:0.2;">
			<g>
				<g>
					<path style="fill:#2D53A0;" d="M1441.609,1448.954c-0.473-2.127,23.567-86.642,26.311-96.271l0.784,0.223
						c-7.368,25.866-26.454,93.518-26.295,95.896L1441.609,1448.954z"/>
				</g>
				<g>
					<path style="fill:#2D53A0;" d="M1406.828,1387.55c2.128-0.474,86.642,23.567,96.272,26.311l-0.223,0.783
						c-25.866-7.367-93.518-26.453-95.896-26.295L1406.828,1387.55z"/>
				</g>
				<g>
					<path style="fill:#2D53A0;" d="M1415.678,1370.038c2.146,0.384,70.859,55.147,78.687,61.391l-0.508,0.638
						c-21.027-16.77-76.09-60.461-78.346-61.232L1415.678,1370.038z"/>
				</g>
				<g>
					<path style="fill:#2D53A0;" d="M1505.06,1394.511c-2.042-0.763-89.068,11.359-98.985,12.744l0.112,0.807
						c26.637-3.72,96.277-13.266,98.611-12.78L1505.06,1394.511z"/>
				</g>
				<g>
					<path style="fill:#2D53A0;" d="M1436.083,1355.148c1.67,1.401,33.992,83.107,37.672,92.419l-0.758,0.3
						c-9.885-25.013-35.883-90.319-37.456-92.111L1436.083,1355.148z"/>
				</g>
				<g>
					<path style="fill:#2D53A0;" d="M1494.318,1371.094c-2.15,0.355-71.587,54.199-79.497,60.338l0.499,0.644
						c21.248-16.488,76.889-59.442,79.155-60.183L1494.318,1371.094z"/>
				</g>
			</g>
			<path style="fill:#F99746;" d="M1447.354,1402.093c0-3.75,3.04-6.79,6.79-6.79s6.79,3.04,6.79,6.79s-3.04,6.79-6.79,6.79
				S1447.354,1405.843,1447.354,1402.093z"/>
			<g>
				<path style="fill:#233862;" d="M1400.774,1401.016c0-29.428,23.941-53.369,53.369-53.369s53.369,23.941,53.369,53.369
					c0,29.427-23.941,53.368-53.369,53.368S1400.774,1430.442,1400.774,1401.016z M1406.478,1401.016
					c0,26.282,21.382,47.665,47.665,47.665s47.666-21.383,47.666-47.665c0-26.283-21.383-47.666-47.666-47.666
					S1406.478,1374.732,1406.478,1401.016z"/>
			</g>
		</g>
		<path style="fill:#233862;" d="M1339.443,1202.382h-17.47c-1.694,0-3.08-1.386-3.08-3.08l0,0c0-1.693,1.386-3.079,3.08-3.079
			h17.47c1.694,0,3.08,1.386,3.08,3.079l0,0C1342.523,1200.996,1341.137,1202.382,1339.443,1202.382z"/>
		<path style="fill:#ED985F;" d="M1493.7,1287.411c0,0,9.881,1.019,11.103,2.376c1.222,1.358,5.704,8.781,5.839,10.162
			s0.034,3.927-0.985,3.52c-1.018-0.407-5.289-7.197-7.453-7.299s-9.085-2.997-9.085-2.997L1493.7,1287.411z"/>
		<polygon style="fill:#2B478B;" points="1483.354,1340.194 1391.422,1341.14 1350.063,1211.86 1435.096,1210.915 		"/>
		<path style="fill:#ED985F;" d="M1453.675,1217.502c0,0,1.823,47.531,6.25,52.261c2.862,3.058,33.775,17.648,33.775,17.648
			l-0.311,5.826c0,0-40.21-5.692-46.137-12.862c-11.701-14.158-12.474-52.752-13.041-56.854
			C1433.646,1219.421,1445.398,1211.191,1453.675,1217.502z"/>
		<path style="fill:#1A3670;" d="M1544.176,1418.604h-30.769c0,0-1.15-4.907,0.87-8.247c1.788-2.954,1.103-4.638-0.221-7.082
			c1.394,0.57,3.197,1.089,5.182,0.976c1.533-0.088,3.154-0.784,4.576-1.609c1.324,1.51,6.995,7.937,8.767,9.209
			C1534.591,1413.295,1543.557,1412.78,1544.176,1418.604z"/>
		<path style="fill:#EA8B49;" d="M1402.316,1306.08c2.048,12.322,12.973,21.194,25.463,21.045
			c15.493-0.186,38.119-0.495,46.416-0.808c17.58-0.663,24.185,0.046,24.132,0.543c-0.789,7.385-1.439,4.234,6.754,3.657
			c0,0,28.967-0.816,20.3-20.635c-8.667-19.817-90.966-25.995-98.238-25.134C1420.958,1285.481,1399.142,1286.984,1402.316,1306.08z
			"/>
		<path style="fill:#EA8B49;" d="M1526.955,1317.66c-0.371,14.008-2.542,52.83,2.914,84.011c1.384,7.909-9.965,8.152-10.045,8.162
			c-2.156,0.255-5.938,0.443-7.197-1.12c-8.751-10.862-21.106-61.271-17.749-82.203c1.638-10.206,11.813-10.023,20.03-13.787
			C1519.967,1310.405,1527.102,1312.096,1526.955,1317.66z"/>
		
			<rect x="1375.337" y="1296.759" transform="matrix(-1 -1.224647e-16 1.224647e-16 -1 2757.0566 2699.9941)" style="fill:#233862;" width="6.383" height="106.477"/>
		<path style="fill:#233862;" d="M1424.211,1132.506c9.006-2.473,18.675-0.262,25.793,5.785c3.14,2.666,6.61,6.024,9.852,10.042
			c8.034,9.957-5.615,21.054-3.52,24.463c2.096,3.41,6.644,5.937,5.146,13.392s-13.613,17.717-17.716,18.378
			c-41.594,6.702-61.079-15.319-47.807-28.56c13.271-13.238,6.527-30.949,17.479-38.609
			C1416.821,1135.031,1420.601,1133.496,1424.211,1132.506z"/>
		<path style="fill:#FFB27D;" d="M1455.058,1214.076c-3.322,2.6-7.548,4.829-12.923,6.399
			c-20.148,5.892-28.966-10.916-32.586-22.594c2.693-1.754,5.293-2.255,6.796-2.523c1.466-0.259,3.012-0.464,4.293-0.601
			c2.192-1.889,5.195-9.272,5.309-20.476l0.975,0.202l16.347,3.479c0,0-0.443,5.157-0.526,10.014c-0.062,3.8,0.102,7.418,0.87,8.262
			c1.125,0.318,2.135,0.662,2.135,0.662c0.244,0.361,0.255,0.199,0.175,0.078C1446.158,1197.321,1451.003,1204.34,1455.058,1214.076
			z"/>
		<path style="fill:#ED985F;" d="M1443.27,1177.967c0,0-0.446,5.153-0.526,10.014c-9.17-0.389-13.9-8.826-15.821-13.492
			L1443.27,1177.967z"/>
		<path style="fill:#FFB27D;" d="M1446.268,1182.611c0,0-21.709,0.051-21.532-13.469c0.176-13.521-2.507-22.619,11.362-23.223
			c13.868-0.604,16.493,4.59,17.532,9.117C1454.668,1159.564,1451.919,1182.25,1446.268,1182.611z"/>
		<path style="fill:#233862;" d="M1453.09,1147.511c-3.297-4.114-5.845-3.258-7.283-2.056c-11.771-6.689-19.552,2.845-19.552,2.845
			c-1.589,9.68-8.664,15.138-8.664,15.138s4.012,2.847,13.075,0.284c11.595-3.279,15.042-13.694,15.5-15.291
			c1.308,1.209,2.95,1.932,4.332,4.637c1.642,3.214,2.665,5.075,3.002,10.488C1453.5,1163.556,1458.035,1153.681,1453.09,1147.511z"
			/>
		
			<rect x="1476.936" y="1418.126" transform="matrix(-1 -1.224647e-16 1.224647e-16 -1 3031.0342 2842.5068)" style="fill:#233862;" width="77.162" height="6.255"/>
		<path style="fill:#FFA561;" d="M1392.862,1306.08c2.048,12.322,12.973,21.194,25.464,21.045
			c15.493-0.186,38.118-0.495,46.415-0.808c17.58-0.663,24.186,0.046,24.132,0.543c-0.789,7.385-1.439,4.234,6.754,3.657
			c0,0,28.967-0.816,20.3-20.635c-8.667-19.817-90.965-25.995-98.238-25.134C1411.505,1285.481,1389.688,1286.984,1392.862,1306.08z
			"/>
		<path style="fill:#F9DDBF;" d="M1392.769,1264.937c1.475-10.09-2.115-48.288,5.866-60.227c5.771-8.634,13.775-12.04,23.65-12.202
			c3.18,1.804,15.292,8.611,20.036,7.401c0.051-0.013,0.143-0.04,0.265-0.079c2.227-0.694,2.989-2.331,1.025-3.591
			c-0.002-0.002,8.093,1.748,10.605,4.601c2.416,2.742,2.306,8.625,3.074,15.557c0.19,1.717,0.22,3.448,0.429,5.162
			c0.953,7.797-1.564,8.641-10.155,31.142c-4.199,11.002-2.23,19.784,0.572,25.633c2.515,5.247,0.754,11.541-4.163,14.653
			c-16.963,10.739-49.95,29.42-51.112,13.094C1391.684,1289.509,1390.732,1278.875,1392.769,1264.937z"/>
		<path style="fill:#FFB27D;" d="M1421.558,1216.029c0,0,8.149,55.314,13.58,59.998c3.51,3.028,38.397,8.644,38.397,8.644
			l0.572,5.379c0,0-49.769,3.654-52.617-0.5c-11.494-16.77-19.536-60.154-20.643-64.602
			C1399.739,1220.501,1411.704,1210.06,1421.558,1216.029z"/>
		<path style="fill:#2B478B;" d="M1534.723,1418.188h-30.769c0,0-1.15-4.907,0.87-8.247c1.788-2.954,1.103-4.638-0.221-7.082
			c1.394,0.57,3.197,1.09,5.182,0.976c1.533-0.088,3.154-0.783,4.576-1.609c1.324,1.51,6.995,7.937,8.767,9.21
			C1525.138,1412.88,1534.104,1412.365,1534.723,1418.188z"/>
		<path style="fill:#FFA561;" d="M1517.501,1317.66c-0.371,14.008-2.542,52.83,2.914,84.011c1.384,7.909-9.965,8.152-10.045,8.162
			c-2.156,0.255-5.938,0.443-7.198-1.12c-8.751-10.862-21.106-61.271-17.748-82.203c1.638-10.206,11.813-10.023,20.029-13.787
			C1510.514,1310.405,1517.648,1312.096,1517.501,1317.66z"/>
		<path style="fill:#FFFFFF;" d="M1449.874,1174.635c0,0-2.093-0.691-7.823,0.106c0,0,0.435,2.229,4.693,2.206
			C1449.157,1176.935,1449.874,1174.635,1449.874,1174.635z"/>
		<path style="fill:#F9DDBF;" d="M1429.298,1232.616c0,0-14.751,12.786-31.902,8.419c0,0-6.18-41.273,15.291-41.843
			C1412.687,1199.192,1430.477,1206.244,1429.298,1232.616z"/>
		
			<rect x="1381.72" y="1332.704" transform="matrix(-1 -1.224647e-16 1.224647e-16 -1 2866.5791 2673.5283)" style="fill:#233862;" width="103.14" height="8.12"/>
		
			<rect x="1451.13" y="1328.072" transform="matrix(-0.866 0.5 -0.5 -0.866 3405.0496 1844.7628)" style="fill:#233862;" width="8.518" height="100.942"/>
		<path style="fill:#2D53A0;" d="M1381.72,1332.704c1.882,0,9.045-6.751,20.282-6.387c11.237,0.363,73.937-0.015,73.937-0.015
			s8.185-0.859,8.95,6.401H1381.72z"/>
		
			<rect x="1475.939" y="1299.735" transform="matrix(-1 -1.224647e-16 1.224647e-16 -1 2958.2603 2732.8877)" style="fill:#233862;" width="6.382" height="133.417"/>
		<path style="fill:#FFB27D;" d="M1473.534,1284.671c0,0,11.034,0.635,12.256,1.993c1.222,1.357,5.703,8.781,5.839,10.162
			c0.136,1.381,0.034,3.927-0.985,3.52s-5.245-7.74-7.409-7.843c-2.164-0.102-9.129-2.453-9.129-2.453L1473.534,1284.671z"/>
		<path style="fill:#233862;" d="M1371.331,1303.512h120.317l0,0c0-7.385-5.987-13.372-13.373-13.372h-98.978
			c-4.4,0-7.967,3.566-7.967,7.967V1303.512z"/>
		<g>
			<g>
				<g>
					<path style="fill:#2D53A0;" d="M1365.994,1448.954c-0.473-2.127,23.568-86.642,26.311-96.271l0.784,0.223
						c-7.368,25.866-26.454,93.518-26.295,95.896L1365.994,1448.954z"/>
				</g>
				<g>
					<path style="fill:#2D53A0;" d="M1331.214,1387.55c2.127-0.474,86.642,23.567,96.271,26.311l-0.223,0.783
						c-25.866-7.367-93.517-26.453-95.896-26.295L1331.214,1387.55z"/>
				</g>
				<g>
					<path style="fill:#2D53A0;" d="M1340.063,1370.038c2.146,0.384,70.859,55.147,78.687,61.391l-0.508,0.638
						c-21.026-16.77-76.091-60.461-78.346-61.232L1340.063,1370.038z"/>
				</g>
				<g>
					<path style="fill:#2D53A0;" d="M1429.445,1394.511c-2.042-0.763-89.069,11.359-98.985,12.744l0.112,0.807
						c26.637-3.72,96.277-13.266,98.611-12.78L1429.445,1394.511z"/>
				</g>
				<g>
					<path style="fill:#2D53A0;" d="M1360.468,1355.148c1.669,1.401,33.992,83.107,37.672,92.419l-0.758,0.3
						c-9.885-25.013-35.883-90.319-37.456-92.111L1360.468,1355.148z"/>
				</g>
				<g>
					<path style="fill:#2D53A0;" d="M1418.704,1371.094c-2.15,0.355-71.587,54.199-79.497,60.338l0.5,0.644
						c21.248-16.488,76.889-59.442,79.154-60.183L1418.704,1371.094z"/>
				</g>
			</g>
			<path style="fill:#F99746;" d="M1371.738,1402.093c0-3.75,3.04-6.79,6.79-6.79s6.79,3.04,6.79,6.79s-3.04,6.79-6.79,6.79
				S1371.738,1405.843,1371.738,1402.093z"/>
			<g>
				<path style="fill:#233862;" d="M1325.16,1401.016c0-29.428,23.941-53.369,53.369-53.369s53.369,23.941,53.369,53.369
					c0,29.427-23.941,53.368-53.369,53.368S1325.16,1430.442,1325.16,1401.016z M1330.863,1401.016
					c0,26.282,21.382,47.665,47.665,47.665s47.665-21.383,47.665-47.665c0-26.283-21.382-47.666-47.665-47.666
					S1330.863,1374.732,1330.863,1401.016z"/>
			</g>
		</g>
		<g>
			<path style="fill:#233862;" d="M1490.459,1443.055c0-6.257-5.072-11.328-11.329-11.328s-11.329,5.071-11.329,11.328
				s5.072,11.329,11.329,11.329S1490.459,1449.312,1490.459,1443.055z"/>
			<path style="fill:#F99746;" d="M1475.241,1443.055c0-2.147,1.742-3.89,3.89-3.89s3.89,1.742,3.89,3.89
				c0,2.148-1.742,3.89-3.89,3.89S1475.241,1445.203,1475.241,1443.055z"/>
		</g>
		<path style="fill:#163560;" d="M1263.944,1127.997c-1.527-2.945,33.319-13.552,33.871,15.518c0,0,65.276-1.605,34.108-37.989
			c-10.79-12.596-9.68-23.01-9.356-32.704c0.328-9.695-6.721-37.873-30.883-35.036c0,0-6.327-2.574-14.224,1.522
			C1259.503,1048.624,1219.274,1138.718,1263.944,1127.997z"/>
		<path style="fill:#233862;" d="M1219.78,1421.347c0,0-7.314,6.675-5.887,11.418s8.028,7.905,8.92,13.702s4.46,8.959,7.671,8.959
			c3.211,0,15.31,0,15.31,0s2.364-4.079-3.345-5.309c-5.709-1.23-7.861-8.042-7.505-14.366c0.357-6.324-0.535-14.756-0.535-14.756
			l-12.131-2.811L1219.78,1421.347z"/>
		<path style="fill:#233862;" d="M1281.69,1424.181c0,0-2.625,28.622,0.587,30.203h41.453c0,0-0.363-5.171-6.964-6.225
			c-6.601-1.055-18.197-4.919-20.16-13.526C1294.644,1426.025,1281.69,1424.181,1281.69,1424.181z"/>
		<path style="fill:#FFB27D;" d="M1252.404,1221.302c8.457-18.966,13.632-24.409,12.644-30.296
			c-0.735-4.382,2.239-81.689,2.239-81.689c1.003-0.311,3.015-0.589,4.115-0.833c3.469-0.771,6.34-3.207,7.535-6.554
			c1.439-4.031,2.584-9.983,2.557-17.442l1.083,0.213l18.215,3.607c0,0-0.415,5.732-0.427,11.133c0,0.045,0,0.09,0,0.134
			c-0.022,4.69,3.055,8.83,7.561,10.131c2.301,0.664,4.303,1.231,4.303,1.231s6.688,19.097,7.966,38.714
			c1.277,19.617-12.163,28.14,0.101,67.342C1332.817,1257.03,1247.732,1231.782,1252.404,1221.302z"/>
		<path style="fill:#E8945B;" d="M1300.792,1088.308c0,0-0.415,5.732-0.427,11.133c-10.193-0.287-15.581-9.586-17.789-14.74
			L1300.792,1088.308z"/>
		<path style="fill:#FFB27D;" d="M1304.196,1093.421c0,0-24.116,0.397-24.133-14.624c-0.017-15.022-3.141-25.089,12.256-25.978
			c15.397-0.89,18.395,4.84,19.621,9.853C1313.165,1067.685,1310.469,1092.931,1304.196,1093.421z"/>
		<path style="fill:#163560;" d="M1303.304,1052.451c0,0-6.603,17.624-16.736,20.23c-10.134,2.605-14.529-0.109-14.529-0.109
			s7.773-6.175,9.386-16.954C1281.424,1055.618,1298.323,1044.063,1303.304,1052.451z"/>
		<path style="fill:#163560;" d="M1301.667,1053.882c0,0,4.896,1.831,6.912,5.401c1.971,3.492,3.649,8.117,3.26,13.791
			c0,0,4.975-11.979-0.616-18.755C1305.295,1047.134,1301.667,1053.882,1301.667,1053.882z"/>
		<path style="fill:#EBF3FA;" d="M1298.949,1084.102c0,0,1.664,2.189,4.993,2.032c2.682-0.127,3.716-2.454,3.716-2.454
			S1302.732,1082.496,1298.949,1084.102z"/>
		<path style="fill:#F9DDBF;" d="M1316.771,1187.489l-23.927,7.146l-7.586-1.86l-21.577-5.286c0,0-2.79-0.93-5.262-6.636
			c-0.469-1.077-1.313-4.369-2.194-8.256c-0.975-4.319-1.987-9.377-2.558-12.954c-0.836-5.262-2.512-11.813-3.973-18.873v-0.004
			c-1.073-5.164-2.027-10.597-2.456-16.002c-0.579-7.309,4.752-13.758,12.041-14.565l8.007-0.885
			c25.419,20.736,44.944,1.623,44.944,1.623s6.686,11.891,11.062,29.013C1327.669,1157.069,1316.771,1187.489,1316.771,1187.489z"/>
		<path style="fill:#EA8B49;" d="M1315.248,1192.105c0,0,11.849,36.88,12.609,49.437c0.761,12.556-22.649,178.375-23.591,184.16
			c-0.888,5.454-7.66,8.931-7.66,8.931s-3.115,1.837-7.56,0.582c-6.168-1.742-8.117-3.827-8.117-3.827s-9.223-118.261-3.515-160.505
			c5.707-42.245,5.774-78.777,5.774-78.777H1315.248z"/>
		<path style="fill:#FFA561;" d="M1265.048,1191.006c0,0-18.074,24.25-19.759,40.643c-1.685,16.394-2.644,73.975-6.233,89.956
			c-3.59,15.98-16.779,46.735-16.779,96.58c0,0,1.371,2.856,5.604,4.379c1.354,0.486,3.167,0.958,4.928,1.362
			c3.491,0.801,7.072-0.906,8.666-4.113c8.917-17.953,37.32-75.855,38.776-87.875c1.031-8.506,9.999-64.802,29.561-97.835
			c4.696-7.931-2.882-39.469-2.882-39.469L1265.048,1191.006z"/>
		<path style="fill:#FFFFFF;" d="M1299.485,1084.504c0,0,0.417,1.77,4.821,1.497c0,0,3.697-0.229,3.584-2.175
			C1307.891,1083.826,1304.305,1082.442,1299.485,1084.504z"/>
		<path style="fill:#233862;" d="M1317.141,1186.412c0,0-4.757,3.763-14.206,3.953c-11.287,0.227-39.254-2.878-39.254-2.878
			s-1.243,3.472-1.192,7.138c0,0,34.158,8.616,53.949,1.259C1316.438,1195.884,1318.99,1191.081,1317.141,1186.412z"/>
		<g>
			<path style="fill:#FFFFFF;" d="M1300.492,1194.262c0-3.214,2.311-5.828,5.15-5.828s5.15,2.614,5.15,5.828
				c0,3.215-2.311,5.829-5.15,5.829S1300.492,1197.477,1300.492,1194.262z M1302.2,1194.262c0,2.273,1.544,4.122,3.443,4.122
				c1.899,0,3.443-1.849,3.443-4.122c0-2.272-1.544-4.121-3.443-4.121C1303.744,1190.141,1302.2,1191.989,1302.2,1194.262z"/>
		</g>
		<path style="fill:#EAC3A2;" d="M1276.545,1186.413c-9.23-4.724-15.761-9.382-20.321-13.815c-0.975-4.319-1.987-9.377-2.558-12.954
			c-0.836-5.262-3.743-18.279-5.203-25.34l38.425,55.352C1286.889,1189.655,1288.618,1192.588,1276.545,1186.413z"/>
		<path style="fill:#EAC3A2;" d="M1290.15,1149.527c0,0,17.089,27.13,22.04,32.007c4.951,4.878-20.21-3.875-20.21-3.875
			L1290.15,1149.527z"/>
		<path style="fill:#FFB27D;" d="M1329.015,1193.058c0.569,0.434,10.707-0.854,13.97,1.204c3.263,2.059,6.396,7.769,4.931,9.809
			c-1.464,2.039-8.398-4.083-10.438-3.979c-2.039,0.104-7.895-1.707-7.895-1.707L1329.015,1193.058z"/>
		<path style="fill:#F9DDBF;" d="M1248.463,1134.304c0,0,18.019,47.978,34.725,57.802c16.707,9.823,46.396,7.448,46.396,7.448
			s0.861-1.317,1.097-4.117c0.116-1.384-1.097-3.331-1.097-3.331s-30.189-20.204-31.524-23.623
			c-6.08-15.566-14.888-35.486-18.559-38.138S1252.588,1124.311,1248.463,1134.304z"/>
	</g>
	<g>
		<g>
			<path style="fill:#FFB27D;" d="M2495.107,1127.079c0,0,4.651-5.645,7.152-6.437c2.502-0.793,7.343-4.539,7.975-2.995
				c0.631,1.545-3.254,3.925-3.049,5.69c0.204,1.765,12.352,4.598,12.276,6.466c-0.075,1.867-2.858,6.381-7.49,5.862
				c-4.633-0.518-16.383-3.306-18.796-2.102S2495.107,1127.079,2495.107,1127.079z"/>
			<path style="fill:#F9DDBF;" d="M2369.837,1099.621c6.858,9.214,14.889,16.49,23.139,22.227
				c26.224,18.243,54.67,20.961,54.67,20.961c6.817-2.182,27.759-4.461,40.134-6.455h0.005c5.395-0.866,9.157-1.683,9.412-2.406
				l-0.311-10.779c0,0-45.421-2.401-52.942-5.89c-11.859-10.218-22.338-23.485-29.165-33.851
				c-5.767-8.755-12.222-15.221-22.863-19.014C2376.526,1058.928,2348.544,1071.017,2369.837,1099.621z"/>
			<path style="fill:#EAC3A2;" d="M2390.66,1115.066l2.315,6.781c26.224,18.243,54.67,20.961,54.67,20.961
				c5.477,0,27.759-4.461,40.134-6.455c-0.49,0.041-33.693,2.637-41.031,1.877c-7.394-0.765-41.811-30.594-41.811-30.594
				L2390.66,1115.066z"/>
			<path style="fill:#233862;" d="M2420.313,1456.651h-50.194c-3.597-2.438,0.97-26.283,0.97-26.283s13.699-5.197,16.065,5.373
				c2.374,10.563,17.449,13.922,25.429,15.21C2418.041,1451.84,2419.767,1454.839,2420.313,1456.651z"/>
			<path style="fill:#233862;" d="M2345.869,1456.651h-50.195c-3.596-2.438,0.971-26.283,0.971-26.283s13.699-5.197,16.065,5.373
				c2.373,10.563,17.449,13.922,25.429,15.21C2343.598,1451.84,2345.323,1454.839,2345.869,1456.651z"/>
			<path style="fill:#2B478B;" d="M2406.808,1213.399c0,0-2.256,28.148-4.907,61.984c-3.604,45.963-13.325,159.923-13.325,159.923
				s-6.373,5.438-20.489,2.463c0,0-12.016-39.314-15.608-84.186c-0.056-0.735-0.111-1.477-0.167-2.217
				c-3.343-45.68-8.54-141.867-8.54-141.867L2406.808,1213.399z"/>
			<path style="fill:#233862;" d="M2407.578,1203.673c0,0-3.026,37.875-5.678,71.711l-49.423,78.2
				c-0.056-0.735-0.111-1.477-0.167-2.217c-3.343-45.68-8.54-141.867-8.54-141.867L2407.578,1203.673z"/>
			<path style="fill:#2B478B;" d="M2393.173,1203.673c0,0-35.845,89.225-47.304,123.046
				c-8.162,24.092-31.182,108.605-31.182,108.605s-10.01,3.047-18.423-2.842c0,0-8.564-86.346,8.735-110.692
				c9.178-12.917,2.28-134.276,39.493-135.314C2381.706,1185.437,2393.173,1203.673,2393.173,1203.673z"/>
			<path style="fill:#FFB27D;" d="M2377.162,1072.141c-5.473,2.882-10.813,3.063-15.442,2.078c-4.235-0.891-7.872-2.76-10.462-4.415
				c-2.658-1.699-4.221-3.179-4.221-3.179s0.185-0.268,0.496-0.794c1.616-2.765,6.519-12.706,4.338-28.679
				c-0.029-0.21,1.553,0.087,3.943,0.651c7.112,1.685,21.41,5.74,22.043,5.92c0.016,0,0.025,0,0.025,0s0.175,3.359,0.764,9.382
				c0.049,0.53,0.103,1.086,0.161,1.66c0.073,0.706,0.146,1.455,0.233,2.225C2379.703,1063.251,2377.162,1072.141,2377.162,1072.141
				z"/>
			<path style="fill:#ED975D;" d="M2378.646,1053.105c-10.617,2.434-26.464-13.242-26.464-13.242
				c1.158-0.861,2.376-1.543,3.632-2.06c7.112,1.685,21.41,5.74,22.043,5.92c0.016,0,0.025,0,0.025,0
				S2378.058,1047.083,2378.646,1053.105z"/>
			<path style="fill:#FFB27D;" d="M2382.254,1042.875c0,0-4.365,1.567-9.933,2.315c-8.14,1.099-18.843,0.451-22.206-9.397
				c-5.664-16.577-12.898-26.517,3.769-33.285c8.923-3.625,14.63-3.817,18.507-2.434c3.368,1.193,5.354,3.578,6.857,5.936
				C2382.485,1011.085,2388.996,1039.974,2382.254,1042.875z"/>
			<path style="fill:#A9453D;" d="M2392.367,1007.32c-9.65,6.936-23,0.117-27.15,1.963c-4.145,1.842-4.89,8.794-4.964,11.001
				c-0.074,2.211-0.365,4.075-5.995,2.752c-0.922-0.216-1.587-0.151-2.043,0.122c-2.336,1.386,0.648,8.101,1.549,9.555
				c0,0,1.295,4.81-1.58,7.151c-0.348,0.28-5.994,2.748-19.602-18.076c-2.139-3.269-4.18-10.632-0.877-17.722
				c3.299-7.09,17.09-13.943,28.783-17.575c4.383-1.362,7.632-1.312,10.174-0.379c4.24,1.549,6.501,5.557,8.744,9.582
				C2383.168,1002.455,2392.367,1007.32,2392.367,1007.32z"/>
			<path style="fill:#F9DDBF;" d="M2412.414,1188.647c-0.775,10.226-2.938,17.55-7.672,17.55c0,0-21.061,7.412-46.229,7.61
				c-4.92,0.035-11.887-0.921-17.665-1.89c-5.901-1-10.574-2.008-10.574-2.008c-5.06-1.168-10.645-4.295-9.896-10.063
				c0.423-3.268,0.718-7.522,0.92-12.468c0.555-13.366,0.463-31.784,0.533-49.413c0.049-10.83,0.154-21.355,0.516-30.233
				c0,0-4.968-34.88,0.551-40.602c6.46-6.693,25.438-8.75,26.626-8.495c0.356-0.074,0.714-0.163,1.079-0.225
				c0,0,16.506,9.003,28.512,2.261c0,0,17.515,3.993,22.553,9.322c1.739,1.832,8.681,13.093,8.87,25.459
				c0.264,17.238-0.409,36.822-0.409,36.827c0.18,2.801,0.479,6.407,0.81,10.529c0.353,4.392,0.739,9.351,1.07,14.521
				c0.163,2.607,0.317,5.268,0.44,7.928C2412.823,1173.467,2412.938,1181.724,2412.414,1188.647z"/>
			<path style="fill:#EAC3A2;" d="M2349.604,1058.655c0,0,17.885,18.446,30.671,14.667c0,0,1.704-2.491-4.055-3.29
				C2370.461,1069.234,2364.246,1069.561,2349.604,1058.655z"/>
			<path style="fill:#FFFFFF;" d="M2382.381,1032.173c0,0,0.349,2.146-4.641,3.858c0,0-4.189,1.438-4.954-0.762
				C2372.786,1035.27,2376.113,1032.101,2382.381,1032.173z"/>
			<path style="fill:#EAC3A2;" d="M2338.268,1123.485c0,0,0.035,49.889-16.969,63.894c0.555-13.366,0.463-31.784,0.533-49.413
				L2338.268,1123.485z"/>
			<path style="fill:#FFB27D;" d="M2285.993,1216.875c0,0-8.658,13.592-9.144,18.795c-0.33,3.538,0.465,17.482,2.229,17.531
				c2.492,0.068,4.984-8.606,5.949-10.857c0.965-2.252,2.091-4.021,3.056-4.021s-2.091,8.684,0,7.719
				c2.09-0.965,5.628-8.999,5.949-10.932c0.322-1.933-1.887-8.113-0.809-10.547
				C2294.302,1222.13,2285.993,1216.875,2285.993,1216.875z"/>
			<path style="fill:#F9DDBF;" d="M2324.547,1065.242c0,0-11.699,5.526-21.509,46.438c-7.396,30.844-21.547,109.599-21.547,109.599
				l11.972,4.925c0,0,43.843-100.656,50.113-114.812C2349.848,1097.236,2324.547,1065.242,2324.547,1065.242z"/>
		</g>
		<g>
			<g>
				<path style="fill:#FFB27D;" d="M2539.924,1123.486c0,0,11.574,56.584,15.979,65.832s22.02,42.529,22.02,42.529l-5.02,0.834
					c0,0-31.871-30.143-32.979-33.675c-1.108-3.532-21.896-47.593-21.896-47.593L2539.924,1123.486z"/>
				<path style="fill:#233862;" d="M2517.607,1037.125c0,0-22.441-26.967-34.322-9.712c0,0-8.864,3.678-12.07,18.765
					c-3.271,15.393,6.966,27.093,12.258,24.201c3.395-1.854,5.965,4.086,5.965,4.086L2517.607,1037.125z"/>
				<path style="fill:#233862;" d="M2485.736,1024.679c0,0-3.018-12.069-20.744-8.298c0,0,8.486-1.068,10.813,2.2
					c0,0-6.727-3.08-10.938-0.503s-4.903,11.252-4.274,13.893s5.28,10.498,8.36,10.498s6.726-2.703,6.726-2.703L2485.736,1024.679z"
					/>
				<path style="fill:#FFB27D;" d="M2459.21,1213.576c8.814-19.768,13.031-25.356,13.179-31.576
					c0.116-4.918-2.309-10.226-7.02-23.237c-1.109-3.066-1.875-6.22-2.346-9.407c-3.727-25.085,10.781-52.204,19.797-54.051
					c2.508-0.663,6.761-9.725,6.709-24.324l1.129,0.223l18.984,3.76c0,0-0.432,5.975-0.444,11.603
					c-0.013,4.69,0.271,9.137,1.333,9.696c1.366,0.123,2.173,0.205,2.173,0.205s15.829,21.983,17.161,42.43
					c1.331,20.447-12.677,29.329,0.105,70.188C2543.021,1250.814,2454.341,1224.499,2459.21,1213.576z"/>
				<path style="fill:#E8945B;" d="M2509.643,1074.963c0,0-0.432,5.975-0.444,11.603c-10.624-0.3-16.239-9.99-18.54-15.362
					L2509.643,1074.963z"/>
				<path style="fill:#233862;" d="M2488.697,1069.137c0,0-5.567-8.797-6.904-16.319c-0.953-5.37,1.781-25.275,21.785-22.409
					c0,0,5.81,0.573,11.271,4.262c4.343,2.933,10.61,9.266,3.603,26.636l-1.82,5.867L2488.697,1069.137z"/>
				<path style="fill:#FFB27D;" d="M2513.19,1080.292c0,0-25.136,0.415-25.152-15.242c-0.018-15.657-3.273-26.148,12.774-27.075
					c16.047-0.927,19.172,5.044,20.449,10.269S2519.729,1079.78,2513.19,1080.292z"/>
				<path style="fill:#233862;" d="M2512.26,1037.591c0,0-6.881,18.369-17.443,21.085c-10.562,2.716-15.143-0.114-15.143-0.114
					s8.102-6.436,9.782-17.669C2489.456,1040.893,2507.069,1028.848,2512.26,1037.591z"/>
				<path style="fill:#233862;" d="M2510.555,1039.082c0,0,5.14,4.102,6.393,8.088c1.253,3.987,1.816,12.195,4.209,11.916
					c0,0,5.185-12.485-0.642-19.548C2514.336,1032.049,2510.555,1039.082,2510.555,1039.082z"/>
				<path style="fill:#163560;" d="M2481.467,1403.26c6.322,25.156,15.843,44.441,15.843,44.441l8.289-0.574
					c0,0-4.065-19.338-3.831-45.466c0.164-18.266,2.423-39.854,9.641-60.466c24.801-70.833,20.793-122.384,20.793-122.384
					l-46.641,5.455l-2.172,0.255c-0.194,21.42-0.748,50.502-1.231,73.243c-0.428,20.452-0.804,35.772-0.804,35.772
					C2472.387,1352.849,2475.644,1380.108,2481.467,1403.26z"/>
				<path style="fill:#FFB27D;" d="M2426.52,1234.572l7.547,2.264c0,0,24.892-41.302,27.155-52.048
					c0.738-3.499,2.548-10.5,4.66-18.345c4.371-16.244,10.013-36.122,10.013-36.122l1.857-8.047l6.336-27.44
					c0,0-12.133,1.239-19.229,4.207c-2.35,0.98-4.143,2.15-4.769,3.524c-5.213,11.463-10.418,40.395-14.076,61.032
					c-2.039,11.502-3.594,20.43-4.406,22.322C2439.344,1191.197,2432.429,1220.241,2426.52,1234.572z"/>
				<path style="fill:#1C468A;" d="M2444.7,1376.709c-2.276,15.313-7.956,57.641-5.747,64.72l9.051-1.524
					c0,0,16.628-38.243,20.404-48.735c7.771-21.585,16.765-34.718,19.826-44.848c9.572-31.675,21.467-134.986,21.467-134.986
					l-47.287-2.346c-4.756,7.995-6.829,21.108-7.322,36.019c-1.243,37.63,3.774,81.151,5.096,88.248
					C2456.329,1339.605,2448.979,1347.935,2444.7,1376.709z"/>
				<path style="fill:#233862;" d="M2511.51,1039.703c0,0-4.903,19.235-18.23,25.396c0,0,13.327-11.817,14.459-24.516
					C2508.869,1027.885,2511.51,1039.703,2511.51,1039.703z"/>
				<path style="fill:#F99746;" d="M2453.282,1227.848c-0.082,1.594,0.005,2.868,0.294,3.779c1.007,3.166,4.462,4.608,12.815,3.744
					c5.105-0.53,7.382-9.087,8.396-16.387c3.067,10.443,7.36,16.305,12.911,17.536c8.099,1.802,48.951,6.769,51.624-12.651
					c2.942-21.359-5.865-59.179-6.349-79.57c1.2-7.23,1.611-13.507,1.481-18.897c-0.342-14.525-4.604-22.668-7.883-25.946
					c-0.929-0.713-1.857-1.157-5.585-1.797c-1.905-0.324-4.544-0.699-8.284-1.191c0,0-1.526-0.172-1.491-0.116
					c0.69,1.235,9.943,15.246,9.223,18.849c-0.756,3.771-33.57,0.376-35.834-1.697c-2.263-2.073-5.844-17.96-5.844-17.96
					s-11.619,1.27-17.303,5.403c0,0,0.021,0.026,0.061,0.073c-0.688,0.493-1.201,1.016-1.495,1.572
					c-6.064,11.546-12.12,40.685-16.379,61.469c10.323,5.688,19.342,3.995,22.142,3.244
					C2462.124,1191.241,2453.826,1216.941,2453.282,1227.848z"/>
				<g>
					<path style="fill:#233862;" d="M2492.536,1454.651h5.292c1.772-0.278,3.081-0.792,4.899-1.029
						c2.761-0.362,4.031,0.77,4.284,1.029c0.034,0.034,0.049,0.054,0.049,0.054h22.479c0.565-0.808,0.022-2.679-0.509-4.055
						c-0.358-0.936-1.14-1.645-2.105-1.924c-2.383-0.69-7.082-1.305-11.386-5.201c-2.422-2.188-11.692-8.045-11.692-8.045
						l-0.049-0.012c-0.204,0.004-1.174,0.302-5.391,3.862c-2.18,1.837-5.895-2.595-5.895-2.595s-0.697,0.577-1.219,1.651
						c-0.418,0.849-0.724,2.015-0.482,3.452c0.336,2.025-0.747,5.789-1.61,8.335c-0.524,1.542-0.966,2.637-0.966,2.637
						S2487.983,1454.082,2492.536,1454.651z"/>
					<path style="fill:#466AA5;" d="M2491.295,1438.388c1.264,0.891,3.931,2.645,5.699,2.874c2.388,0.313,6.854-5.781,6.854-5.781
						l-0.049-0.012c-0.204,0.004-1.174,0.302-5.391,3.862c-2.18,1.837-5.895-2.595-5.895-2.595S2491.816,1437.313,2491.295,1438.388
						z"/>
					<path style="fill:#466AA5;" d="M2492.536,1454.651h5.292c1.772-0.278,3.081-0.792,4.899-1.029
						c2.761-0.362,4.031,0.77,4.284,1.029c0.034,0.034,0.049,0.054,0.049,0.054h22.479c0.565-0.808,0.022-2.679-0.509-4.055
						c-0.683-0.607-0.875,2.636-1.252,3.152c-0.377,0.518-18.338,0.189-19.376-0.565c-1.037-0.754-4.148-2.074-8.486-1.037
						c-3.774,0.901-9.338-1.411-10.715-2.025c-0.524,1.542-0.966,2.637-0.966,2.637S2487.983,1454.082,2492.536,1454.651z"/>
				</g>
				<g>
					<path style="fill:#233862;" d="M2438.237,1454.651h5.292c1.772-0.278,3.081-0.792,4.898-1.029
						c2.762-0.362,4.032,0.77,4.285,1.029c0.034,0.034,0.049,0.054,0.049,0.054h22.479c0.565-0.808,0.022-2.679-0.509-4.055
						c-0.359-0.936-1.14-1.645-2.105-1.924c-2.383-0.69-7.083-1.305-11.387-5.201c-2.421-2.188-11.691-8.045-11.691-8.045
						l-0.05-0.012c-0.203,0.004-1.173,0.302-5.39,3.862c-2.18,1.837-5.895-2.595-5.895-2.595s-0.698,0.577-1.219,1.651
						c-0.418,0.849-0.725,2.015-0.482,3.452c0.336,2.025-0.747,5.789-1.611,8.335c-0.523,1.542-0.965,2.637-0.965,2.637
						S2433.685,1454.082,2438.237,1454.651z"/>
					<path style="fill:#466AA5;" d="M2436.996,1438.388c1.264,0.891,3.93,2.645,5.699,2.874c2.388,0.313,6.854-5.781,6.854-5.781
						l-0.05-0.012c-0.203,0.004-1.173,0.302-5.39,3.862c-2.18,1.837-5.895-2.595-5.895-2.595S2437.517,1437.313,2436.996,1438.388z"
						/>
					<path style="fill:#466AA5;" d="M2438.237,1454.651h5.292c1.772-0.278,3.081-0.792,4.898-1.029
						c2.762-0.362,4.032,0.77,4.285,1.029c0.034,0.034,0.049,0.054,0.049,0.054h22.479c0.565-0.808,0.022-2.679-0.509-4.055
						c-0.684-0.607-0.875,2.636-1.253,3.152c-0.377,0.518-18.338,0.189-19.375-0.565c-1.037-0.754-4.148-2.074-8.486-1.037
						c-3.775,0.901-9.339-1.411-10.716-2.025c-0.523,1.542-0.965,2.637-0.965,2.637S2433.685,1454.082,2438.237,1454.651z"/>
				</g>
				<path style="fill:#F99746;" d="M2526.089,1099.115c0,0,14.757,7.564,19.978,39.398c0,0-5.134,7.038-12.366,9.114
					c-1.033,0.297-2.109,0.492-3.219,0.552C2521.602,1148.652,2526.089,1099.115,2526.089,1099.115z"/>
				<path style="fill:#FFFFFF;" d="M2508.28,1070.998c0,0,0.435,1.845,5.024,1.561c0,0,3.854-0.238,3.736-2.267
					C2517.041,1070.292,2513.304,1068.85,2508.28,1070.998z"/>
				<path style="fill:#FFB27D;" d="M2573.856,1226.006c0,0,8.9,4.369,10.472,7.482c0.973,1.926-0.887,8.929-2.764,9.779
					c-1.877,0.852-1.865-4.974-3.5-5.562s-6.461-3.17-7.068-5.024C2569.217,1227.258,2573.856,1226.006,2573.856,1226.006z"/>
				<g>
					<g>
						
							<rect x="2599.044" y="1234.624" transform="matrix(0.98 -0.1991 0.1991 0.98 -215.794 544.8058)" style="fill:#163560;" width="2.642" height="221.007"/>
					</g>
					<path style="fill:#163560;" d="M2583.263,1258.703l-0.92,0.189c-1.255,0.258-2.481-0.551-2.739-1.806l-4.004-19.469
						c-0.258-1.255,0.551-2.481,1.805-2.739l0.92-0.189c1.256-0.258,2.481,0.55,2.74,1.805l4.003,19.47
						C2585.325,1257.219,2584.518,1258.445,2583.263,1258.703z"/>
				</g>
				<path style="fill:#FFB27D;" d="M2571.271,1233.215c0,0,4.076,5.483,4.419,5.995c0.343,0.513,0.905-0.953,0.636-1.956
					c-0.27-1.002-1.638-4.939-1.638-4.939L2571.271,1233.215z"/>
			</g>
			<g>
				<path style="fill:#FFB27D;" d="M2427.865,1231.112c0,0-10.929,6.721-12.513,9.625c-1.584,2.903-5.28,13.596-5.28,13.596
					s2.641,0.396,5.28-4.224s11.352-4.225,14.256-6.732s6.282-9.857,6.282-9.857L2427.865,1231.112z"/>
				<path style="fill:#FFB27D;" d="M2434.764,1235.793c0,0-1.723,8.112-3.835,10.488s-5.017,6.336-6.204,5.28
					c-1.188-1.057,1.32-9.9,1.32-9.9L2434.764,1235.793z"/>
				<path style="fill:#FFB27D;" d="M2416.805,1241.661c-0.265,0.396-9.373,10.075-9.373,10.075s3.301,1.496,4.225,0
					C2412.58,1250.241,2416.805,1241.661,2416.805,1241.661z"/>
			</g>
		</g>
		<path style="fill:#163560;" d="M2506.885,1061.151h-3.606c-1.646,0-2.979-1.334-2.979-2.979v-1.112
			c0-0.826,0.67-1.496,1.496-1.496h7.053c0.542,0,0.98,0.438,0.98,0.98v1.664C2509.828,1059.833,2508.51,1061.151,2506.885,1061.151
			z"/>
		<path style="fill:#163560;" d="M2517.637,1061.151h3.605c1.646,0,2.98-1.334,2.98-2.979v-1.112c0-0.826-0.67-1.496-1.496-1.496
			h-7.054c-0.541,0-0.98,0.438-0.98,0.98v1.664C2514.692,1059.833,2516.01,1061.151,2517.637,1061.151z"/>
		<g>
			<path style="fill:#163560;" d="M2515.693,1057.977c-0.031-0.014-3.104-1.338-6.041-0.001l-0.221-0.485
				c3.161-1.438,6.344-0.061,6.477-0.001L2515.693,1057.977z"/>
		</g>
	</g>
	<g>
		<rect x="1716.593" y="851.042" style="fill:#DFEBFD;" width="279.12" height="197.552"/>
		<rect x="1738.266" y="866.556" style="fill:#BAD4F4;" width="77.919" height="69.678"/>
		<rect x="1891.003" y="982.944" style="fill:#BAD4F4;" width="75.642" height="43.638"/>
		<g>
			<rect x="1829.114" y="869.197" style="fill:#BAD4F4;" width="66.065" height="3.521"/>
			<rect x="1899.309" y="869.197" style="fill:#BAD4F4;" width="29.106" height="3.521"/>
			<rect x="1932.525" y="869.197" style="fill:#BAD4F4;" width="29.105" height="3.521"/>
		</g>
		<g>
			<rect x="1829.114" y="879.761" style="fill:#BAD4F4;" width="66.065" height="3.521"/>
			<rect x="1899.309" y="879.761" style="fill:#BAD4F4;" width="29.106" height="3.521"/>
			<rect x="1932.525" y="879.761" style="fill:#BAD4F4;" width="29.105" height="3.521"/>
		</g>
		<g>
			<rect x="1829.114" y="890.324" style="fill:#BAD4F4;" width="66.065" height="3.521"/>
			<rect x="1899.309" y="890.324" style="fill:#BAD4F4;" width="29.106" height="3.521"/>
			<rect x="1932.525" y="890.324" style="fill:#BAD4F4;" width="29.105" height="3.521"/>
		</g>
		<g>
			<rect x="1829.114" y="911.939" style="fill:#BAD4F4;" width="66.065" height="3.521"/>
			<rect x="1899.309" y="911.939" style="fill:#BAD4F4;" width="29.106" height="3.521"/>
			<rect x="1932.525" y="911.939" style="fill:#BAD4F4;" width="29.105" height="3.521"/>
		</g>
		<g>
			<rect x="1829.114" y="922.502" style="fill:#BAD4F4;" width="66.065" height="3.521"/>
			<rect x="1899.309" y="922.502" style="fill:#BAD4F4;" width="29.106" height="3.521"/>
			<rect x="1932.525" y="922.502" style="fill:#BAD4F4;" width="29.105" height="3.521"/>
		</g>
		<g>
			<rect x="1829.114" y="933.065" style="fill:#BAD4F4;" width="66.065" height="3.522"/>
			<rect x="1899.309" y="933.065" style="fill:#BAD4F4;" width="29.106" height="3.522"/>
			<rect x="1932.525" y="933.065" style="fill:#BAD4F4;" width="29.105" height="3.522"/>
		</g>
		<g>
			<rect x="1738.266" y="983.637" style="fill:#BAD4F4;" width="39.684" height="3.521"/>
			<rect x="1842.929" y="983.637" style="fill:#BAD4F4;" width="29.458" height="3.521"/>
			<rect x="1782.776" y="983.637" style="fill:#BAD4F4;" width="29.458" height="3.521"/>
			<rect x="1816.185" y="983.637" style="fill:#BAD4F4;" width="22.171" height="3.521"/>
		</g>
		<g>
			<rect x="1738.266" y="994.2" style="fill:#BAD4F4;" width="66.865" height="3.522"/>
			<rect x="1809.311" y="994.2" style="fill:#BAD4F4;" width="29.458" height="3.522"/>
			<rect x="1842.929" y="994.2" style="fill:#BAD4F4;" width="29.458" height="3.522"/>
		</g>
		<g>
			<rect x="1738.266" y="954.681" style="fill:#BAD4F4;" width="39.684" height="3.521"/>
			<rect x="1842.929" y="954.681" style="fill:#BAD4F4;" width="29.458" height="3.521"/>
			<rect x="1876.068" y="954.681" style="fill:#BAD4F4;" width="93.395" height="3.521"/>
			<rect x="1782.776" y="954.681" style="fill:#BAD4F4;" width="29.458" height="3.521"/>
			<rect x="1816.185" y="954.681" style="fill:#BAD4F4;" width="22.171" height="3.521"/>
		</g>
		<g>
			<rect x="1738.266" y="965.244" style="fill:#BAD4F4;" width="66.865" height="3.521"/>
			<rect x="1809.311" y="965.244" style="fill:#BAD4F4;" width="58.079" height="3.521"/>
			<rect x="1871.407" y="965.244" style="fill:#BAD4F4;" width="38.823" height="3.521"/>
			<rect x="1915.877" y="965.244" style="fill:#BAD4F4;" width="29.458" height="3.521"/>
		</g>
		<g>
			<rect x="1738.266" y="1004.764" style="fill:#BAD4F4;" width="52.601" height="3.52"/>
			<rect x="1842.929" y="1004.764" style="fill:#BAD4F4;" width="29.458" height="3.52"/>
			<rect x="1796.86" y="1004.764" style="fill:#BAD4F4;" width="38.648" height="3.52"/>
		</g>
		<g>
			<rect x="1738.266" y="1015.718" style="fill:#BAD4F4;" width="66.865" height="3.522"/>
			<rect x="1809.311" y="1015.718" style="fill:#BAD4F4;" width="29.458" height="3.522"/>
			<rect x="1842.929" y="1015.718" style="fill:#BAD4F4;" width="29.458" height="3.522"/>
		</g>
	</g>
	<g>
		<rect x="2155.244" y="851.042" style="fill:#DFEBFD;" width="139.561" height="197.552"/>
		<rect x="2232.1" y="866.556" style="fill:#BAD4F4;" width="53.322" height="66.509"/>
		<g>
			<rect x="2167.627" y="944.021" style="fill:#BAD4F4;" width="34.555" height="3.521"/>
			<rect x="2167.627" y="867.437" style="fill:#BAD4F4;" width="53.826" height="3.521"/>
			<rect x="2167.627" y="882.695" style="fill:#BAD4F4;" width="53.826" height="3.521"/>
			<g>
				<rect x="2167.627" y="890.324" style="fill:#BAD4F4;" width="30.324" height="3.521"/>
				<rect x="2200.945" y="890.324" style="fill:#BAD4F4;" width="22.664" height="3.521"/>
			</g>
			<g>
				<rect x="2167.627" y="875.065" style="fill:#BAD4F4;" width="21.567" height="3.522"/>
				<rect x="2194.54" y="875.065" style="fill:#BAD4F4;" width="21.567" height="3.522"/>
			</g>
			<rect x="2258.761" y="944.021" style="fill:#BAD4F4;" width="25.65" height="3.521"/>
			<rect x="2206.384" y="944.021" style="fill:#BAD4F4;" width="25.65" height="3.521"/>
			<rect x="2235.474" y="944.021" style="fill:#BAD4F4;" width="19.306" height="3.521"/>
		</g>
		<g>
			<rect x="2167.627" y="954.585" style="fill:#BAD4F4;" width="58.223" height="3.521"/>
			<rect x="2229.488" y="954.585" style="fill:#BAD4F4;" width="25.65" height="3.521"/>
			<rect x="2258.761" y="954.585" style="fill:#BAD4F4;" width="25.65" height="3.521"/>
		</g>
		<g>
			<rect x="2167.627" y="965.148" style="fill:#BAD4F4;" width="45.801" height="3.521"/>
			<rect x="2258.761" y="965.148" style="fill:#BAD4F4;" width="25.65" height="3.521"/>
			<rect x="2218.647" y="965.148" style="fill:#BAD4F4;" width="33.652" height="3.521"/>
		</g>
		<g>
			<rect x="2167.627" y="976.103" style="fill:#BAD4F4;" width="58.223" height="3.521"/>
			<rect x="2229.488" y="976.103" style="fill:#BAD4F4;" width="25.65" height="3.521"/>
			<rect x="2258.761" y="976.103" style="fill:#BAD4F4;" width="25.65" height="3.521"/>
		</g>
		<g>
			<rect x="2167.627" y="993.932" style="fill:#BAD4F4;" width="34.555" height="3.521"/>
			<rect x="2258.761" y="993.932" style="fill:#BAD4F4;" width="25.65" height="3.521"/>
			<rect x="2206.384" y="993.932" style="fill:#BAD4F4;" width="25.65" height="3.521"/>
			<rect x="2235.474" y="993.932" style="fill:#BAD4F4;" width="19.306" height="3.521"/>
		</g>
		<g>
			<rect x="2167.627" y="1004.495" style="fill:#BAD4F4;" width="58.223" height="3.52"/>
			<rect x="2229.488" y="1004.495" style="fill:#BAD4F4;" width="25.65" height="3.52"/>
			<rect x="2258.761" y="1004.495" style="fill:#BAD4F4;" width="25.65" height="3.52"/>
		</g>
		<g>
			<rect x="2167.627" y="1015.059" style="fill:#BAD4F4;" width="45.801" height="3.52"/>
			<rect x="2258.761" y="1015.059" style="fill:#BAD4F4;" width="25.65" height="3.52"/>
			<rect x="2218.647" y="1015.059" style="fill:#BAD4F4;" width="33.652" height="3.52"/>
		</g>
		<g>
			<rect x="2167.627" y="1026.013" style="fill:#BAD4F4;" width="58.223" height="3.522"/>
			<rect x="2229.488" y="1026.013" style="fill:#BAD4F4;" width="25.65" height="3.522"/>
			<rect x="2258.761" y="1026.013" style="fill:#BAD4F4;" width="25.65" height="3.522"/>
		</g>
	</g>
	<g>
		<rect x="1829.496" y="729.936" style="fill:#FFFFFF;" width="224.707" height="20.113"/>
		<rect x="1861.474" y="642.705" style="fill:#FFFFFF;" width="2.089" height="87.231"/>
		<rect x="2020.389" y="642.705" style="fill:#FFFFFF;" width="2.089" height="87.231"/>
	</g>
	<g>
		<rect x="1293.079" y="729.936" style="fill:#FFFFFF;" width="224.706" height="20.113"/>
		<path style="fill:#FFFFFF;" d="M1327.15,680.53v49.41h-2.09v-49.12C1325.76,680.73,1326.46,680.63,1327.15,680.53z"/>
		<path style="fill:#FFFFFF;" d="M1486.06,652.38v77.56h-2.09v-77.13C1484.67,652.66,1485.36,652.52,1486.06,652.38z"/>
	</g>
	<g>
		<rect x="637.566" y="729.936" style="fill:#FFFFFF;" width="224.706" height="20.113"/>
		<polygon style="fill:#FFFFFF;" points="669.54,678.88 669.54,682.64 669.54,729.94 671.63,729.94 671.63,682.33 671.63,678.68 		
			"/>
		<path style="fill:#FFFFFF;" d="M830.55,674.16v55.78h-2.09v-55.82C829.16,674.13,829.85,674.15,830.55,674.16z"/>
	</g>
	<g>
		<g>
			<g>
				<path style="fill:#77A4E5;" d="M258.911,1386.084c0,0-10.984-12.815-0.677-20.955c0,0,7.529-4.558,13.668-4.188
					c0,0-8.698,14.586-5.884,16.037s8.521-16.952,8.521-16.952s17.133-1.661,22.645,0.988c0,0-14.646,11.985-11.562,12.699
					s18.905-11.051,18.905-11.051s15.946,2.714,15.096,12.441s-6.345,12.731-8.76,12.472c-2.415-0.258-16.541-5.65-16.849-3.672
					c-0.308,1.979,8.195,8.445,14.15,8.748c0,0-11.242,12.397-18.714,8.819c-7.472-3.578-8.109-9.25-12.767-11.377
					c-4.658-2.128-8.633-2.122-6.71,0.048c1.923,2.169,10.352,4.277,13.016,8.989c2.663,4.711,5.053,7.889-2.677,6.726
					c-7.73-1.163-20.296-6.819-20.847-13.297C258.911,1386.084,258.911,1386.084,258.911,1386.084z"/>
				<g>
					<path style="fill:#77A4E5;" d="M311.786,1375.367c0,0-43.311-1.67-52.875,10.717c0,0-2.115,6.335-8.624,12.104l-1.015,2.766
						c0,0,7.505-7.913,10.19-8.393C259.463,1392.561,255.263,1377.216,311.786,1375.367z"/>
					<path style="fill:#77A4E5;" d="M250.287,1398.188c0,0-9.296,6.875-9.942,19.159l1.687,0.151c0,0,2.969-12.702,8.336-17.669
						C255.734,1394.862,250.287,1398.188,250.287,1398.188z"/>
				</g>
			</g>
			<g>
				<path style="fill:#77A4E5;" d="M220.506,1369.968c0,0,17.473-9.785,9.319-23.065c0,0-6.523-8.154-13.513-10.251
					c0,0,3.728,19.804,0,20.27s-2.563-22.366-2.563-22.366s-18.405-8.854-25.627-8.154c0,0,11.416,19.338,7.688,18.871
					c-3.728-0.466-16.542-20.036-16.542-20.036s-18.871-3.494-21.9,7.688c-3.029,11.184,1.864,16.774,4.66,17.474
					c2.795,0.699,20.735,0.466,20.269,2.796c-0.466,2.33-12.581,6.058-19.337,3.961c0,0,7.455,18.405,17.241,17.473
					c9.785-0.932,12.814-6.989,18.871-7.455c6.058-0.466,10.484,1.165,7.456,2.796c-3.029,1.631-13.28,0.534-18.172,4.693
					c-4.893,4.16-8.854,6.723,0.233,8.587c9.086,1.863,25.395,0.698,28.657-6.291S220.506,1369.968,220.506,1369.968z"/>
				<g>
					<path style="fill:#77A4E5;" d="M165.988,1336.419c0,0,48.926,15.843,54.518,33.549c0,0-0.233,7.921,4.66,17.008v3.494
						c0,0-5.126-11.882-7.921-13.513C217.244,1376.957,228.194,1361.58,165.988,1336.419z"/>
					<path style="fill:#77A4E5;" d="M225.165,1386.976c0,0,7.545,11.457,3.244,25.404l-1.941-0.521c0,0,1.884-15.361-2.064-23.088
						C220.457,1381.044,225.165,1386.976,225.165,1386.976z"/>
				</g>
			</g>
			<g>
				<path style="fill:#9FC1F4;" d="M248.305,1356.473c0,0-23.033-12.898-12.285-30.404c0,0,8.599-10.748,17.813-13.513
					c0,0-4.914,26.104,0,26.719c4.914,0.614,3.378-29.482,3.378-29.482s24.262-11.671,33.782-10.749c0,0-15.048,25.49-10.135,24.876
					s21.805-26.411,21.805-26.411s24.876-4.607,28.869,10.135c3.993,14.74-2.457,22.111-6.142,23.033
					c-3.685,0.921-27.333,0.613-26.719,3.685s16.584,7.985,25.49,5.222c0,0-9.828,24.262-22.727,23.033
					c-12.898-1.229-16.891-9.214-24.876-9.828c-7.984-0.614-13.82,1.536-9.827,3.686c3.992,2.149,17.505,0.704,23.955,6.188
					c6.449,5.482,11.67,8.861-0.307,11.318c-11.978,2.456-33.475,0.921-37.775-8.293
					C248.305,1356.473,248.305,1356.473,248.305,1356.473z"/>
				<g>
					<path style="fill:#9FC1F4;" d="M320.168,1312.249c0,0-64.493,20.883-71.864,44.224c0,0,0.307,10.441-6.142,22.419v4.606
						c0,0,6.756-15.662,10.441-17.813C252.604,1365.686,238.17,1345.417,320.168,1312.249z"/>
					<path style="fill:#9FC1F4;" d="M242.163,1378.892c0,0-9.946,15.104-4.276,33.488l2.559-0.688c0,0-2.484-20.249,2.72-30.435
						C248.369,1371.073,242.163,1378.892,242.163,1378.892z"/>
				</g>
			</g>
			<path style="fill:#9FC1F4;" d="M247.528,1452.249c24.919,0,45.119-20.2,45.119-45.118H202.41
				C202.41,1432.049,222.61,1452.249,247.528,1452.249z"/>
			<path style="fill:#AFCDFB;" d="M258.631,1451.903c-1.835,0.229-3.706,0.346-5.605,0.346c-24.918,0-45.117-20.201-45.117-45.119
				h11.209C219.118,1430.15,236.357,1449.144,258.631,1451.903z"/>
			<rect x="200.926" y="1407.13" style="fill:#9FC1F4;" width="92.747" height="1.384"/>
		</g>
		<rect x="232.157" y="1449.41" style="fill:#9FC1F4;" width="28.659" height="5.15"/>
	</g>
	<g>
		<path style="fill:#9FC1F4;" d="M1115.979,1061.835c-6.048,0-10.952,4.903-10.952,10.952v78.241
			c0,8.981,5.658,16.641,13.605,19.607c4.578,1.71,7.695,5.991,8.087,10.863l0,0h33.667c0,0,1.466-7.537,7.637-9.548l0,0
			c8.232-3.419,15.185-8.542,14.055-20.77v-77.807c0-6.373-5.166-11.54-11.54-11.54H1115.979z"/>
		<path style="fill:#77A4E5;" d="M1181.643,1129.741h-76.656c-0.827,0-1.503-0.676-1.503-1.503v-8.551
			c0-0.827,0.676-1.504,1.503-1.504h76.656c0.827,0,1.503,0.677,1.503,1.504v8.551
			C1183.146,1129.065,1182.47,1129.741,1181.643,1129.741z"/>
		<path style="fill:#77A4E5;" d="M1181.643,1154.196h-76.656c-0.827,0-1.503-0.676-1.503-1.503v-8.551
			c0-0.827,0.676-1.504,1.503-1.504h76.656c0.827,0,1.503,0.677,1.503,1.504v8.551
			C1183.146,1153.521,1182.47,1154.196,1181.643,1154.196z"/>
		<path style="fill:#BAD4F4;" d="M1166.751,1184.347h-47.57l1.405-4.684c0.359-1.197,1.46-2.017,2.709-2.017h39.073
			c1.196,0,2.264,0.753,2.665,1.88L1166.751,1184.347z"/>
		<path style="fill:#CDE0FB;" d="M1186.096,1450.673h-83.161c-3.678,0-6.66-2.981-6.66-6.659v-253.008
			c0-3.678,2.981-6.659,6.66-6.659h83.161c3.678,0,6.66,2.981,6.66,6.659v253.008
			C1192.756,1447.691,1189.774,1450.673,1186.096,1450.673z"/>
		<rect x="1112.523" y="1225.552" style="fill:#BAD4F4;" width="64.32" height="87.771"/>
		<rect x="1112.523" y="1225.552" style="fill:#9FC1F4;" width="64.32" height="19.765"/>
		<g>
			<rect x="1152.267" y="1252.533" style="fill:#DFEBFD;" width="8.454" height="18.063"/>
			<rect x="1152.267" y="1252.533" style="fill:#77A4E5;" width="8.454" height="4.804"/>
		</g>
		<g>
			<rect x="1127.975" y="1252.533" style="fill:#DFEBFD;" width="8.455" height="18.063"/>
			<rect x="1127.975" y="1252.533" style="fill:#F99746;" width="8.455" height="4.804"/>
		</g>
		<path style="fill:#DFEBFD;" d="M1129.711,1270.721l0.835,4.157c0.069,0.343,0.37,0.589,0.72,0.589h1.473
			c0.347,0,0.647-0.243,0.718-0.583l0.875-4.157c0.096-0.456-0.252-0.885-0.719-0.885h-3.182
			C1129.968,1269.842,1129.62,1270.266,1129.711,1270.721z"/>
		<path style="fill:#DFEBFD;" d="M1154.183,1270.721l0.835,4.157c0.069,0.343,0.37,0.589,0.72,0.589h1.473
			c0.347,0,0.647-0.243,0.718-0.583l0.875-4.157c0.096-0.456-0.252-0.885-0.718-0.885h-3.182
			C1154.439,1269.842,1154.092,1270.266,1154.183,1270.721z"/>
		<rect x="1117.883" y="1311.145" style="fill:#9FC1F4;" width="52.763" height="2.178"/>
		<g>
			<path style="fill:#9FC1F4;" d="M1173.064,1349.67h-56.763c-2.361,0-4.281-1.921-4.281-4.281v-19.242
				c0-2.36,1.92-4.281,4.281-4.281h56.763c2.36,0,4.281,1.921,4.281,4.281v19.242
				C1177.346,1347.749,1175.425,1349.67,1173.064,1349.67z M1116.302,1322.87c-1.807,0-3.276,1.47-3.276,3.276v19.242
				c0,1.807,1.47,3.275,3.276,3.275h56.763c1.807,0,3.276-1.469,3.276-3.275v-19.242c0-1.807-1.47-3.276-3.276-3.276H1116.302z"/>
		</g>
		<rect x="1108.67" y="1450.673" style="fill:#233862;" width="6.198" height="3.183"/>
		<rect x="1175.671" y="1450.673" style="fill:#233862;" width="6.197" height="3.183"/>
	</g>
	<path style="fill:#DCEAFF;" d="M1802.4,589.7c-108.463,16.222-215.154,41.905-322.504,63.943
		c-4.242,0.871-8.487,1.732-12.733,2.587h913.021c-2.946-1.984-5.905-3.951-8.893-5.876
		c-73.981-47.67-157.792-72.525-245.277-79.236C2018.79,562.893,1908.383,573.31,1802.4,589.7z"/>
	<g>
		<polygon style="fill:#F9DDBF;" points="2033.989,1093.655 1992.933,1093.854 2013.656,1167.603 2053.144,1159.414 		"/>
		<path style="fill:#FFB27D;" d="M2013.969,1138.426c0,0-0.134-0.881-1.189-2.031c-0.68-1.244-2.303-4.996-2.378-5.86
			c-0.237-2.732-2.093-1.776-2.384,0.622c-0.063,0.52,0.253,1.798,0.259,2.354c-2.277,0.922-4.594-0.972-5.171-3.452
			c-0.276-1.188-0.701-2.368-0.881-3.137c-0.256-1.092-2.9,0.73-2.975,2.62c-0.118,3.039-0.07,11.264,0.692,12.58
			c1.286,2.219,8.666,4.482,12.461,4.969l4.504,0.35l2.619-7.267L2013.969,1138.426z"/>
		<path style="fill:#163560;" d="M2152.442,1435.048c0,0-1.19,19.2-4.905,19.476c-0.494,0.037-18.841,0.037-18.841,0.037
			l-23.42-0.136c0,0,0.153-5.644,6.999-6.837c6.846-1.192,18.305-6.004,22.451-15.052
			C2139.09,1423.018,2152.442,1435.048,2152.442,1435.048z"/>
		<path style="fill:#2B478B;" d="M2153.792,1436.381c0,0-7.12,2.382-12.679,2.382c-6.199,0-11.835-1.688-11.835-1.688
			s-1.341-12.963-8.717-41.523c-3.867-14.97-9.39-34.218-17.247-58.135c-21.724-66.102-28.33-104.771-28.933-108.433
			c-0.032-0.192-0.045-0.289-0.045-0.289l0.07-0.032l66.788-29.324c0,0-8.255,91.103,2.276,126.071
			c1.476,4.887,2.739,10.583,3.823,16.753C2153.945,1380.145,2153.792,1436.381,2153.792,1436.381z"/>
		<path style="fill:#233862;" d="M2147.295,1342.162l-26.733,53.389c-3.867-14.97-9.39-34.218-17.247-58.135
			c-21.724-66.102-28.33-104.771-28.933-108.433c0.007-0.109,0.013-0.212,0.025-0.321l66.788-29.324c0,0-8.255,91.103,2.276,126.071
			C2144.947,1330.296,2146.211,1335.992,2147.295,1342.162z"/>
		<path style="fill:#163560;" d="M2100.277,1435.048c0,0-1.19,19.2-4.905,19.476c-0.494,0.037-18.84,0.037-18.84,0.037l-23.42-0.136
			c0,0,0.153-5.644,6.999-6.837c6.846-1.192,18.304-6.004,22.451-15.052C2086.925,1423.018,2100.277,1435.048,2100.277,1435.048z"/>
		<path style="fill:#2B478B;" d="M2062.411,1201.485c0,0-0.867,59.035,9.347,131.52c10.215,72.485,6.752,103.253,6.752,103.253
			s7.018,2.274,9.851,2.505c7.215,0.588,14.613-1.69,14.613-1.69s14.62-72.513,10.428-108.793
			c-4.191-36.28,20.021-124.493,20.021-124.493L2062.411,1201.485z"/>
		<path style="fill:#FFB27D;" d="M2111.114,1061.197l-11.011,11.031l-19.156,0.416c-0.057-1.542-0.128-7.965-0.188-13.785
			c-0.002-0.344-0.004-0.687-0.008-1.022c-0.044-4.953-0.078-9.208-0.078-9.208l15.635-11.197l5.829-4.175
			c0.005,0.104,0.604,5.381,0.696,6.15C2104.433,1053.079,2111.114,1061.197,2111.114,1061.197z"/>
		<path style="fill:#AFCDFB;" d="M2058.519,1204.04c0.268,31.159,2.345,104.056,3.874,105.538
			c16.229,15.666,87.616-4.295,91.401-21.555c3.78-17.26-14.383-221.302-42.104-229.45c-5.751-1.688-36.506,8.254-36.506,8.254
			s-4.82,12.617-7.985,28.693c-1.173,5.957-5,48.456-7.234,76.855c-0.589,7.57-1.072,14.137-1.356,18.741
			C2058.492,1193.021,2058.466,1197.657,2058.519,1204.04z"/>
		<path style="fill:#FCA56B;" d="M2101.59,1039.914c-2.442,7.197-15.378,15.681-20.83,18.945c-0.002-0.344-0.004-0.687-0.008-1.022
			c-0.044-4.953-0.078-9.208-0.078-9.208l15.635-11.197C2100.104,1036.584,2102.6,1036.952,2101.59,1039.914z"/>
		<path style="fill:#FFB27D;" d="M2073.964,1048.938c0,0,29.55,2.857,31.046-15.571c1.496-18.43,6.317-30.473-12.485-33.076
			c-18.804-2.604-23.044,4.131-25.04,10.16C2065.488,1016.481,2066.316,1047.719,2073.964,1048.938z"/>
		<path style="fill:#163560;" d="M2068.225,1008.551c0,0,5.99,19.83,9.983,18.08c3.994-1.75,7.647-3.191,8.308,3.025
			c0.661,6.217-3.663,14.459,9.437,12.846c13.1-1.612,24.67-38.682,19.82-44.229
			C2101.777,982.267,2048.853,989.505,2068.225,1008.551z"/>
		<path style="fill:#95B3EF;" d="M2082.723,1059.023c0.365-0.154,21.097-9.454,23.521-8.653s5.447,8.205,5.447,8.205l-36.506,8.253
			C2075.186,1066.828,2078.059,1060.986,2082.723,1059.023z"/>
		<path style="fill:#95B3EF;" d="M2058.519,1204.04c67.733-45.869,62.214-108.955,62.214-108.955
			c-26.429,14.909-52.625,50.2-60.769,77.291c-0.589,7.57-1.072,14.137-1.356,18.741
			C2058.492,1193.021,2058.466,1197.657,2058.519,1204.04z"/>
		<path style="fill:#AFCDFB;" d="M2093.438,1079.292c0,0-19.102,66.362-26.881,66.362c-5.161,0-50.304-7.474-50.304-7.474
			l-4.16,9.781c0,0,50.3,33.14,68.58,26.466c28.957-10.572,46.423-61.865,40.059-79.343
			C2114.367,1077.607,2105.649,1071.741,2093.438,1079.292z"/>
	</g>
	<g>
		<path style="fill:#FFB27D;" d="M536.388,1161.016l-0.679,7.554c0,0-0.497,0.028-1.363,0.014
			c-2.735-0.027-9.378-0.015-16.914-0.382c-7.186-0.289-15.245-0.884-21.578-2.033c-3.654-0.664-6.738-1.521-8.751-2.603
			c-8.394-4.48-22.583-18.872-32.127-33.534c-0.273-0.356-0.48-0.717-0.687-1.077c-3.217-5.027-5.87-10.061-7.509-14.708
			c-0.904-2.55-1.494-4.98-1.713-7.235c-0.412-3.887-0.175-7.258,0.464-10.214c0.825-3.898,2.385-7.029,4.048-9.427
			c0.224-0.385,0.448-0.771,0.802-1.098c2.77-3.705,5.593-5.358,5.593-5.358c1.156-0.561,2.439-0.262,3.806,0.743
			c0.154,0.105,0.304,0.229,0.458,0.351c0.006,0.006,0.012,0.016,0.023,0.021c0.196,0.164,0.392,0.339,0.589,0.53l0.003,0.061
			c0.51,0.474,1.036,1.04,1.577,1.688c0.006,0.005,0.012,0.01,0.012,0.016c0.995,1.19,2.028,2.659,3.047,4.363
			c0.064,0.057,0.133,0.113,0.136,0.179c0.338,0.539,0.686,1.138,1.096,1.799c0.132,0.112,0.203,0.295,0.271,0.416
			c0.765,1.386,1.534,2.831,2.306,4.336c8.573,16.147,18.139,40.804,25.321,47.901c1.673,1.65,6.44,4.024,12.181,6.506l0,0.006
			c0.106,0.043,0.219,0.091,0.331,0.14c0.011,0.005,0.023,0.01,0.034,0.015c4.787,2.061,10.217,4.183,15.083,6.014
			C530.053,1158.896,536.388,1161.016,536.388,1161.016z"/>
		<path style="fill:#AFCDFB;" d="M507.089,1150.09c-0.305,0.846-1.713,4.813-4.108,8.921c-1.948,3.321-2.5,6.009-5.716,7.875
			c-3.521,0.035-9.26-2.112-11.373-2.993c-7.125-2.969-11.502-6.467-15.012-10.598c-4.155-4.871-7.101-10.646-11.948-17.465
			c-1.373-1.914-2.688-3.862-3.955-5.799c-0.27-0.352-0.482-0.716-0.692-1.079c-3.216-5.024-5.869-10.06-7.5-14.707
			c0,0,2.782-38.627,16.866-34.554c13.286,3.861,23.791,56.525,30.974,63.627c1.667,1.654,6.432,4.025,12.171,6.502l0.012,0.012
			C506.936,1149.996,507.03,1150.09,507.089,1150.09z"/>
		<path style="fill:#F99746;" d="M480.207,1443.107l-8.192,3.051c0,0-35.583-49.353-39.964-92.773
			c-0.783-7.752-0.521-15.264,1.17-22.199c0,0-0.348-1.986-0.957-5.498c-0.281-1.639-0.629-3.611-1.023-5.872
			c-1.157-6.629-2.749-15.698-4.568-26.025c-4.187-23.764-9.611-54.143-13.825-76.476l2.207-0.709l23.885-7.705l4.936-15.678
			l17.785-4.682c0,0,3.973,7.771,7.524,44.484c0.655,4.816,1.25,10.127,1.699,15.886c1.385,17.577,1.485,39.381-1.692,64.31
			c-0.816,6.381-1.846,12.969-3.124,19.737c-0.937,4.963-1.077,11.725-0.682,19.49
			C467.178,1387.943,480.207,1443.107,480.207,1443.107z"/>
		<path style="fill:#ED7D2B;" d="M470.883,1250.189l-38.619,75.498c-0.281-1.611-0.629-3.552-1.023-5.774
			c-1.157-6.519-2.749-15.437-4.568-25.592c-4.187-23.368-9.611-53.241-13.825-75.201l2.207-0.697l23.885-7.577l4.936-15.416
			l17.785-4.604c0,0,3.973,7.643,7.524,43.744C469.84,1239.305,470.435,1244.527,470.883,1250.189z"/>
		<path style="fill:#F99746;" d="M453.894,1198.394l-0.894-7.667c-14.978,3.979-54.997-11.116-54.997-11.116
			s-14.51,12.755-12.605,43.328c0.93,14.923,2.629,78.335,4.402,97.1c0.641,6.801,1.203,11.641,1.432,13.573
			c0.005,0.01,0.005,0.015,0.005,0.019c0.07,0.59-0.136,1.147-0.436,1.662c-2.611,4.433-4.774,9.048-6.548,13.771
			c-17.412,46.398,2.682,103.539,2.682,103.539l5.214-2.102c0,0,11.435-63.591,20.726-91.684c1.578-4.765,3.089-8.509,4.475-10.747
			c4.039-6.52,7.788-17.173,11.191-29.843c6.431-23.955,11.608-55.118,15.053-79.172
			C444.069,1239.077,453.894,1198.394,453.894,1198.394z"/>
		<path style="fill:#FFB27D;" d="M443.353,1103.989c-25.083,5.994-26.381-32.784-24.8-32.874c2.805-2.183,6.943-11.059,7.77-24.798
			l1.185,0.308l19.843,5.271c0,0-0.86,6.302-1.26,12.255c-0.309,4.658-0.33,9.108,0.561,10.19c1.548,0.323,2.477,0.535,2.477,0.535
			s0.001,0.007,0.01,0.019C449.407,1075.329,450.044,1102.393,443.353,1103.989z"/>
		<path style="fill:#2C3A64;" d="M425.441,996.956c-0.24-1.091-3.241-12.773-21.382-10.114c0,0,9.058-0.555,11.298,3.064
			c0,0-6.912-3.718-11.546-1.276c-4.634,2.442-5.956,11.58-5.47,14.418c0.486,2.838,4.877,11.474,8.138,11.683
			c1.235,0.079,2.582-0.247,3.779-0.682c-0.594,1.446-1.148,3.024-1.636,4.763c-4.509,16.074,5.533,29.158,11.333,26.456
			c3.72-1.732,6.037,4.731,6.037,4.731l32.363-37.618C458.355,1012.382,439.174,986.075,425.441,996.956z"/>
		<path style="fill:#ED985F;" d="M447.351,1051.9c0,0-0.863,6.296-1.259,12.254c-11.228-1.039-16.515-11.681-18.586-17.524
			L447.351,1051.9z"/>
		<path style="fill:#FFB27D;" d="M450.745,1057.784c0,0-26.64-1.27-25.595-17.848c1.046-16.578-1.688-27.907,15.366-27.798
			c17.053,0.109,19.956,6.645,20.952,12.263C462.465,1030.02,457.702,1057.687,450.745,1057.784z"/>
		<path style="fill:#2C3A64;" d="M461.269,1015.133c-3.794-5.25-6.973-4.356-8.811-2.968c-14.033-8.931-24.165,2.291-24.165,2.291
			c-2.543,11.78-11.558,18.043-11.558,18.043s4.658,3.308,16.025,1.149c3.472-0.658,6.678-2.891,9.459-5.669
			c-5.012,7.296-11.523,12.365-11.523,12.365c13.753-5.317,20.31-23.55,20.97-25.48c1.531,1.563,4.53,4.938,5.307,8.107
			c1.056,4.307,1.095,13.034,3.646,12.901C460.62,1035.873,466.958,1023.007,461.269,1015.133z"/>
		<path style="fill:#233862;" d="M417.251,1456.861h-41.262c0,0-0.989-6.289,1.166-11.06c2.065-4.578,5.3-6.659,4.525-12.198
			c2.621,2.7,6.895,5.723,12.86,4.921c0.73,1.185,4.718,7.526,7.159,9.28C404.396,1449.742,416.42,1449.052,417.251,1456.861z"/>
		<path style="fill:#233862;" d="M505.845,1456.861h-41.262c0,0-1.543-6.581,1.167-11.06c2.398-3.962,1.479-6.22-0.297-9.498
			c1.869,0.766,4.287,1.462,6.949,1.31c2.056-0.118,4.23-1.052,6.136-2.159c1.776,2.025,9.38,10.644,11.756,12.351
			C492.991,1449.742,505.015,1449.052,505.845,1456.861z"/>
		<path style="fill:#AFCDFB;" d="M463.652,1079.695l9.596,90.607l5.878,55.48c-5.908,3.086-11.592,5.692-17.034,7.888
			c-1.205-4.521-3.688-9.739-3.688-9.739c0.587,2.866-1.779,8.987-3.23,12.347c-50.472,17.778-78.965-0.468-78.965-0.468
			c-1.626-20.439-0.248-62.634,4.05-98.578c0.897-7.478,1.916-14.682,3.063-21.365c2.606-15.195,4.557-23.236,6.312-29.514
			c3.338-11.933,27.296-15.576,27.296-15.576c7.596,15.708,22.087,23.729,22.087,23.729c6.007-5.172,8.491-19.968,8.491-19.968
			L463.652,1079.695z"/>
		<path style="fill:#95B3EF;" d="M421.63,1066.765c0,0-4.273,1.077-4.697,4.012c0,0,9.774,21.691,22.082,23.728L421.63,1066.765z"/>
		<path style="fill:#95B3EF;" d="M439.015,1094.504c0,0,7.523-19.901,6.991-22.586c0,0,4.771,0.922,4.996,3.736
			C451.002,1075.654,444.41,1092.24,439.015,1094.504z"/>
		<path style="fill:#95B3EF;" d="M422.067,1111.348c0.508,1.02,25.643,46.071,51.181,58.955c11.255,5.679-26.873-1.845-27.435-3.41
			C445.25,1165.328,422.067,1111.348,422.067,1111.348z"/>
		<path style="fill:#95B3EF;" d="M473.248,1170.303l4.009,37.838c-64.409,0-71.275-88.453-71.275-88.453l35.837,39.116
			l31.052,11.135C472.871,1169.938,473.004,1170.063,473.248,1170.303z"/>
		<path style="fill:#FFB27D;" d="M497.904,1179.756l-1.096,8.153c0,0-2.771-0.131-7.181-0.35c-1.323-0.076-2.085-0.161-2.085-0.161
			c-3.532-0.21-7.769-0.579-12.388-0.963l-0.065,0.009c-7.927-0.812-16.824-1.868-24.406-3.355
			c-0.681-0.141-1.351-0.282-2.005-0.426c-4.499-1.007-8.429-2.174-11.281-3.484c-0.333-0.143-0.602-0.294-0.944-0.497
			c-7.887-4.26-18.49-18.471-27.34-34.05c-1.227-2.147-2.394-4.308-3.547-6.403c-4.178-7.82-7.728-15.603-10.142-22.412
			c-1.482-4.055-2.606-7.782-3.151-10.897c-0.208-1.098-0.414-2.135-0.48-3.125c-2.273-17.835,10.08-21.369,12.01-19.564
			c2.425,2.239,5.188,6.056,8.133,10.731c4.564,7.453,9.628,17.223,14.438,26.96c2.658,5.337,5.252,10.683,7.787,15.594
			c1.466,2.992,2.908,5.8,4.252,8.373c2.601,4.908,4.88,8.856,6.768,11.289c1.218,1.591,4.363,3.607,8.476,5.809
			c1.088,0.587,2.256,1.187,3.475,1.801c6.783,3.388,15.327,7.029,22.888,10.047c3.705,1.506,7.202,2.852,10.104,3.962
			C494.809,1178.605,497.904,1179.756,497.904,1179.756z"/>
		<path style="fill:#AFCDFB;" d="M457.133,1162.786c0,0,2.446,14.798-10.494,23.891c-16.856-3.645-28.676-26.466-37.525-42.045
			c-1.227-2.147-2.394-4.308-3.547-6.403c-4.178-7.82-7.728-15.603-10.142-22.412c-1.482-4.055-2.606-7.782-3.151-10.897
			c-0.208-1.098-0.414-2.135-0.48-3.125c-2.273-17.835,10.08-21.369,12.01-19.564c2.425,2.239,5.188,6.056,8.133,10.731
			c4.564,7.453,9.628,17.223,14.438,26.96c2.658,5.337,5.252,10.683,7.787,15.594c1.466,2.992,2.908,5.8,4.252,8.373
			c2.601,4.908,4.88,8.856,6.768,11.289c1.218,1.591,4.363,3.607,8.476,5.809C454.747,1161.572,455.915,1162.172,457.133,1162.786z"
			/>
		<path style="fill:#ABDDDA;" d="M518.966,1141.84c-0.005,0.068-0.026,0.105-0.064,0.112c0.013-0.053,0.022-0.093,0.028-0.122
			C518.961,1141.725,518.972,1141.723,518.966,1141.84z"/>
		<polygon style="fill:#2B478B;" points="557.194,1203.009 505.006,1203.33 539.605,1146.313 591.793,1145.992 		"/>
		<path style="fill:#FFB27D;" d="M527.875,1184.991c-3.41-0.175-8.889-1.565-11.946-2.903c0,0,1.668-0.842,2.692-1.194l1.93-3.181
			c-1.402,0.201-2.731,1.083-8.355,0.97c-2.264-0.046-7.119,2.579-6.837,2.737c-3.972-0.714-7.57-1.657-8.733-1.966
			c-0.307-0.076-0.427-0.144-0.427-0.144l-5.383,8.308c0,0,3.671,0.422,4.96,0.729c3.245,0.958,8.345,3.979,14.842,6.151
			c3.719,1.243,10.505-0.836,14.543-2.332c3.288-1.218,5.341-3.469,6.22-5.153C532.589,1184.695,529.954,1185.098,527.875,1184.991z
			"/>
		<path style="fill:#95B3EF;" d="M497.265,1166.886c-3.521,0.035-9.26-2.112-11.373-2.993c-7.125-2.969-11.502-6.467-15.012-10.598
			l-2.242-26.573C468.943,1128.74,474.167,1161.053,497.265,1166.886z"/>
	</g>
	<g>
		<g>
			<path style="fill:#FFB27D;" d="M1883.477,1226.525c0,0,6.129-5.398,8.289-6.385c2.161-0.986,6.102-4.885,6.839-3.565
				c0.736,1.319-2.494,3.884-2.116,5.448c0.377,1.563,11.604,2.777,11.742,4.465s-1.869,6.049-6.09,6.091
				c-4.22,0.042-15.123-0.955-18.309-0.466C1881.418,1232.484,1883.477,1226.525,1883.477,1226.525z"/>
			<path style="fill:#FFFFFF;" d="M1777.266,1168.569c0,0,6.507-2.957,26.825,15.413s34.235,37.575,45.09,38.41
				c10.855,0.835,35.241,2.929,35.241,2.929l3.499,6.752c0,0-0.872,2.911-18.072,8.383c-14.709,4.679-28.655,3.534-30.038,3.368
				c-13.917-1.67-47.275-23.958-52.351-30.639C1782.384,1206.506,1777.266,1168.569,1777.266,1168.569z"/>
			<g>
				<path style="fill:#FFB27D;" d="M1920.938,1370.574c-0.34,3.096-0.045,7.799,0.651,13.338
					c2.738,21.943,11.679,56.986,11.679,56.986l11.2,1.357c-0.818-6.195,1.514-29.926,4.609-56.223
					c4.67-39.674,11.089-85.192,11.089-85.192s-24.382-20.151-38.75-14.584C1907.049,1291.829,1922.624,1355.199,1920.938,1370.574z
					"/>
				<path style="fill:#EFCDAF;" d="M1921.589,1383.912c2.738,21.943,11.679,56.986,11.679,56.986l11.2,1.357
					c-0.818-6.195,1.514-29.926,4.609-56.223c-3.986,0.701-14.802,2.093-23.848-1.313
					C1923.838,1384.19,1922.63,1383.945,1921.589,1383.912z"/>
				<path style="fill:#2C3A64;" d="M1931.846,1137.977c0,0,5.903-2.834,12.53,0s11.451,14.899,8.482,26.17
					c-2.969,11.27,7.052,11.46,2.412,20.498c-1.645,3.205-23.425,5.933-24.168-6.551c-0.461-7.733,6.541-8.115,4.499-16.52
					C1933.561,1153.17,1931.846,1137.977,1931.846,1137.977z"/>
				<path style="fill:#FFC299;" d="M1900.574,1368.175c-0.656,3.791-0.479,10.143,0.156,17.552
					c1.904,22.367,7.982,54.336,7.982,54.336l11.078,2.561c-0.424-6.117,3.195-29.136,7.76-54.887
					c7.098-40.058,16.478-86.739,16.478-86.739s-23.097-21.621-37.781-16.945
					C1891.568,1288.723,1903.202,1352.934,1900.574,1368.175z"/>
				<path style="fill:#212D4C;" d="M1944.332,1440.046c0,0,2.662,4.888,7.732,6.022c3.193,0.715,5.922,2.394,7.612,4.737
					c1.429,1.979,0.021,4.745-2.422,4.731l-25.767-0.146c-2.194-0.013-3.896-1.916-3.664-4.098c0.203-1.907,0.417-4.129,0.514-5.834
					c0.212-3.72,4.242-7.063,4.242-7.063s3.537,2.03,4.901,2.27C1940.45,1441.186,1944.332,1440.046,1944.332,1440.046z"/>
				<path style="fill:#FFB27D;" d="M1949.243,1191.796c0,0,16.837,28.389,20.233,51.534c0,0-8.189,11.05-11.521,3.291
					C1954.626,1238.863,1930.72,1197.327,1949.243,1191.796z"/>
				<path style="fill:#2C3A64;" d="M1946.037,1141.403c-0.181-0.3-7.715-12.214-21.799-14.591
					c-11.409-1.926-22.088,6.135-23.843,17.572c-1.764,11.492,0.034,26.385,18.785,31.749L1946.037,1141.403z"/>
				<path style="fill:#FFB27D;" d="M1942.595,1192.615l-21.22,12.604l-5.361-14.937c0,0,2.459-5.442,3.175-14.148
					c0.298-3.661,0.292-7.899-0.342-12.554l18.45,8.015c0,0-0.32,1.679-0.451,4.136c-0.137,2.654-0.047,6.215,0.917,9.542
					C1938.593,1188.129,1940.064,1190.813,1942.595,1192.615z"/>
				<path style="fill:#ED975D;" d="M1937.755,1185.271c-10.178,0.375-18.574-9.138-18.574-9.138l17.657-0.404
					C1936.701,1178.384,1936.792,1181.945,1937.755,1185.271z"/>
				<path style="fill:#FFB27D;" d="M1942.324,1179.297c0,0-19.929,6.641-27.945-9.031c-8.652-16.914-1.181-30.114,5.648-31.406
					c13.616-2.578,21.922,2.148,24.686,7.527C1947.478,1151.765,1953.326,1175.732,1942.324,1179.297z"/>
				<path style="fill:#FFFFFF;" d="M1933.712,1170.734c0,0,0.981,2.037,6.253,0.523c0,0,4.427-1.271,3.768-3.602
					C1943.732,1167.656,1939.009,1166.938,1933.712,1170.734z"/>
				<path style="fill:#F9DDBF;" d="M1891.806,1354.304c5.761,5.503,48.297,16.88,72.27,8.701
					c4.296-1.465-2.578-134.018-6.676-159.614c-1.125-7.017-6.698-12.48-13.742-13.435c-1.19-0.165-2.479-0.318-3.872-0.456
					c0.296,3.149-0.779,6.106-6.266,7.182c-7.301,1.426-14.202-3.177-17.752-6.381c-5.716,1.191-9.04,1.63-13.577,3.522
					c-4.976,2.085-7.943,7.252-7.219,12.601l1.371,10.105l4.367,32.201c0.554,4.043,0.521,8.146-0.094,12.184
					c-1.859,12.239-4.816,42.054-6.797,64.732C1892.426,1341.6,1891.516,1354.024,1891.806,1354.304z"/>
				<path style="fill:#2C3A64;" d="M1928.361,1140.72c0,0,1.889,18.694-15.847,25.319c-7.052,2.635-10.724-25.92,4.013-31.621
					c14.735-5.701,29.268,1.07,31.004,11.037c1.738,9.967,0.415,12.045,0.415,12.045S1941.049,1138.538,1928.361,1140.72z"/>
				<path style="fill:#FFB27D;" d="M1917.593,1201.876c0,0,8.134,32.169,8.45,44.966c0,0,17.85,31.176,18.898,33.393
					c1.048,2.218-6.443,5.248-6.443,5.248s-22.395-23.882-26.711-33.919s-19.629-42.673-13.501-52.413
					C1904.414,1189.408,1917.593,1201.876,1917.593,1201.876z"/>
				<path style="fill:#FFB27D;" d="M1969.477,1243.33c0,0,1.6,21.914-13.996,39.179c0,0-4.258-5.125-3.721-6.716
					c0.537-1.59,6.641-26.015,11.1-29.489C1967.317,1242.83,1969.477,1243.33,1969.477,1243.33z"/>
				<path style="fill:#FFB27D;" d="M1944.942,1280.235c0,0,9.982-0.071,10.539,2.274c0.557,2.347-2.566,9.691-9.866,7.132
					c-7.301-2.56-7.116-4.158-7.116-4.158L1944.942,1280.235z"/>
				<path style="fill:#FFB27D;" d="M1951.76,1275.793c0,0-8.02,3.706-5.294,7.655c2.725,3.949,8.172,1.587,9.015-0.939
					C1956.322,1279.981,1951.76,1275.793,1951.76,1275.793z"/>
				<path style="fill:#F9DDBF;" d="M1923.465,1218.85c0,0-10.467,9.737-26.607,8.229c0,0-7.953-28.188,4.802-31.648
					C1914.413,1191.969,1924.953,1208.676,1923.465,1218.85z"/>
				<path style="fill:#F9DDBF;" d="M1954.741,1196.764l9.228,15.777c0,0-1.188,7.32-8.092,8.049
					S1954.741,1196.764,1954.741,1196.764z"/>
				<path style="fill:#2C3A64;" d="M1906.35,1138.135c0,0-5.903-3.19-12.53,0c-6.627,3.191-11.451,16.777-8.482,29.468
					c2.969,12.689-7.051,12.903-2.412,23.081c1.646,3.609,23.425,6.68,24.168-7.376c0.461-8.708-6.54-9.139-4.499-18.602
					C1904.635,1155.242,1906.35,1138.135,1906.35,1138.135z"/>
				<path style="fill:#F9DDBF;" d="M1900.73,1385.727c1.904,22.367,7.982,54.336,7.982,54.336l11.078,2.561
					c-0.424-6.117,3.195-29.136,7.76-54.887C1921.639,1388.354,1910.756,1388.827,1900.73,1385.727z"/>
				<path style="fill:#2C3A64;" d="M1920.104,1440.046c0,0,2.662,4.888,7.732,6.022c3.193,0.715,5.922,2.394,7.612,4.737
					c1.429,1.979,0.02,4.745-2.422,4.731l-25.767-0.146c-2.194-0.013-3.896-1.916-3.664-4.098c0.203-1.907,0.417-4.129,0.514-5.834
					c0.212-3.72,4.242-7.063,4.242-7.063s3.537,2.03,4.901,2.27C1916.221,1441.186,1920.104,1440.046,1920.104,1440.046z"/>
			</g>
			<path style="fill:#163560;" d="M1781.209,1106.949c0,0,0.376-13.239-17.086-15.837c-17.461-2.598-22.286,1.484-25.255,5.938
				s-8.535,22.638-7.979,29.874c0.557,7.237,20.473,16.186,20.148,20.408C1750.713,1151.555,1781.209,1106.949,1781.209,1106.949z"
				/>
			<path style="fill:#FFB27D;" d="M1858.998,1445.969c-0.35,4.419,5.809,5.411,12.928,5.673c7.12,0.262,4.989,1.747,14.764,3.386
				c9.773,1.639,13.646-1.08,14.335-2.407c0.613-1.177-3.944-2.946-8.802-4.949c-0.612-0.25-1.225-0.508-1.837-0.767
				c-5.469-2.319-8.583-7.156-12.882-11.622c-4.071-4.23-8.063-17.894-8.063-17.894l-13.288-2.656c0,0,3.882,12.293,5.242,17.545
				c0.8,3.089-0.276,6.567-1.236,9.218C1859.642,1442.937,1859.119,1444.412,1858.998,1445.969z"/>
			<path style="fill:#B24940;" d="M1871.926,1451.642c7.12,0.262,4.989,1.747,14.764,3.386c9.773,1.639,13.646-1.08,14.335-2.407
				c0.613-1.177-3.944-2.946-8.802-4.949l-0.074,0.083c0,0-6.826,2.418-14.769,0.369c-6.474-1.667-12.761-5.44-17.221-6.628
				c-0.518,1.441-1.04,2.917-1.161,4.474C1858.648,1450.388,1864.807,1451.38,1871.926,1451.642z"/>
			<path style="fill:#163560;" d="M1756.729,1280.303c0,0,88.188,4.627,103.301,17.113c15.113,12.486,18.587,135.57,18.587,135.57
				c-2.14,2.406-3.803,2.435-7.374,2.335c-3.427-0.096-10.53-2.638-10.53-2.638s-21.764-59.451-22.686-73.419
				c-0.922-13.969-5.062-37.544-11.099-38.649c-6.038-1.105-76.691,10.217-85.564-11.447c-8.872-21.664,3.167-40.438,3.167-40.438
				L1756.729,1280.303z"/>
			<path style="fill:#FFFFFF;" d="M1715.303,1302.19c3.791,2.538,13.588,3.94,24.961,4.348c20.352,0.74,45.747-1.687,50.746-6.407
				c1.297-1.22,1.932-3.24,2.109-5.801c0.551-7.81-3.179-20.658-5.684-31.29c-1.626-6.908-2.733-12.876-1.826-15.927
				c2.762-9.285,11.34-28.206,12.08-34.424s-6.68-39.534-16.939-43.659c-10.265-4.13-49.86,0-49.86,0
				c-15.47,3.14-16.121,36.122-10.983,64.194c0.134,0.725,0.268,1.442,0.406,2.154
				C1725.88,1263.886,1704.727,1295.104,1715.303,1302.19z"/>
			<g>
				<path style="fill:#FFB27D;" d="M1773.927,1171.899c-0.278,1.809-5.23,4.743-15.814,1.953
					c-10.143-2.674-11.36-5.978-11.357-8.158c0.002-2.581,4.407-6.06,4.351-21.945l1.217,0.239l20.447,4.049
					c0,0-0.465,6.436-0.479,12.498C1772.277,1165.625,1774.39,1168.889,1773.927,1171.899z"/>
				<path style="fill:#ED975D;" d="M1772.77,1148.037c0,0-0.465,6.436-0.479,12.498c-11.442-0.322-17.491-10.761-19.969-16.547
					L1772.77,1148.037z"/>
				<path style="fill:#FFB27D;" d="M1776.591,1153.778c0,0-27.072,0.446-27.091-16.418c-0.019-16.863-3.525-28.163,13.759-29.161
					s20.65,5.433,22.025,11.061C1786.659,1124.887,1783.633,1153.227,1776.591,1153.778z"/>
				<path style="fill:#163560;" d="M1775.589,1107.786c0,0-7.412,19.784-18.788,22.71c-11.375,2.925-16.31-0.123-16.31-0.123
					s8.726-6.932,10.536-19.031C1751.027,1111.342,1769.998,1098.369,1775.589,1107.786z"/>
				<path style="fill:#163560;" d="M1773.752,1109.393c0,0,5.536,4.416,6.886,8.711c1.35,4.294,1.956,13.135,4.533,12.834
					c0,0,5.584-13.447-0.692-21.055C1777.824,1101.816,1773.752,1109.393,1773.752,1109.393z"/>
				<path style="fill:#FFFFFF;" d="M1770.573,1143.555c0,0,0.504,2.143,5.834,1.813c0,0,4.475-0.276,4.337-2.631
					C1780.744,1142.736,1776.406,1141.061,1770.573,1143.555z"/>
			</g>
			<path style="fill:#FFB27D;" d="M1800.735,1450.792c0.153,4.43,6.384,4.719,13.487,4.173c7.104-0.547,5.154,1.171,15.051,1.692
				s13.438-2.618,13.972-4.015c0.476-1.239-4.253-2.48-9.307-3.921c-0.636-0.179-1.273-0.366-1.911-0.554
				c-5.696-1.686-9.338-6.139-14.115-10.09c-4.523-3.742,4.092-23.346,4.092-23.346l-12.828-5.476c0,0-1.703,13.777-4.175,25.878
				c-0.638,3.127-2.964,8.339-3.618,11.081C1801.031,1447.707,1800.68,1449.231,1800.735,1450.792z"/>
			<path style="fill:#E0EAFC;" d="M1715.303,1302.19c3.791,2.538,13.588,3.94,24.961,4.348c18.771-4.271,40.142-9.241,52.855-12.208
				c0.551-7.81-3.179-20.658-5.684-31.29c-14.824,4.525-36.885-10.894-44.3-16.989c-7.793-6.402-7.548-27.733-7.548-27.733
				l-15.682,14.907c0.134,0.725,0.268,1.442,0.406,2.154C1725.88,1263.886,1704.727,1295.104,1715.303,1302.19z"/>
			<path style="fill:#C65447;" d="M1814.223,1454.965c7.104-0.547,5.154,1.171,15.051,1.692s13.438-2.618,13.972-4.015
				c0.476-1.239-4.253-2.48-9.307-3.921l-0.064,0.091c0,0-6.509,3.175-14.631,2.039c-6.621-0.924-13.295-3.961-17.86-4.636
				c-0.352,1.491-0.703,3.016-0.647,4.576C1800.889,1455.222,1807.119,1455.511,1814.223,1454.965z"/>
			<path style="fill:#1C468A;" d="M1738.055,1286.492c22.247-1.719,89.044,0.226,102.293,9.066
				c16.308,10.881-23.009,135.548-23.009,135.548h-12.617c0,0-7.337-72.391-2.783-86.84c4.207-13.352,6.953-18.136,0.835-18.62
				c-6.119-0.484-81.531,12.76-88.972-9.436c-5.813-17.339,0.696-33.97,0.696-33.97S1717.529,1288.079,1738.055,1286.492z"/>
			<path style="fill:#163560;" d="M1747.301,1097.769c0,0,1.111-7.064-8.686-8.888c-9.798-1.822-9.98,18.987-11.03,24.005
				s1.566,8.022,5.304,8.328C1736.625,1121.52,1747.301,1097.769,1747.301,1097.769z"/>
			<g>
				<path style="fill:#FFB27D;" d="M1778.307,1278.813c0,0,14.302-1.589,17.404-0.144s13.019,10.684,11.117,12.426
					c-1.901,1.743-11.186-3.097-15.806-3.243c-4.619-0.146-8.484,1.501-11.657,0.477s-6.361-2.87-6.361-2.87L1778.307,1278.813z"/>
				<path style="fill:#FFB27D;" d="M1778.307,1278.813c0,0,7.254-2.32,9.48-3.957c0.281-0.206,0.678-0.087,0.813,0.233
					c0.376,0.889,0.594,2.52-2.007,3.671C1782.851,1280.418,1778.307,1278.813,1778.307,1278.813z"/>
			</g>
			<path style="fill:#FFFFFF;" d="M1730.89,1169.029c0,0-15.494,1.314-16.7,13.562c-0.916,9.3-7.655,75.258-2.802,80.995
				c13.657,16.143,44.171,20.886,61.616,21.873c0,0,2.099-1.594,3.241-2.895c1.051-1.198,2.062-3.751,2.062-3.751
				s-47.788-25.341-47.046-30.907S1745.75,1166.825,1730.89,1169.029z"/>
		</g>
	</g>
	<path style="fill:#2E3552;" d="M3065.302,1465.424H120.743c-2.167,0-3.939-1.772-3.939-3.939v-2.984
		c0-2.167,1.772-3.939,3.939-3.939h2944.559c2.167,0,3.94,1.772,3.94,3.939v2.984
		C3069.242,1463.651,3067.469,1465.424,3065.302,1465.424z"/>
	<g>
		<path style="fill:#BAD4F4;" d="M1714.83,849.28v201.07h282.64V849.28H1714.83z M1993.95,1046.83H1718.35V852.8h275.601V1046.83z"
			/>
	</g>
	<g>
		<path style="fill:#BAD4F4;" d="M2153.48,849.28v201.07h143.09V849.28H2153.48z M2293.04,1046.83H2157V852.8h136.04V1046.83z"/>
	</g>
</g>
</svg>
