<?xml version="1.0" encoding="utf-8"?>
<!-- Generator: Adobe Illustrator 27.5.0, SVG Export Plug-In . SVG Version: 6.00 Build 0)  -->
<svg version="1.1" xmlns="http://www.w3.org/2000/svg" xmlns:xlink="http://www.w3.org/1999/xlink" x="0px" y="0px"
	 viewBox="0 0 3710 3710" style="enable-background:new 0 0 3710 3710;" xml:space="preserve">
<g id="Background">
	<g>
		<g>
			<rect style="fill:#FFFFFF;" width="3710" height="3710"/>
		</g>
	</g>
</g>
<g id="Illustration">
	<g>
		<path style="fill:#F4F7FA;" d="M3039.007,2777.705c-146.785,199.234-332.287,289.505-433.978,337.537
			c-585.522,276.564-1430.52,145.694-1866.001-425.191c-60.389-79.168-288.322-396.756-277.264-847.861
			c14.954-609.983,462.043-1266.453,1122.445-1372.47c656.56-105.4,1139.971,394.908,1224.414,486.356
			C3261.93,1446.98,3409.353,2275.031,3039.007,2777.705z"/>
		<g>
			<g>
				<defs>
					<path id="SVGID_1_" d="M1590.157,2887.401c-262.126-227.355-265.887-667.71-121.739-774.716
						c74.975-55.656,158.938,1.901,228.651-66.474c77.238-75.756,12.349-183.856,41.722-407.473
						c15.176-115.537,42.698-325.051,171.346-389.694c127.58-64.106,227.415,78.174,368.495,16.789
						c133.401-58.044,94.835-207.318,261.874-329.273c15.537-11.343,191.91-136.869,319.601-71.078
						c129.729,66.84,163.39,307.538,82.16,451.111c-73.801,130.439-220.745,142.374-218.539,222.598
						c2.432,88.406,181.676,102.871,192.894,193.448c16.215,130.925-346.454,196.216-370.503,399.248
						c-14.142,119.39,130.865,167.463,70.507,309.215c-97.293,228.493-159.587,273.103-305.466,364.145
						C2099.752,2937.189,1817.357,3084.463,1590.157,2887.401z"/>
				</defs>
				<use xlink:href="#SVGID_1_"  style="overflow:visible;fill:#D8DEE8;"/>
				<clipPath id="SVGID_00000049212331399428195480000011698933260589858204_">
					<use xlink:href="#SVGID_1_"  style="overflow:visible;"/>
				</clipPath>
				<g style="opacity:0.7;clip-path:url(#SVGID_00000049212331399428195480000011698933260589858204_);">
					<path style="fill:#FFFFFF;" d="M1717.698,3088.861l-10.386-3.618c140.068-402.168,294.654-773.354,459.469-1103.25
						c131.883-263.975,270.576-502.265,412.229-708.248c241.391-351.018,410.146-488.378,411.822-489.725l6.888,8.574
						c-1.665,1.341-169.518,138.067-410.099,488.04C2365.558,1603.668,2034.375,2179.599,1717.698,3088.861z"/>
					<path style="fill:#FFFFFF;" d="M2557.054,1308.215c-32.298-339.346,100.178-602.641,101.52-605.261l9.789,5.013
						c-1.33,2.593-132.341,263.187-100.359,599.206L2557.054,1308.215z"/>
					<path style="fill:#FFFFFF;" d="M2142.202,2028.809c-148.451-340.377-180.276-575.558-180.83-712.914
						c-0.603-149.611,33.779-217.537,35.24-220.354l9.765,5.063c-0.349,0.674-34.785,69.104-34.001,216.474
						c0.728,136.169,32.53,369.42,179.908,707.333L2142.202,2028.809z"/>
					<path style="fill:#FFFFFF;" d="M1834.164,2746.769c-386.634-521.507-370.145-903.936-369.934-907.738l10.982,0.612
						c-0.052,0.955-4.029,100.098,42.011,264.226c40.544,144.523,129.974,372.241,325.774,636.35L1834.164,2746.769z"/>
					<path style="fill:#FFFFFF;" d="M2313.082,1936.368c-37.941,3.197-76.692,4.385-116.107,3.145l0.345-10.993
						c257.535,8.099,487.826-88.629,635.655-171.201c160.255-89.514,260.69-182.021,261.682-182.944l7.485,8.062
						c-1.006,0.933-102.408,94.333-263.802,184.485C2711.886,1837.555,2525.508,1918.468,2313.082,1936.368z"/>
					<path style="fill:#FFFFFF;" d="M1954.646,2612.71c-20.485,1.726-41.305,2.756-62.489,3.021l-0.137-10.997
						c268.608-3.374,481.553-131.392,612.905-238.192c142.431-115.809,222.163-232.156,222.953-233.318l9.101,6.178
						c-0.799,1.175-81.443,118.856-225.115,235.674C2389.5,2474.568,2196.954,2592.292,1954.646,2612.71z"/>
				</g>
			</g>
		</g>
		<g>
			<g>
				<g>
					
						<linearGradient id="SVGID_00000059268054615366587420000000422746732209115542_" gradientUnits="userSpaceOnUse" x1="580.5922" y1="1833.6971" x2="1537.8846" y2="1833.6971" gradientTransform="matrix(0.9993 -0.0361 0.0361 0.9993 -24.9226 104.6293)">
						<stop  offset="0" style="stop-color:#444B8C"/>
						<stop  offset="0.9964" style="stop-color:#26264F"/>
					</linearGradient>
					<path style="fill:url(#SVGID_00000059268054615366587420000000422746732209115542_);" d="M1617.844,2982.186
						c-33.208,27.848-74.492,45.941-119.324,51.332l-502.33,60.404c-47.466,5.708-92.575-2.471-130.17-22.806
						c-46.148-24.984-80.83-66.713-94.418-119.818C600.066,2279.893,571.55,1574.002,688.111,885.38
						c10.414-61.596,48.925-112.778,102.136-142.715c32.734-18.392,70.97-28.868,111.59-28.788l520.927,1.018
						c38.357,0.075,74.864,10.06,106.549,27.878C1362.5,1485.811,1393.139,2262.322,1617.844,2982.186z"/>
					
						<linearGradient id="SVGID_00000170961091589530442720000015673144931564479631_" gradientUnits="userSpaceOnUse" x1="1824.634" y1="1781.2936" x2="-493.8917" y2="1914.2563" gradientTransform="matrix(0.9993 -0.0361 0.0361 0.9993 -24.9226 104.6293)">
						<stop  offset="0" style="stop-color:#444B8C"/>
						<stop  offset="0.9964" style="stop-color:#26264F"/>
					</linearGradient>
					<path style="fill:url(#SVGID_00000170961091589530442720000015673144931564479631_);" d="M1644.25,2979.062
						c-33.114,27.803-74.281,45.864-118.988,51.24l-500.896,60.231c-47.328,5.691-92.307-2.483-129.794-22.795
						c-46.016-24.956-80.598-66.629-94.15-119.657c-171.068-670.439-199.537-1375.29-83.355-2062.895
						c10.381-61.505,48.776-112.612,101.831-142.506c32.638-18.366,70.762-28.826,111.265-28.747l519.44,1.015
						c38.249,0.075,74.654,10.046,106.251,27.838C1389.548,1484.773,1420.14,2260.184,1644.25,2979.062z"/>
					
						<linearGradient id="SVGID_00000062913675369662619400000013153585491545577385_" gradientUnits="userSpaceOnUse" x1="811.9613" y1="1833.048" x2="1747.3303" y2="1833.048" gradientTransform="matrix(0.9993 -0.0361 0.0361 0.9993 -24.9226 104.6293)">
						<stop  offset="0" style="stop-color:#444B8C"/>
						<stop  offset="0.9964" style="stop-color:#26264F"/>
					</linearGradient>
					<path style="fill:url(#SVGID_00000062913675369662619400000013153585491545577385_);" d="M1721.775,2845.588
						c-8.671,53.015-37.209,99.602-77.524,133.474c-33.114,27.803-74.281,45.864-118.988,51.24l-500.896,60.231
						c-47.328,5.691-92.307-2.483-129.794-22.795c181.565-780.322,155.789-1569.515-75.684-2325.342
						c32.638-18.365,70.772-28.542,111.276-28.463l519.44,1.015c38.249,0.075,74.667,10.41,106.264,28.203
						c50.914,28.64,89.404,77.318,102.958,135.781C1808.215,1523.271,1829.468,2185.758,1721.775,2845.588z"/>
					
						<linearGradient id="SVGID_00000144313892227748299410000013541697287585574044_" gradientUnits="userSpaceOnUse" x1="811.9615" y1="1833.1522" x2="1007.797" y2="1833.1522" gradientTransform="matrix(0.9993 -0.0361 0.0361 0.9993 -24.9226 104.6293)">
						<stop  offset="0" style="stop-color:#444B8C"/>
						<stop  offset="0.9964" style="stop-color:#26264F"/>
					</linearGradient>
					<path style="fill:url(#SVGID_00000144313892227748299410000013541697287585574044_);" d="M934.257,3084.813
						c178.343-791.028,151.65-1591.661-78.459-2358.314c-12.898,4.405-25.249,9.916-36.89,16.466
						c231.473,755.822,257.255,1545.2,75.691,2325.531C907.046,3075.239,920.339,3080.697,934.257,3084.813z"/>
				</g>
				<g>
					
						<linearGradient id="SVGID_00000085937557848940105470000001291297972074569626_" gradientUnits="userSpaceOnUse" x1="1531.4052" y1="194.209" x2="1315.1919" y2="1571.5681" gradientTransform="matrix(0.9993 -0.0361 0.0361 0.9993 -24.9226 104.6293)">
						<stop  offset="0" style="stop-color:#444B8C"/>
						<stop  offset="0.4836" style="stop-color:#35396E"/>
						<stop  offset="0.9964" style="stop-color:#26264F"/>
					</linearGradient>
					<path style="fill:url(#SVGID_00000085937557848940105470000001291297972074569626_);" d="M1906.472,1362.281l36.31,1005.694
						c3.196,88.531-65.992,167.415-155.922,176.041l-869.735,83.504c-15.842,1.52-33.463,1.183-48.289-1.094
						c-78.207-11.87-140.479-73.131-143.34-152.383L686.804,1402.38c-0.826-22.887,5.909-43.452,13.972-63.67
						c25.041-63.033,90.048-107.109,165.501-108.948l871.669-21.254C1828.107,1206.312,1903.276,1273.75,1906.472,1362.281z"/>
					
						<linearGradient id="SVGID_00000155829662443555545660000001178779153610805413_" gradientUnits="userSpaceOnUse" x1="1383.4548" y1="2100.2703" x2="1415.2335" y2="4054.5732" gradientTransform="matrix(0.9993 -0.0361 0.0361 0.9993 -24.9226 104.6293)">
						<stop  offset="0" style="stop-color:#444B8C"/>
						<stop  offset="0.9964" style="stop-color:#26264F"/>
					</linearGradient>
					<path style="fill:url(#SVGID_00000155829662443555545660000001178779153610805413_);" d="M2038.763,2364.033
						c3.185,88.232-65.249,166.645-154.405,175.217l-861.219,82.949c-98.595,9.48-180.499-58.968-183.893-152.961l-38.541-1067.49
						c-3.394-93.994,73.522-172.154,172.373-174.562l863.752-21.054c89.388-2.178,162.569,67.618,165.755,155.85L2038.763,2364.033z
						"/>
					
						<linearGradient id="SVGID_00000077282081717840373210000008050447750955173249_" gradientUnits="userSpaceOnUse" x1="1839.4755" y1="1246.1732" x2="1010.5103" y2="2502.0718">
						<stop  offset="0" style="stop-color:#FF9085"/>
						<stop  offset="1" style="stop-color:#FB6FBB"/>
					</linearGradient>
					<path style="fill:url(#SVGID_00000077282081717840373210000008050447750955173249_);" d="M1966.935,1360.65
						c-2.434-67.428-60.895-120.626-129.146-118.833l-865.946,22.738c-75.306,1.979-134.707,61.562-132.125,133.09l38.321,1061.4
						c2.582,71.529,65.265,123.79,140.388,116.747l864.973-80.98c68.086-6.383,122.095-66.184,119.66-133.612L1966.935,1360.65z"/>
					
						<linearGradient id="SVGID_00000106856129844635895290000012054139687752849301_" gradientUnits="userSpaceOnUse" x1="845.8777" y1="1850.6366" x2="1909.728" y2="1850.6366" gradientTransform="matrix(0.9993 -0.0361 0.0361 0.9993 -24.9226 104.6293)">
						<stop  offset="0" style="stop-color:#FF9085"/>
						<stop  offset="1" style="stop-color:#FB6FBB"/>
					</linearGradient>
					<path style="opacity:0.2;fill:url(#SVGID_00000106856129844635895290000012054139687752849301_);" d="M1932.406,1390.34
						c-2.301-63.746-55.512-113.957-120.106-112.136l-816.606,22.992c-70.853,1.998-128.873,58.284-126.44,125.671l36.064,998.883
						c2.433,67.387,64.591,116.744,135.283,110.253l813.125-74.624c64.443-5.918,115.098-62.375,112.796-126.121L1932.406,1390.34z"
						/>
					
						<linearGradient id="SVGID_00000022547546181948289360000001208764576245632924_" gradientUnits="userSpaceOnUse" x1="891.6613" y1="926.1357" x2="711.6483" y2="2072.8855" gradientTransform="matrix(0.9993 -0.0361 0.0361 0.9993 -24.9226 104.6293)">
						<stop  offset="0" style="stop-color:#444B8C"/>
						<stop  offset="0.9964" style="stop-color:#26264F"/>
					</linearGradient>
					<path style="opacity:0.3;fill:url(#SVGID_00000022547546181948289360000001208764576245632924_);" d="M869.333,2626.529
						c-78.207-11.87-140.976-73.235-143.837-152.486L686.804,1402.38c-0.826-22.887,5.855-44.948,13.918-65.166
						c24.282,40.962,46.592,104.304,39.811,198.275c-14.51,201.069,5.539,256.959,42.415,398.322
						c36.757,140.909-19.08,296.332-13.862,401.623C773.525,2425.572,750.473,2573.814,869.333,2626.529z"/>
				</g>
			</g>
			<path style="opacity:0.7;fill:#FFFFFF;" d="M1821.677,1807.824c-2.197-60.845-28.195-117.547-73.224-159.683
				c-45.08-42.186-104.115-64.884-166.115-63.695c-57.22,1.098-110.733,22.352-152.205,60.229
				c-43.647-34.105-97.637-52.105-153.791-51.022c-60.982,1.176-117.81,24.596-160.843,66.22c-1.767,1.681-3.468,3.361-5.163,5.107
				c-87.833,90.369-86.056,231.999,3.959,321.569l228.313,209.929c29.48,26.785,67.9,40.708,108.066,39.146
				c40.001-1.556,77.042-18.341,104.262-47.126l204.797-217.062c0.123-0.197,0.249-0.33,0.375-0.463
				c0.756-0.733,1.443-1.529,2.135-2.26l6.956-7.441l-0.267-0.185C1805.087,1918.157,1823.714,1864.23,1821.677,1807.824z
				 M1678.255,1936.913l-110.654,3.323c-3.227,0.097-6.563-6.554-9.197-8.293l-48.313-34.447l-30.388,50.976l-80.47,134.937
				c-2.699,4.595-7.641,6.07-12.898,6.251c-1.398,0.048-7.263-0.076-8.674-0.419c-6.727-1.662-15.863-7.421-16.108-14.205
				l-9.568-265.013l-32.372,61.847l-26.294,48.639c-2.647,4.593-5.496,8.482-10.851,8.64l-194.477,5.729
				c-8.673,0.255-15.892-7.501-16.199-15.99s6.622-16.655,15.296-16.902l186.205-5.296l22.823-38.596l64.695-109.556
				c3.456-5.827,9.638-8.617,16.297-6.948c6.788,1.73,10.679,7.606,10.924,14.383l9.573,265.151l52.345-87.102l41.027-68.551
				c2.118-3.636,5.912-6.218,10.05-7.112c4.131-0.959,8.783,4.565,12.304,6.873l57.926,42.451l105.813-3.073
				c8.432-0.245,15.519,7.371,15.82,15.702C1693.187,1928.642,1686.687,1936.659,1678.255,1936.913z"/>
			<g style="opacity:0.5;">
				<path style="fill:#FFFFFF;" d="M1717.973,2241.294c-164.143-159.947-363.935-103.76-451.839-266.834
					c-94.29-174.923,84.487-334.374,14.231-555.015c-19.766-62.076-54.857-115.066-98.73-160.399l-209.793,5.509
					c-75.306,1.979-134.708,61.562-132.125,133.09l38.321,1061.399c2.583,71.529,65.265,123.79,140.388,116.748l836.721-78.335
					C1825.591,2374.392,1772.999,2294.913,1717.973,2241.294z"/>
			</g>
		</g>
		<g>
			<g>
				<g>
					<path style="fill:#FFFFFF;" d="M2877.671,1082.516c-5.734,0-10.381-4.648-10.381-10.381v-20.761
						c0-5.733,4.646-10.381,10.381-10.381c5.734,0,10.381,4.648,10.381,10.381v20.761
						C2888.051,1077.868,2883.405,1082.516,2877.671,1082.516z"/>
					<path style="fill:#FFFFFF;" d="M2877.671,1338.336c-5.734,0-10.381-4.648-10.381-10.381v-42.638
						c0-5.733,4.646-10.381,10.381-10.381c5.734,0,10.381,4.648,10.381,10.381v42.638
						C2888.051,1333.688,2883.405,1338.336,2877.671,1338.336z M2877.671,1253.063c-5.734,0-10.381-4.648-10.381-10.381v-42.638
						c0-5.733,4.646-10.381,10.381-10.381c5.734,0,10.381,4.648,10.381,10.381v42.638
						C2888.051,1248.415,2883.405,1253.063,2877.671,1253.063z M2877.671,1167.789c-5.734,0-10.381-4.648-10.381-10.381v-42.637
						c0-5.733,4.646-10.381,10.381-10.381c5.734,0,10.381,4.648,10.381,10.381v42.637
						C2888.051,1163.141,2883.405,1167.789,2877.671,1167.789z"/>
					<path style="fill:#FFFFFF;" d="M2856.909,1402.358c-5.589,0-10.198-4.443-10.371-10.068
						c-0.172-5.731,4.335-10.516,10.066-10.688l10.685-0.323v-10.688c0-5.733,4.646-10.381,10.381-10.381
						c5.734,0,10.381,4.648,10.381,10.381v20.761c0,5.611-4.46,10.207-10.07,10.376l-20.754,0.625
						C2857.122,1402.356,2857.018,1402.358,2856.909,1402.358z"/>
					<path style="fill:#FFFFFF;" d="M1483.858,1443.705c-5.589,0-10.198-4.444-10.37-10.068
						c-0.172-5.731,4.335-10.516,10.063-10.688l40.384-1.216c5.731-0.161,10.516,4.33,10.691,10.063
						c0.172,5.731-4.335,10.516-10.066,10.688l-40.384,1.217C1484.071,1443.703,1483.966,1443.705,1483.858,1443.705z
						 M1564.625,1441.274c-5.586,0-10.198-4.443-10.37-10.068c-0.172-5.731,4.335-10.516,10.063-10.688l40.384-1.216
						c5.792-0.134,10.516,4.329,10.692,10.063c0.172,5.731-4.335,10.516-10.066,10.688l-40.384,1.216
						C1564.838,1441.272,1564.734,1441.274,1564.625,1441.274z M1645.393,1438.841c-5.589,0-10.198-4.444-10.37-10.068
						c-0.172-5.731,4.335-10.516,10.066-10.688l40.384-1.216c5.565-0.199,10.512,4.33,10.688,10.063
						c0.172,5.731-4.335,10.516-10.066,10.688l-40.384,1.216C1645.606,1438.839,1645.501,1438.841,1645.393,1438.841z
						 M1726.16,1436.409c-5.589,0-10.198-4.443-10.37-10.068c-0.172-5.731,4.335-10.516,10.066-10.688l40.384-1.217
						c5.555-0.164,10.512,4.33,10.688,10.063c0.172,5.731-4.335,10.516-10.066,10.688l-40.384,1.216
						C1726.373,1436.408,1726.268,1436.409,1726.16,1436.409z M1806.927,1433.976c-5.589,0-10.198-4.443-10.37-10.068
						c-0.172-5.731,4.335-10.516,10.066-10.688l40.384-1.217c5.616-0.135,10.516,4.329,10.688,10.063
						c0.172,5.731-4.335,10.516-10.066,10.688l-40.384,1.217C1807.14,1433.975,1807.036,1433.976,1806.927,1433.976z
						 M1887.698,1431.543c-5.589,0-10.202-4.443-10.37-10.068c-0.172-5.731,4.335-10.516,10.066-10.688l40.384-1.215
						c5.613-0.193,10.516,4.332,10.688,10.063s-4.335,10.516-10.066,10.688l-40.384,1.215
						C1887.911,1431.542,1887.803,1431.543,1887.698,1431.543z M1968.465,1429.112c-5.589,0-10.198-4.443-10.37-10.068
						c-0.172-5.731,4.335-10.516,10.063-10.688l40.384-1.216c5.741-0.167,10.516,4.33,10.691,10.063
						c0.172,5.731-4.335,10.516-10.066,10.688l-40.384,1.216C1968.678,1429.11,1968.574,1429.112,1968.465,1429.112z
						 M2049.233,1426.679c-5.589,0-10.202-4.443-10.37-10.068c-0.172-5.731,4.335-10.516,10.066-10.688l40.384-1.215
						c5.707-0.196,10.516,4.332,10.688,10.063c0.172,5.731-4.335,10.516-10.066,10.688l-40.384,1.215
						C2049.446,1426.678,2049.338,1426.679,2049.233,1426.679z M2130,1424.248c-5.589,0-10.198-4.444-10.37-10.068
						c-0.172-5.731,4.335-10.516,10.063-10.688l40.384-1.217c5.684-0.199,10.516,4.33,10.691,10.063
						c0.172,5.731-4.335,10.516-10.066,10.688l-40.384,1.216C2130.213,1424.246,2130.108,1424.248,2130,1424.248z
						 M2210.768,1421.815c-5.589,0-10.202-4.444-10.371-10.068c-0.172-5.731,4.335-10.516,10.066-10.688l40.384-1.215
						c5.62-0.198,10.516,4.332,10.688,10.063s-4.335,10.516-10.066,10.688l-40.384,1.215
						C2210.98,1421.813,2210.872,1421.815,2210.768,1421.815z M2291.535,1419.384c-5.589,0-10.198-4.443-10.371-10.068
						c-0.172-5.731,4.335-10.516,10.063-10.688l40.387-1.216c0.105-0.003,0.209-0.005,0.318-0.005
						c5.586,0,10.198,4.443,10.371,10.068c0.172,5.731-4.335,10.516-10.066,10.688l-40.384,1.216
						C2291.748,1419.382,2291.643,1419.384,2291.535,1419.384z M2372.302,1416.951c-5.589,0-10.201-4.443-10.37-10.068
						c-0.172-5.731,4.335-10.516,10.066-10.688l40.384-1.215c5.714-0.201,10.516,4.332,10.688,10.063
						c0.173,5.731-4.335,10.516-10.066,10.688l-40.384,1.215C2372.515,1416.949,2372.407,1416.951,2372.302,1416.951z
						 M2453.069,1414.52c-5.589,0-10.198-4.444-10.37-10.068c-0.172-5.731,4.335-10.516,10.066-10.688l40.384-1.216
						c5.569-0.174,10.512,4.33,10.688,10.063c0.172,5.731-4.335,10.516-10.066,10.688l-40.384,1.217
						C2453.282,1414.518,2453.177,1414.52,2453.069,1414.52z M2533.84,1412.087c-5.589,0-10.201-4.443-10.371-10.068
						c-0.172-5.731,4.335-10.516,10.066-10.688l40.384-1.215c5.623-0.204,10.516,4.332,10.688,10.063
						c0.172,5.731-4.335,10.516-10.066,10.688l-40.384,1.215C2534.053,1412.085,2533.945,1412.087,2533.84,1412.087z
						 M2614.607,1409.655c-5.589,0-10.198-4.444-10.37-10.068c-0.172-5.731,4.335-10.516,10.063-10.688l40.384-1.216
						c5.694-0.204,10.516,4.33,10.691,10.063c0.172,5.731-4.335,10.516-10.066,10.688l-40.384,1.216
						C2614.82,1409.654,2614.716,1409.655,2614.607,1409.655z M2695.375,1407.222c-5.589,0-10.202-4.443-10.37-10.068
						c-0.173-5.731,4.335-10.516,10.066-10.688l40.384-1.215c5.721-0.208,10.516,4.332,10.688,10.063
						c0.172,5.731-4.335,10.516-10.066,10.688l-40.384,1.215C2695.588,1407.221,2695.479,1407.222,2695.375,1407.222z
						 M2776.142,1404.791c-5.589,0-10.198-4.443-10.371-10.068c-0.172-5.731,4.335-10.516,10.063-10.688l40.384-1.217
						c5.636-0.147,10.519,4.329,10.691,10.063c0.172,5.731-4.335,10.516-10.066,10.688l-40.384,1.217
						C2776.355,1404.789,2776.25,1404.791,2776.142,1404.791z"/>
					<path style="fill:#FFFFFF;" d="M1422.73,1466.308c-5.734,0-10.381-4.648-10.381-10.381v-20.761
						c0-5.611,4.46-10.207,10.066-10.375l20.751-0.625c5.67-0.189,10.516,4.33,10.692,10.063
						c0.172,5.731-4.335,10.516-10.063,10.688l-10.685,0.323v10.688C1433.111,1461.66,1428.465,1466.308,1422.73,1466.308z"/>
					<path style="fill:#FFFFFF;" d="M1422.73,1555.234c-5.734,0-10.381-4.648-10.381-10.381v-44.464
						c0-5.733,4.646-10.381,10.381-10.381c5.734,0,10.38,4.648,10.38,10.381v44.464
						C1433.111,1550.586,1428.465,1555.234,1422.73,1555.234z"/>
					<path style="fill:#FFFFFF;" d="M1422.73,1620.459c-5.734,0-10.381-4.648-10.381-10.381v-20.761
						c0-5.733,4.646-10.381,10.381-10.381c5.734,0,10.38,4.648,10.38,10.381v20.761
						C1433.111,1615.811,1428.465,1620.459,1422.73,1620.459z"/>
				</g>
				<g>
					<path style="fill:#FFFFFF;" d="M2352.632,1101.064c-5.734,0-10.381-4.648-10.381-10.381v-20.761
						c0-5.733,4.646-10.381,10.381-10.381s10.381,4.648,10.381,10.381v20.761
						C2363.013,1096.416,2358.367,1101.064,2352.632,1101.064z"/>
					<path style="fill:#FFFFFF;" d="M2352.632,1353.926c-5.734,0-10.381-4.648-10.381-10.381v-42.144
						c0-5.733,4.646-10.381,10.381-10.381s10.381,4.648,10.381,10.381v42.144
						C2363.013,1349.277,2358.367,1353.926,2352.632,1353.926z M2352.632,1269.639c-5.734,0-10.381-4.648-10.381-10.381v-42.144
						c0-5.733,4.646-10.381,10.381-10.381s10.381,4.648,10.381,10.381v42.144
						C2363.013,1264.991,2358.367,1269.639,2352.632,1269.639z M2352.632,1185.352c-5.734,0-10.381-4.648-10.381-10.381v-42.144
						c0-5.733,4.646-10.381,10.381-10.381s10.381,4.648,10.381,10.381v42.144
						C2363.013,1180.704,2358.367,1185.352,2352.632,1185.352z"/>
					<path style="fill:#FFFFFF;" d="M2352.632,1416.831c-5.734,0-10.381-4.648-10.381-10.381v-20.761
						c0-5.733,4.646-10.381,10.381-10.381s10.381,4.648,10.381,10.381v20.761
						C2363.013,1412.183,2358.367,1416.831,2352.632,1416.831z"/>
				</g>
				<g>
					<path style="fill:#FFFFFF;" d="M1802.288,1109.649c-5.734,0-10.381-4.648-10.381-10.381v-20.761
						c0-5.733,4.646-10.381,10.381-10.381c5.734,0,10.381,4.648,10.381,10.381v20.761
						C1812.669,1105,1808.022,1109.649,1802.288,1109.649z"/>
					<path style="fill:#FFFFFF;" d="M1802.288,1368.716c-5.734,0-10.381-4.648-10.381-10.381v-43.178
						c0-5.733,4.646-10.381,10.381-10.381c5.734,0,10.381,4.648,10.381,10.381v43.178
						C1812.669,1364.068,1808.022,1368.716,1802.288,1368.716z M1802.288,1282.359c-5.734,0-10.381-4.648-10.381-10.381v-43.177
						c0-5.733,4.646-10.381,10.381-10.381c5.734,0,10.381,4.648,10.381,10.381v43.177
						C1812.669,1277.712,1808.022,1282.359,1802.288,1282.359z M1802.288,1196.005c-5.734,0-10.381-4.648-10.381-10.381v-43.178
						c0-5.733,4.646-10.381,10.381-10.381c5.734,0,10.381,4.648,10.381,10.381v43.178
						C1812.669,1191.357,1808.022,1196.005,1802.288,1196.005z"/>
					<path style="fill:#FFFFFF;" d="M1802.288,1432.655c-5.734,0-10.381-4.648-10.381-10.38v-20.761
						c0-5.733,4.646-10.381,10.381-10.381c5.734,0,10.381,4.648,10.381,10.381v20.761
						C1812.669,1428.007,1808.022,1432.655,1802.288,1432.655z"/>
				</g>
			</g>
			<g>
				<g>
					
						<linearGradient id="SVGID_00000035514118546946896440000009461005197490159538_" gradientUnits="userSpaceOnUse" x1="4027.2876" y1="16656.2852" x2="3649.5088" y2="17319.7012" gradientTransform="matrix(-0.7071 -0.7071 0.7071 -0.7071 -6361.5347 15599.4854)">
						<stop  offset="0" style="stop-color:#444B8C"/>
						<stop  offset="0.9964" style="stop-color:#26264F"/>
					</linearGradient>
					<path style="fill:url(#SVGID_00000035514118546946896440000009461005197490159538_);" d="M2715.054,736.3
						c89.597-79.207,229.043-70.759,311.656,14.265c80.162,82.502,80.162,210.315,0,289.777
						c-82.613,81.891-222.059,85.05-311.656,2.446C2622.557,957.509,2622.557,818.07,2715.054,736.3z"/>
				</g>
				<g>
					
						<linearGradient id="SVGID_00000000215455487301496010000017189806762801895311_" gradientUnits="userSpaceOnUse" x1="-10850.3779" y1="-7887.9004" x2="-11065.7979" y2="-8251.0869" gradientTransform="matrix(-0.7071 -0.7071 0.7071 -0.7071 -6361.5347 15599.4854)">
						<stop  offset="0.0036" style="stop-color:#E38DDD"/>
						<stop  offset="1" style="stop-color:#9571F6"/>
					</linearGradient>
					<path style="fill:url(#SVGID_00000000215455487301496010000017189806762801895311_);" d="M2724.584,725.599
						c89.53-79.139,228.871-70.635,311.422,14.392c80.103,82.505,80.103,210.271,0,289.668
						c-82.551,81.825-221.892,84.923-311.422,2.311C2632.157,946.685,2632.157,807.298,2724.584,725.599z"/>
				</g>
				<g style="opacity:0.5;">
					<path style="fill:#FFFFFF;" d="M2747.094,748.559c76.337-67.607,195.305-60.508,265.877,12.055
						c68.544,70.478,68.544,179.707,0,247.526c-70.573,69.826-189.54,72.31-265.877,1.742
						C2668.369,937.107,2668.369,818.28,2747.094,748.559z"/>
				</g>
				<path style="opacity:0.3;fill:#FFFFFF;" d="M2737.58,764.396c76.395-67.68,195.451-60.654,266.077,11.894
					c55.437,56.944,66.041,139.155,31.978,204.375c44.79-67.227,37.271-158.424-22.665-220.05
					c-70.573-72.565-189.54-79.663-265.877-12.057c-16.508,14.621-29.514,31.438-39.102,49.54
					C2716.17,786.003,2726.003,774.652,2737.58,764.396z"/>
				<path style="fill:#FFFFFF;" d="M2955.204,925.035c0,42.448-34.655,77.319-77.535,77.887
					c-43.029,0.57-78.019-33.592-78.019-76.304c0-42.713,78.019-166.034,78.019-166.034S2955.204,882.587,2955.204,925.035z"/>
			</g>
			<g>
				<g>
					
						<linearGradient id="SVGID_00000060024584227946059330000011535395529811915682_" gradientUnits="userSpaceOnUse" x1="4402.8931" y1="16269.3281" x2="4009.5308" y2="16960.1113" gradientTransform="matrix(-0.7071 -0.7071 0.7071 -0.7071 -6361.5347 15599.4854)">
						<stop  offset="0" style="stop-color:#444B8C"/>
						<stop  offset="0.9964" style="stop-color:#26264F"/>
					</linearGradient>
					<path style="fill:url(#SVGID_00000060024584227946059330000011535395529811915682_);" d="M2181.734,737.682
						c93.42-80.88,238.788-72.254,324.893,14.545c83.539,84.213,83.539,214.687,0,295.828
						c-86.105,83.633-231.473,86.912-324.893,2.596C2085.275,963.593,2085.275,821.193,2181.734,737.682z"/>
				</g>
				<g>
					
						<linearGradient id="SVGID_00000085957371419279386560000010803724170691443635_" gradientUnits="userSpaceOnUse" x1="-10811.1738" y1="-8819.6631" x2="-11031.4209" y2="-9190.9873" gradientTransform="matrix(-0.7071 -0.7071 0.7071 -0.7071 -6361.5347 15599.4854)">
						<stop  offset="0.0036" style="stop-color:#E38DDD"/>
						<stop  offset="1" style="stop-color:#9571F6"/>
					</linearGradient>
					<path style="fill:url(#SVGID_00000085957371419279386560000010803724170691443635_);" d="M2191.671,726.754
						c93.349-80.81,238.604-72.126,324.644,14.677c83.476,84.216,83.476,214.641,0,295.715
						c-86.04,83.564-231.295,86.78-324.644,2.456C2095.287,952.536,2095.287,810.192,2191.671,726.754z"/>
				</g>
				<g style="opacity:0.5;">
					<path style="fill:#FFFFFF;" d="M2215.141,750.198c79.591-69.035,203.609-61.789,277.166,12.29
						c71.434,71.941,71.434,183.446,0,252.698c-73.557,71.31-197.575,73.888-277.166,1.855
						C2133.051,942.748,2133.051,821.402,2215.141,750.198z"/>
				</g>
				<path style="opacity:0.3;fill:#FFFFFF;" d="M2205.222,766.371c79.652-69.111,203.765-61.941,277.378,12.121
					c57.776,58.127,68.827,142.05,33.328,208.639c46.678-68.64,38.842-161.736-23.621-224.642
					c-73.557-74.08-197.575-81.325-277.166-12.291c-17.213,14.931-30.775,32.104-40.773,50.591
					C2182.897,788.436,2193.15,776.845,2205.222,766.371z"/>
				<g>
					<path style="fill:#FFFFFF;" d="M2287.03,808.615c-14.336,0.276-26.129,13.046-26.145,28.521l-0.136,126.365
						c-0.017,15.393,11.709,27.596,25.996,27.251c14.276-0.345,26.018-13.068,26.05-28.441l0.26-126.199
						C2313.086,820.657,2301.355,808.339,2287.03,808.615z"/>
					<path style="fill:#FFFFFF;" d="M2231.619,836.346l0.21,0.044c-9.92,0.198-17.496,9.067-17.499,19.758l-0.009,31.802
						l-3.993,0.17c-6.091,0.13-10.22,5.618-10.22,12.173v0.609c0,6.553,4.127,11.687,10.216,11.553l3.991-0.175l-0.009,34.164
						c-0.003,10.651,7.988,19.089,17.885,18.857l-0.631-0.088c9.889-0.232,17.013-9.123,17.023-19.761l0.083-90.191
						C2248.675,844.579,2241.533,836.148,2231.619,836.346z"/>
					<path style="fill:#FFFFFF;" d="M2418.108,806.157c-14.237,0.274-25.499,13.022-25.553,28.446l-0.448,125.945
						c-0.054,15.342,11.081,27.468,25.269,27.125c14.178-0.343,25.382-13.059,25.451-28.378l0.567-125.758
						C2443.464,818.136,2432.334,805.883,2418.108,806.157z"/>
					<path style="fill:#FFFFFF;" d="M2493.844,882.042l-3.023,0.245l0.167-31.576c0.056-10.615-8.078-19.091-17.87-18.895
						l-0.428-0.01c-9.797,0.196-17.95,8.956-18,19.581l-0.415,89.738c-0.049,10.585,7.883,18.98,17.657,18.751l0.527,0.022
						c9.769-0.229,17.998-8.957,18.054-19.532l0.18-33.922l3.022-0.252c5.994-0.132,9.166-5.653,9.202-12.151l0.003-0.604
						C2502.956,886.937,2499.841,881.914,2493.844,882.042z"/>
					<polygon style="fill:#FFFFFF;" points="2322.639,917.257 2382.425,915.79 2382.536,879.461 2322.709,880.864 					"/>
				</g>
			</g>
			<g>
				<g>
					
						<linearGradient id="SVGID_00000170984374149884874050000005634856064648636347_" gradientUnits="userSpaceOnUse" x1="4794.7705" y1="15865.5049" x2="4384.8091" y2="16585.4375" gradientTransform="matrix(-0.7071 -0.7071 0.7071 -0.7071 -6361.5347 15599.4854)">
						<stop  offset="0" style="stop-color:#444B8C"/>
						<stop  offset="0.9964" style="stop-color:#26264F"/>
					</linearGradient>
					<path style="fill:url(#SVGID_00000170984374149884874050000005634856064648636347_);" d="M1625.366,739.124
						c97.493-82.627,249.168-73.815,338.992,14.837c87.135,85.997,87.135,219.245,0,302.137
						c-89.824,85.451-241.498,88.858-338.992,2.757C1524.686,969.94,1524.686,824.452,1625.366,739.124z"/>
				</g>
				<g>
					
						<linearGradient id="SVGID_00000001664690911181653100000002967635515073016987_" gradientUnits="userSpaceOnUse" x1="-10771.6719" y1="-9793.7627" x2="-10996.9736" y2="-10173.6094" gradientTransform="matrix(-0.7071 -0.7071 0.7071 -0.7071 -6361.5347 15599.4854)">
						<stop  offset="0.0036" style="stop-color:#E38DDD"/>
						<stop  offset="1" style="stop-color:#9571F6"/>
					</linearGradient>
					<path style="fill:url(#SVGID_00000001664690911181653100000002967635515073016987_);" d="M1635.738,727.96
						c97.416-82.553,248.973-73.68,338.726,14.975c87.067,86.001,87.067,219.196,0,302.02c-89.753,85.379-241.31,88.72-338.726,2.61
						C1535.138,958.641,1535.138,813.211,1635.738,727.96z"/>
				</g>
				<g style="opacity:0.5;">
					<path style="fill:#FFFFFF;" d="M1660.233,751.909c83.057-70.526,212.454-63.125,289.188,12.533
						c74.511,73.467,74.511,187.344,0,258.09c-76.735,72.858-206.131,75.535-289.188,1.977
						C1574.556,948.632,1574.556,824.66,1660.233,751.909z"/>
				</g>
				<path style="opacity:0.3;fill:#FFFFFF;" d="M1649.88,768.431c83.123-70.605,212.621-63.284,289.415,12.357
					c60.266,59.36,71.793,145.068,34.765,213.084c48.688-70.113,40.515-165.189-24.639-229.429
					c-76.735-75.659-206.131-83.059-289.188-12.534c-17.964,15.255-32.119,32.8-42.552,51.687
					C1626.581,790.974,1637.281,779.132,1649.88,768.431z"/>
				<g>
					<polygon style="fill:#FFFFFF;" points="1883.845,997.61 1920.701,997.581 1920.701,804.381 1883.845,803.726 					"/>
					<polygon style="fill:#FFFFFF;" points="1817.678,997.662 1855,997.633 1855,900.423 1817.678,900.106 					"/>
					<polygon style="fill:#FFFFFF;" points="1750.665,997.714 1788.464,997.685 1788.464,783.493 1750.665,782.755 					"/>
					<polygon style="fill:#FFFFFF;" points="1682.794,997.768 1721.078,997.737 1721.078,814.153 1682.794,813.521 					"/>
				</g>
			</g>
		</g>
		<g>
			
				<linearGradient id="SVGID_00000070098127263318381870000007556358586670375311_" gradientUnits="userSpaceOnUse" x1="1988.7076" y1="2979.4597" x2="2035.9418" y2="1438.4111">
				<stop  offset="0" style="stop-color:#FFC444"/>
				<stop  offset="0.9964" style="stop-color:#F36F56"/>
			</linearGradient>
			<path style="fill:url(#SVGID_00000070098127263318381870000007556358586670375311_);" d="M2153.839,2257.982
				c-32.291,34.509-72.079,86.577-96.251,157.964c-21.509,63.52-18.756,107.219-47.43,119.556
				c-35.571,15.306-75.904-36.408-131.872-64.951c-56.887-29.012-152.188-45.442-316.885,25.587
				c-1.968,6.56-3.936,13.123-5.905,19.682c109.721,80.838,209.851,131.568,283.425,163.363
				c181.677,78.51,244.626,60.231,273.584,47.238c44.908-20.151,67.827-54.415,90.581-86.727
				c53.273-75.652,133.617-180.309,252.89-307.769C2355.263,2307.278,2254.553,2282.629,2153.839,2257.982z"/>
			
				<linearGradient id="SVGID_00000125598373160608828900000009615198202307228856_" gradientUnits="userSpaceOnUse" x1="1576.922" y1="2320.1577" x2="1476.5422" y2="2631.1379">
				<stop  offset="0.0036" style="stop-color:#E38DDD"/>
				<stop  offset="1" style="stop-color:#9571F6"/>
			</linearGradient>
			<path style="fill:url(#SVGID_00000125598373160608828900000009615198202307228856_);" d="M1581.281,2496.586
				c0,0-22.814-47.821-36.592-53.726c-13.777-5.905-113.427,137.402-113.427,137.402s3.564,9.903,39.96-9.24
				C1507.618,2551.879,1581.131,2515.324,1581.281,2496.586z"/>
			
				<linearGradient id="SVGID_00000057847210144243541690000007551827104355387317_" gradientUnits="userSpaceOnUse" x1="2545.2573" y1="2996.5186" x2="2592.4915" y2="1455.4695">
				<stop  offset="0" style="stop-color:#FFC444"/>
				<stop  offset="0.9964" style="stop-color:#F36F56"/>
			</linearGradient>
			<path style="fill:url(#SVGID_00000057847210144243541690000007551827104355387317_);" d="M2559.609,2134.71
				c80.048,24.232,215.14,80.328,267.364,203.969c21.539,50.997,26.279,107.08-21.905,343.256
				c-28.762,140.982-59.085,261.354-85.08,355.96c-7.638,1.803-15.281,3.607-22.919,5.411
				c-23.754-36.228-51.139-87.16-69.515-152.006c-28.735-101.404-20.747-185.017-17.087-214.085
				c12.278-97.514,43.021-114.55,41.06-159.669c-2.807-64.531-71.007-151.94-363.85-249.723
				C2378.321,2223.451,2468.967,2179.082,2559.609,2134.71z"/>
			
				<linearGradient id="SVGID_00000112620885386118348860000016896383138173589639_" gradientUnits="userSpaceOnUse" x1="2868.0093" y1="2736.9016" x2="2767.6294" y2="3047.8823">
				<stop  offset="0.0036" style="stop-color:#E38DDD"/>
				<stop  offset="1" style="stop-color:#9571F6"/>
			</linearGradient>
			<path style="fill:url(#SVGID_00000112620885386118348860000016896383138173589639_);" d="M2684.69,3032.099
				c0,0-8.111,52.36-0.059,65.004c8.052,12.643,171.141-49.557,171.141-49.557s2.638-10.189-38.215-14.892
				C2776.704,3027.949,2695.377,3016.706,2684.69,3032.099z"/>
			
				<linearGradient id="SVGID_00000111875859817108191450000014677888499654181802_" gradientUnits="userSpaceOnUse" x1="2826.7742" y1="1989.5245" x2="2744.1118" y2="678.7481">
				<stop  offset="0" style="stop-color:#FFC444"/>
				<stop  offset="0.9964" style="stop-color:#F36F56"/>
			</linearGradient>
			<path style="fill:url(#SVGID_00000111875859817108191450000014677888499654181802_);" d="M2544.801,1541.545
				c35.463-17.18,104.178,58.078,107.503,61.776c80.947,90.018,48.683,178.396,105.781,203.937
				c27.628,12.358,33.948-8.884,186.467-49.382c13.136-3.489,38.623-10.11,63.875-30.617c21.82-17.718,34.206-38.283,40.956-51.872
				c2.706-0.156,34.14-1.664,39.937,12.157c5.697,13.584-16.607,34.248-28.128,44.921c-18.66,17.288-36.481,25.958-38.488,26.94
				c-44.362,21.741-71.879,67.151-105.481,102.579c-22.4,23.621-97.524,102.831-176.853,98.796
				c-97.043-4.934-157.578-132.26-175.172-169.268C2518.396,1693.071,2504.71,1560.967,2544.801,1541.545z"/>
			
				<linearGradient id="SVGID_00000026866797382621565020000002259311101401628552_" gradientUnits="userSpaceOnUse" x1="2337.9224" y1="2605.834" x2="2257.2002" y2="2247.0701">
				<stop  offset="0" style="stop-color:#AB316D"/>
				<stop  offset="1" style="stop-color:#792D3D"/>
			</linearGradient>
			<path style="fill:url(#SVGID_00000026866797382621565020000002259311101401628552_);" d="M2126.283,2130.047
				c4.732,16.557,18.645,73.065-8.896,134.333c-18.41,40.956-46.849,65.148-61.961,76.267c17.714,3.144,44.328,9.16,74.701,21.56
				c137.426,56.097,189.273,176.449,252.026,159.517c8.042-2.17,19.709-7.525,31.688-22.778
				c24.21-74.416,48.417-148.834,72.628-223.25C2366.407,2227.146,2246.345,2178.597,2126.283,2130.047z"/>
			
				<linearGradient id="SVGID_00000165928551605394843450000004995638284652800174_" gradientUnits="userSpaceOnUse" x1="2114.6282" y1="2216.5056" x2="2730.7168" y2="2216.5056">
				<stop  offset="0" style="stop-color:#AB316D"/>
				<stop  offset="1" style="stop-color:#792D3D"/>
			</linearGradient>
			<path style="fill:url(#SVGID_00000165928551605394843450000004995638284652800174_);" d="M2116.442,2110.365
				c-10.552,40.37,27.094,83.634,57.079,118.094c44.642,51.307,85.114,62.914,198.791,131.871
				c39.988,24.257,71.948,45.246,92.507,59.047c79.832-31.593,134.228-71.784,167.3-100.379
				c38.407-33.208,112.12-96.941,96.443-141.713c-7.758-22.159-33.141-27.467-78.756-45.602
				c-101.879-40.506-114.988-69.586-173.546-93.639C2337.718,1981.134,2137.093,2031.357,2116.442,2110.365z"/>
			
				<linearGradient id="SVGID_00000075129924406406180940000014087217758961001122_" gradientUnits="userSpaceOnUse" x1="2644.1785" y1="1533.4482" x2="2132.0679" y2="2260.0923">
				<stop  offset="0" style="stop-color:#AA80F9"/>
				<stop  offset="0.9964" style="stop-color:#6165D7"/>
			</linearGradient>
			<path style="fill:url(#SVGID_00000075129924406406180940000014087217758961001122_);" d="M2283.742,1525.801
				c-30.534,24.268-37.727,50.701-71.614,147.427c-67.877,193.753-174.273,527.557-158.669,537.517
				c17.795,11.356,42.06-27.531,125.194-68.68c29.466-14.585,141.301-69.943,274.357-59.255
				c92.522,7.433,143.162,42.611,161.395,19.682c17.149-21.57-25.818-55.02-39.265-127.943
				c-19.079-103.459,48.879-136.596,43.77-275.787c-1.491-40.664-3.471-80.513-30.092-119.82
				c-40.994-60.523-110.444-75.498-132.529-80.259C2436.483,1494.412,2347.394,1475.205,2283.742,1525.801z"/>
			
				<linearGradient id="SVGID_00000003826077803136346970000004044394590428208304_" gradientUnits="userSpaceOnUse" x1="2434.3367" y1="1598.5222" x2="2482.8865" y2="1363.6464">
				<stop  offset="0" style="stop-color:#FFC444"/>
				<stop  offset="0.9964" style="stop-color:#F36F56"/>
			</linearGradient>
			<path style="fill:url(#SVGID_00000003826077803136346970000004044394590428208304_);" d="M2497.61,1420.951
				c-9.625,11.952-25.064,28.615-47.56,43.359c-38.204,25.039-65.471,24.042-66.12,33.854
				c-1.419,21.399,126.486,52.806,135.316,33.418c4.675-10.258-28.078-25.776-26.867-53.194c0.915-20.697,20.67-36.78,37.4-47.197
				C2519.057,1427.776,2508.332,1424.365,2497.61,1420.951z"/>
			
				<linearGradient id="SVGID_00000147940976599017547130000004380917905472198826_" gradientUnits="userSpaceOnUse" x1="2438.3623" y1="1748.8344" x2="1899.1606" y2="2156.98">
				<stop  offset="0" style="stop-color:#AA80F9"/>
				<stop  offset="0.9964" style="stop-color:#6165D7"/>
			</linearGradient>
			<path style="opacity:0.3;fill:url(#SVGID_00000147940976599017547130000004380917905472198826_);" d="M2411.581,1859.418
				c-25.757-70.024-107.499-66.299-149.778-119.822c-22.298-28.227-36.021-75.432-15.81-159.901
				c-8.938,21.222-18.741,50.366-33.865,93.533c-67.876,193.753-174.273,527.556-158.669,537.518
				c17.795,11.355,42.059-27.531,125.194-68.681c26.589-13.161,120.261-59.507,236.064-60.579
				c-11.295-22.315-16.404-42.841-18.114-61.056C2390.106,1951.232,2432.581,1916.509,2411.581,1859.418z"/>
			<g>
				
					<linearGradient id="SVGID_00000124144381840327809960000002225232533749690513_" gradientUnits="userSpaceOnUse" x1="12246.1875" y1="339.3142" x2="12179.5205" y2="169.9906" gradientTransform="matrix(-0.9998 -0.0198 -0.0198 0.9998 14684.2314 1429.3364)">
					<stop  offset="0" style="stop-color:#311944"/>
					<stop  offset="1" style="stop-color:#6B3976"/>
				</linearGradient>
				<path style="fill:url(#SVGID_00000124144381840327809960000002225232533749690513_);" d="M2534.649,1405.575
					c8.574-10.848,9.542-30.118,0.25-42.531c-7.997-10.682-20.935-12.483-28.681-13.564c-22.445-3.129-51.063,5.598-61.429,26.078
					c-6.142,12.138,5.918,37.943,7.792,42.575c2.124,5.238,6.15,7.112,9.824,11.121c5.091,5.559,13.057,14.397,26.052,29.169
					c1.136-4.242,2.836-9.486,5.473-15.151c1.016-2.181,5.089-10.696,11.111-17.694
					C2517.106,1411.551,2526.522,1415.856,2534.649,1405.575z"/>
				
					<linearGradient id="SVGID_00000118380227136748525650000010415559814548971446_" gradientUnits="userSpaceOnUse" x1="-10669.9727" y1="-487.3118" x2="-10673.0381" y2="-240.3206" gradientTransform="matrix(0.9992 -0.0414 0.0414 0.9992 13176.2549 1450.3167)">
					<stop  offset="0" style="stop-color:#FFC444"/>
					<stop  offset="0.9964" style="stop-color:#F36F56"/>
				</linearGradient>
				<path style="fill:url(#SVGID_00000118380227136748525650000010415559814548971446_);" d="M2469.72,1445.818
					c0,0,14.223,24.622,43.726,23.399c26.416-1.096,31.673-60.152,15.123-73.101c-5.522-4.319-16.737-6.323-25.949-3.974
					c-5.441,1.388-7.326,3.59-16.26,5.684c-8.243,1.933-10.534,0.971-13.056,2.992c-3.154,2.531-5.57,8.858-0.813,26.272
					c-4.912-5.214-10.906-7.311-15.233-5.391c-0.69,0.307-2.53,1.496-3.593,3.339
					C2449.817,1431.707,2455.784,1440.48,2469.72,1445.818z"/>
			</g>
			
				<linearGradient id="SVGID_00000136385777468288019120000009788493087141073848_" gradientUnits="userSpaceOnUse" x1="2159.2837" y1="2031.6183" x2="2076.6216" y2="720.842">
				<stop  offset="0" style="stop-color:#FFC444"/>
				<stop  offset="0.9964" style="stop-color:#F36F56"/>
			</linearGradient>
			<path style="fill:url(#SVGID_00000136385777468288019120000009788493087141073848_);" d="M2394.889,1525.183
				c15.219,30.446-36.243,103.194-101.306,132.489c-46.296,20.845-70.96,6.85-201.041,32.016
				c-40.556,7.846-68.619,15.1-81.789,38.377c-9.284,16.405-2.483,25.699-1.726,79.738c0.35,24.933,0.019,58.049-2.51,102.925
				c-2.095,37.191,1.891,56.135,9.26,70.226c14.597,27.901,36.497,33.473,36.581,55.045c0.065,16.251-12.282,33.56-23.961,34.185
				c-13.689,0.732-25.06-21.339-33.964-40.691c-10.633-23.108-13.339-42.74-13.651-44.954
				c-6.881-48.919-41.498-89.182-64.736-132.127c-31.034-57.356-61.891-142.637-38.969-198.793
				c25.172-61.659,103.728-79.039,260.771-113.783C2252.635,1514.441,2375.887,1487.172,2394.889,1525.183z"/>
		</g>
	</g>
</g>
</svg>
