<?xml version="1.0" encoding="utf-8"?>
<!-- Generator: Adobe Illustrator 27.5.0, SVG Export Plug-In . SVG Version: 6.00 Build 0)  -->
<svg version="1.1" xmlns="http://www.w3.org/2000/svg" xmlns:xlink="http://www.w3.org/1999/xlink" x="0px" y="0px"
	 viewBox="0 0 1200 1200" style="enable-background:new 0 0 1200 1200;" xml:space="preserve">
<g id="Background">
	<rect style="fill:#E1EFEC;" width="1200" height="1200"/>
</g>
<g id="Graphic_Elements">
	<g>
		<g>
			<g>
				<path style="fill:#79C9BC;" d="M920.799,544.755c-3.254,8.708-10.129,24.933-23.054,47.3c-3.3,5.683-6.967,11.825-11.092,18.287
					c-29.242,45.879-80.253,110.687-167.382,186.449l-119.304,103.72l-119.258-103.72
					c-79.521-69.116-128.929-129.112-159.133-173.936c-4.354-6.463-8.296-12.558-11.871-18.333
					c-17.829-28.875-26.675-49.5-30.525-59.767c-35.063-94.049,12.787-198.732,106.837-233.794
					c80.162-29.837,168.024,0.458,213.949,68.291c45.925-67.833,133.833-98.129,213.949-68.291
					C908.011,346.023,955.861,450.706,920.799,544.755z"/>
			</g>
			<path style="fill:none;" d="M903.632,538.341c-2.75,7.288-9.167,22.779-21.725,44.504c-3.896,6.646-7.288,12.237-10.725,17.646
				c-26.033,40.838-75.579,105.645-163.945,182.462l-107.249,93.271l-107.249-93.271
				c-65.954-57.291-118.433-114.629-155.971-170.362c-4.124-6.096-7.974-12.054-11.458-17.692
				c-17.14-27.775-25.528-47.391-28.966-56.558c-31.442-84.425,11.642-178.703,96.066-210.191
				c18.425-6.875,37.583-10.312,57.016-10.312c54.358,0,104.959,26.767,135.345,71.683l15.217,22.412l15.171-22.412
				c30.387-44.871,80.987-71.683,135.344-71.683c19.434,0,38.638,3.437,57.017,10.312c40.929,15.217,73.425,45.512,91.62,85.204
				C917.29,453.046,918.848,497.458,903.632,538.341z"/>
		</g>
		<path style="fill:#FFFFFF;" d="M813.937,310.963c-20.9-7.792-42.35-11.458-63.433-11.458c-29.883,0-59.032,7.379-84.928,21.083
			c-25.942,13.659-48.629,33.596-65.587,58.667c-33.963-50.141-90.796-79.75-150.562-79.75c-21.037,0-42.487,3.667-63.388,11.458
			c-94.048,35.062-141.899,139.745-106.836,233.795c3.85,10.266,12.696,30.891,30.523,59.764h-0.019
			c3.574,5.775,7.516,11.871,11.87,18.333h0.02c0,0.001,0,0.001,0.001,0.002c30.204,44.825,79.611,104.82,159.133,173.937
			l119.258,103.72l119.304-103.72c87.129-75.762,138.141-140.57,167.383-186.449c4.125-6.463,7.791-12.604,11.091-18.287
			c12.925-22.367,19.8-38.592,23.054-47.3C955.882,450.708,908.032,346.026,813.937,310.963z M707.237,782.953l-107.249,93.271
			l-107.249-93.271c-61.913-53.78-111.947-107.601-148.898-160.097h269.51l31.624-121.641l42.716,265.053l52.204-213.307
			l25.117,124.07l26.126-66.963l73.631,0.212C837.326,651.316,788.873,711.987,707.237,782.953z M903.632,538.341
			c-2.75,7.288-9.167,22.779-21.725,44.504c-1.917,3.27-3.71,6.281-5.449,9.144l-97.788-0.301l-8.066,20.579l-29.06-143.274
			l-50.141,205.011l-42.257-261.936l-49.959,192.453H331.427c-2.134-3.28-4.192-6.507-6.117-9.623
			c-17.14-27.775-25.528-47.391-28.966-56.558c-31.442-84.425,11.642-178.703,96.066-210.191
			c18.425-6.875,37.583-10.312,57.016-10.312c54.358,0,104.959,26.767,135.345,71.683l15.217,22.412l15.171-22.412
			c30.387-44.871,80.987-71.683,135.344-71.683c19.434,0,38.638,3.437,57.017,10.312c40.929,15.217,73.425,45.512,91.62,85.204
			C917.29,453.046,918.848,497.458,903.632,538.341z"/>
	</g>
</g>
</svg>
