<svg width="505" height="479" viewBox="0 0 505 479" fill="none" xmlns="http://www.w3.org/2000/svg">
<circle cx="290.5" cy="264.5" r="214.5" fill="#879B93"/>
<path d="M419.33 312.183C419.33 312.183 448.59 305.183 449.56 303.973L425.49 241.973C423.155 235.603 419.422 229.838 414.564 225.103C409.706 220.368 403.847 216.783 397.42 214.613C388.292 211.434 378.661 209.947 369 210.223L328.37 208.073C317.182 208.764 306.262 211.785 296.31 216.943C282.651 224.064 271.981 235.826 266.22 250.113L248 295.623L294 305.233L295.75 354.133L288.82 421.603H415.68L414.8 314.663L419.33 312.183Z" fill="#879B93"/>
<g opacity="0.3">
<path d="M444.55 295.873C444.55 296.013 437 298.493 427.55 301.403C418.1 304.313 410.48 306.573 410.44 306.403C410.4 306.233 417.98 303.783 427.44 300.863C436.9 297.943 444.51 295.733 444.55 295.873Z" fill="white"/>
</g>
<path d="M311.78 252.293C311.486 251.962 311.224 251.604 311 251.223C310.54 250.523 309.83 249.523 308.91 248.323C307.834 246.927 306.682 245.592 305.46 244.323C303.965 242.76 302.375 241.291 300.7 239.923C299.004 238.573 297.231 237.325 295.39 236.183C293.878 235.266 292.319 234.428 290.72 233.673C289.36 233.023 288.23 232.543 287.44 232.233C287.017 232.1 286.611 231.919 286.23 231.693C286.666 231.772 287.094 231.889 287.51 232.043C288.651 232.416 289.772 232.846 290.87 233.333C292.506 234.053 294.098 234.868 295.64 235.773C297.511 236.903 299.308 238.152 301.02 239.513C302.715 240.897 304.316 242.394 305.81 243.993C307.022 245.304 308.154 246.686 309.2 248.133C309.923 249.094 310.591 250.095 311.2 251.133C311.435 251.497 311.629 251.886 311.78 252.293Z" fill="#263238"/>
<path d="M305.79 267.093C305.93 267.093 304.51 282.033 302.62 300.433C300.73 318.833 299.08 333.743 298.94 333.723C298.8 333.703 300.21 318.783 302.11 300.383C304.01 281.983 305.68 267.073 305.79 267.093Z" fill="#263238"/>
<path d="M405.68 239.473C405.409 238.485 405.192 237.484 405.03 236.473C404.522 234.045 403.854 231.653 403.03 229.313C402.184 226.974 401.182 224.696 400.03 222.493C399.508 221.602 399.034 220.684 398.61 219.743C398.61 219.743 398.83 219.953 399.14 220.393C399.45 220.833 399.87 221.493 400.36 222.313C401.613 224.488 402.67 226.77 403.52 229.133C404.368 231.494 405.001 233.927 405.41 236.403C405.56 237.353 405.65 238.123 405.69 238.663C405.724 238.932 405.721 239.204 405.68 239.473Z" fill="#263238"/>
<path d="M408.24 291.623C408.119 291.14 408.039 290.648 408 290.153C407.87 289.213 407.72 287.833 407.55 286.153C407.22 282.753 406.87 278.033 406.69 272.823C406.51 267.613 406.52 262.873 406.61 259.453C406.66 257.743 406.71 256.363 406.77 255.453C406.77 254.955 406.82 254.46 406.92 253.973C406.978 254.464 406.998 254.958 406.98 255.453V259.473C406.98 262.883 407.03 267.603 407.21 272.813C407.39 278.023 407.68 282.723 407.92 286.133C408.03 287.763 408.12 289.133 408.2 290.133C408.262 290.627 408.275 291.126 408.24 291.623Z" fill="#263238"/>
<path d="M346.8 282.893C336.134 283.513 325.436 283.312 314.8 282.293V286.473H346.8V282.893Z" fill="white"/>
<g opacity="0.3">
<path d="M378.68 213.753C378.748 213.957 378.792 214.168 378.81 214.383L379.09 216.223C379.29 217.843 379.57 220.223 379.8 223.223C380.28 229.223 380.7 237.773 380.8 247.863V248.243L380.45 248.083C374.07 244.973 366.92 241.593 359.45 237.873L323.08 219.673L312.08 214.103L309.08 212.573L308.32 212.153C308.227 212.115 308.14 212.064 308.06 212.003C308.158 212.026 308.252 212.063 308.34 212.113L309.13 212.473L312.13 213.923L323.19 219.343L359.68 237.403C367.12 241.123 374.26 244.513 380.68 247.643L380.34 247.853C380.23 237.783 379.88 229.243 379.48 223.233C379.3 220.233 379.06 217.863 378.91 216.233C378.82 215.453 378.75 214.833 378.7 214.383C378.683 214.173 378.676 213.963 378.68 213.753Z" fill="white"/>
</g>
<g opacity="0.3">
<path d="M302.23 300.133C302.05 300.129 301.871 300.099 301.7 300.043L300.21 299.693L294.74 298.303C290.12 297.113 283.74 295.503 276.68 293.793C269.62 292.083 263.2 290.603 258.55 289.543L253.05 288.283L251.56 287.923C251.385 287.888 251.214 287.834 251.05 287.763C251.226 287.738 251.404 287.738 251.58 287.763L253.09 288.033C254.4 288.273 256.29 288.653 258.63 289.133C263.3 290.133 269.73 291.523 276.8 293.233C283.87 294.943 290.24 296.623 294.8 297.893C297.1 298.533 298.96 299.063 300.23 299.443L301.7 299.893C301.885 299.953 302.063 300.033 302.23 300.133Z" fill="white"/>
</g>
<path d="M373.05 206.183C373.05 206.033 375.8 207.473 378.45 211.403C381.1 215.333 383.51 221.403 384.88 228.403C385.51 231.704 385.901 235.046 386.05 238.403C386.05 239.943 386.12 241.403 386.05 242.773C385.98 244.143 385.96 245.413 385.84 246.573C385.72 247.733 385.6 248.763 385.5 249.693C385.4 250.623 385.22 251.383 385.11 252.023C385.048 252.709 384.886 253.383 384.63 254.023C384.569 253.355 384.596 252.683 384.71 252.023L384.92 249.683C384.98 248.753 385.04 247.683 385.1 246.573C385.16 245.463 385.1 244.163 385.19 242.813C385.28 241.463 385.12 240.013 385.07 238.503C384.867 235.213 384.457 231.94 383.84 228.703C382.794 222.816 380.766 217.147 377.84 211.933C376.9 210.394 375.782 208.971 374.51 207.693C373.996 207.216 373.509 206.712 373.05 206.183Z" fill="#263238"/>
<path d="M327.58 206.473C326.963 207.531 326.257 208.534 325.47 209.473C323.563 212.212 321.982 215.166 320.76 218.273C319.008 222.9 317.835 227.727 317.27 232.643C316.54 238.183 316.27 244.383 315.82 250.873C315.37 257.363 315.47 263.543 315.46 269.173C315.45 274.803 315.46 279.883 315.46 284.173C315.46 288.463 315.35 291.903 315.23 294.293C315.241 295.536 315.117 296.776 314.86 297.993C314.648 296.768 314.567 295.524 314.62 294.283C314.55 291.853 314.47 288.413 314.36 284.183C314.25 279.953 314.11 274.843 314.03 269.183C313.95 263.523 313.93 257.323 314.27 250.783C314.61 244.243 315.03 238.073 315.85 232.443C316.5 227.425 317.812 222.516 319.75 217.843C321.085 214.702 322.852 211.764 325 209.113C325.736 208.119 326.604 207.231 327.58 206.473Z" fill="#263238"/>
<path d="M394.82 290.063C394.657 288.971 394.591 287.866 394.62 286.763C394.56 284.633 394.51 281.553 394.47 277.763C394.47 275.853 394.47 273.763 394.41 271.543C394.35 269.323 394.41 266.903 394.28 264.443C394.212 261.894 393.317 259.438 391.73 257.443C390.858 256.432 389.786 255.613 388.581 255.038C387.376 254.463 386.064 254.144 384.73 254.103C382.004 254.11 379.377 255.129 377.36 256.963C375.496 258.703 374.2 260.965 373.64 263.453C373.02 265.833 372.76 268.223 372.39 270.453L371.39 276.593C370.79 280.343 370.28 283.383 369.91 285.473C369.773 286.569 369.545 287.653 369.23 288.713C369.225 287.606 369.319 286.502 369.51 285.413C369.76 283.303 370.15 280.253 370.66 276.483C370.92 274.593 371.21 272.533 371.51 270.323C371.81 268.113 372.07 265.733 372.69 263.233C373.279 260.546 374.675 258.104 376.69 256.233C378.872 254.229 381.718 253.104 384.68 253.073C386.168 253.109 387.631 253.458 388.975 254.097C390.319 254.736 391.513 255.651 392.48 256.783C394.199 258.941 395.161 261.604 395.22 264.363C395.37 266.923 395.22 269.293 395.22 271.533C395.22 273.773 395.17 275.853 395.14 277.753C395.14 281.553 395.03 284.633 394.96 286.753C395.003 287.858 394.957 288.965 394.82 290.063Z" fill="#263238"/>
<path d="M385.17 244.343C384.84 247.843 383.72 251.773 381.29 254.343C383.42 253.882 385.628 253.923 387.74 254.463C386.22 251.463 385.98 247.763 386.02 244.373" fill="#263238"/>
<path d="M394.85 267.093C394.66 267.093 394.55 265.413 393.27 263.093C392.521 261.764 391.535 260.584 390.36 259.613C388.947 258.425 387.253 257.619 385.44 257.273C383.617 256.973 381.748 257.159 380.02 257.813C378.592 258.336 377.277 259.131 376.15 260.153C374.21 261.913 373.57 263.513 373.4 263.423C373.23 263.333 373.7 261.653 375.64 259.623C376.77 258.453 378.133 257.533 379.64 256.923C381.519 256.152 383.575 255.917 385.58 256.243C387.573 256.621 389.425 257.533 390.94 258.883C392.175 259.957 393.176 261.275 393.88 262.753C395.11 265.313 394.94 267.103 394.85 267.093Z" fill="#263238"/>
<path d="M421.61 380.373C427.61 380.373 432.89 376.083 435.69 370.833C438.49 365.583 439.21 359.473 439.48 353.523C440.212 337.745 438.278 321.957 433.76 306.823L407.68 311.373L414.79 381.663L421.61 380.373Z" fill="#FFBE9D"/>
<path d="M316.05 389.123L401.03 386.033L421.64 286.453L332.13 291.423L316.05 389.123Z" fill="#263238"/>
<path d="M359.79 289.713L361.07 287.173L367.85 286.683C367.85 286.683 369.57 282.233 379.27 281.773C387.95 281.373 388.27 285.773 388.27 285.773H392.95V287.903L359.79 289.713Z" fill="#455A64"/>
<path d="M407.17 357.033L413.61 355.163C414.822 354.807 416.101 354.749 417.34 354.993C418.851 355.289 420.242 356.023 421.34 357.103C423.47 359.203 426.91 362.673 427.4 363.713C428.12 365.223 428.12 367.843 427.4 368.803C426.68 369.763 428.98 374.733 428.69 376.383C428.539 377.79 428.1 379.152 427.4 380.383C426.82 381.073 427.4 383.433 425.96 385.213C425.132 386.247 424.218 387.21 423.23 388.093C423.23 388.093 405.53 388.923 403.81 388.093C402.09 387.263 399.06 384.093 399.06 384.093C399.06 384.093 397.48 381.203 399.92 380.923L389.85 377.073C389.265 376.86 388.786 376.428 388.513 375.868C388.241 375.308 388.197 374.664 388.39 374.073C388.462 373.854 388.578 373.652 388.731 373.48C388.884 373.308 389.071 373.169 389.28 373.073C389.28 373.073 384.76 371.643 383.71 371.183C381.62 370.263 380.83 365.403 385.16 366.023C387.44 366.353 390.53 367.023 390.53 367.023C390.53 367.023 388.88 364.343 391.19 362.743C392.59 361.743 398.89 362.953 398.89 362.953L407.17 357.043V357.033Z" fill="#FFBE9D"/>
<path d="M409.41 383.593C407.634 383.647 405.863 383.383 404.18 382.813C402.441 382.424 400.8 381.682 399.36 380.633C399.43 380.513 401.54 381.543 404.36 382.313C407.18 383.083 409.43 383.473 409.41 383.593Z" fill="#EB996E"/>
<path d="M405.56 377.303C402.788 376.862 400.046 376.251 397.35 375.473C394.61 374.869 391.911 374.091 389.27 373.143C394.78 374.194 400.22 375.584 405.56 377.303Z" fill="#EB996E"/>
<path d="M407.68 371.043C401.752 370.014 395.889 368.642 390.12 366.933C396.048 367.961 401.911 369.334 407.68 371.043Z" fill="#EB996E"/>
<path d="M414.21 362.983C413.481 363.303 412.72 363.548 411.94 363.713L409.44 364.353L407.96 364.723C407.405 364.862 406.832 364.916 406.26 364.883C405.7 364.842 405.144 364.752 404.6 364.613L403.11 364.273L400.61 363.673C399.824 363.527 399.056 363.295 398.32 362.983C399.117 363.005 399.908 363.115 400.68 363.313L403.22 363.803C404.233 364.042 405.258 364.229 406.29 364.363C407.307 364.343 408.316 364.184 409.29 363.893L411.82 363.353C412.601 363.143 413.402 363.019 414.21 362.983Z" fill="#EB996E"/>
<path d="M415.34 366.373C415.4 366.373 415.64 366.553 415.83 367.033C416.087 367.67 416.112 368.378 415.9 369.033C415.698 369.681 415.282 370.241 414.72 370.623C414.29 370.903 413.97 370.943 413.94 370.883C413.91 370.823 414.94 370.203 415.4 368.883C415.572 368.052 415.551 367.194 415.34 366.373Z" fill="#EB996E"/>
<path d="M414.98 373.213C415.1 373.153 415.5 373.863 415.44 374.833C415.38 375.803 414.92 376.473 414.8 376.393C414.68 376.313 414.88 375.653 414.92 374.803C414.96 373.953 414.83 373.263 414.98 373.213Z" fill="#EB996E"/>
<path d="M415.08 380.633C415.21 380.583 415.48 381.063 415.35 381.693C415.22 382.323 414.8 382.693 414.69 382.563C414.58 382.433 414.75 382.083 414.84 381.563C414.93 381.043 414.94 380.673 415.08 380.633Z" fill="#EB996E"/>
<path d="M417.01 362.573C416.443 362.635 415.869 362.608 415.31 362.493L413.49 362.253C412.777 362.105 412.045 362.068 411.32 362.143C410.629 362.304 409.977 362.6 409.4 363.013C408.84 363.383 408.4 363.803 407.89 364.073C407.417 364.422 406.848 364.617 406.26 364.633C406.26 364.543 406.87 364.373 407.69 363.763C408.688 362.776 409.909 362.046 411.25 361.633C411.656 361.593 412.064 361.593 412.47 361.633C412.88 361.633 413.21 361.753 413.56 361.813L415.37 362.153C415.934 362.214 416.486 362.356 417.01 362.573Z" fill="#EB996E"/>
<path d="M427.23 380.703C427.349 380.282 427.499 379.871 427.68 379.473C428.501 377.576 428.618 375.448 428.01 373.473C427.81 372.593 427.4 371.713 427.18 370.663C427.048 369.568 427.123 368.459 427.4 367.393C427.518 366.289 427.316 365.175 426.82 364.183C426.316 363.166 425.699 362.21 424.98 361.333C424.29 360.463 423.62 359.613 422.98 358.853C421.849 357.46 420.416 356.342 418.79 355.583C417.686 355.09 416.471 354.904 415.27 355.043C414.43 355.163 413.99 355.383 413.97 355.343C413.95 355.303 414.07 355.263 414.28 355.153C414.601 355.014 414.937 354.91 415.28 354.843C416.522 354.625 417.801 354.76 418.97 355.233C420.674 355.974 422.181 357.104 423.37 358.533C424.07 359.303 424.75 360.143 425.45 361.013C426.198 361.937 426.839 362.944 427.36 364.013C427.9 365.095 428.112 366.311 427.97 367.513C427.706 368.527 427.622 369.579 427.72 370.623C427.91 371.623 428.31 372.513 428.5 373.413C428.721 374.251 428.832 375.115 428.83 375.983C428.782 377.231 428.479 378.456 427.94 379.583C427.754 379.986 427.515 380.362 427.23 380.703Z" fill="#EB996E"/>
<path d="M367.74 331.473L297.97 342.553L301.07 306.143L262.27 298.643L257.55 352.553L256.73 364.913C256.46 369.03 257.25 373.147 259.023 376.872C260.796 380.597 263.494 383.806 266.86 386.193C269.929 388.369 273.463 389.798 277.182 390.368C280.9 390.937 284.701 390.631 288.28 389.473L303.28 384.583L376.4 358.583" fill="#FFBE9D"/>
<path d="M409.96 323.943C410.008 323.654 409.993 323.358 409.914 323.076C409.835 322.793 409.696 322.532 409.505 322.31C409.314 322.088 409.077 321.91 408.81 321.789C408.543 321.669 408.253 321.609 407.96 321.613C404.03 321.613 393.41 321.613 389.66 322.723C385.02 324.033 367.73 331.453 367.73 331.453L375.06 358.453L401.59 358.733C401.59 358.733 411.28 354.283 411.4 352.353C411.39 351.146 411.31 349.94 411.16 348.743L414.09 347.173C418.45 344.413 415.65 339.103 415.65 339.103C415.65 339.103 418.65 337.423 418.81 334.383C418.883 333.492 418.702 332.6 418.287 331.809C417.873 331.017 417.243 330.36 416.47 329.913C416.47 329.913 417.67 325.633 415.47 324.483C413.27 323.333 409.47 324.803 409.47 324.803C409.723 324.577 409.895 324.275 409.96 323.943Z" fill="#FFBE9D"/>
<path d="M411.49 324.383C411.234 324.522 410.957 324.62 410.67 324.673C410.14 324.823 409.35 324.993 408.38 325.163C406.38 325.513 403.72 325.803 400.73 326.163C398.182 326.392 395.65 326.78 393.15 327.323C391.24 327.763 390.15 328.323 390.15 328.323C390.368 328.129 390.614 327.971 390.88 327.853C391.586 327.503 392.322 327.218 393.08 327.003C395.576 326.354 398.121 325.912 400.69 325.683C403.69 325.363 406.4 325.133 408.34 324.883C410.28 324.633 411.46 324.313 411.49 324.383Z" fill="#EB996E"/>
<path d="M416.48 329.803C415.913 330.22 415.281 330.541 414.61 330.753C413.043 331.358 411.427 331.83 409.78 332.163C407.85 332.563 406.1 332.823 404.78 332.993C404.099 333.129 403.404 333.183 402.71 333.153C402.71 332.983 405.81 332.423 409.63 331.653C411.256 331.32 412.865 330.906 414.45 330.413C415.107 330.149 415.786 329.945 416.48 329.803Z" fill="#EB996E"/>
<path d="M415.68 339.203C412.027 340.887 408.062 341.786 404.04 341.843C404.04 341.683 406.68 341.353 409.88 340.623C413.08 339.893 415.68 339.053 415.68 339.203Z" fill="#EB996E"/>
<path d="M414.1 347.223C411.311 348.64 408.228 349.383 405.1 349.393C408.105 348.688 411.105 347.965 414.1 347.223Z" fill="#EB996E"/>
<path d="M400.26 342.473C400.26 342.533 399.99 342.703 399.45 342.753C398.739 342.813 398.03 342.618 397.45 342.203C396.866 341.789 396.445 341.184 396.26 340.493C396.13 339.963 396.2 339.633 396.26 339.633C396.32 339.633 396.54 340.923 397.74 341.773C398.512 342.205 399.376 342.445 400.26 342.473Z" fill="#EB996E"/>
<path d="M399.68 350.813C399.68 350.953 398.68 351.013 397.73 350.203C396.78 349.393 396.73 348.333 396.9 348.343C397.07 348.353 397.31 349.143 398.08 349.813C398.85 350.483 399.68 350.663 399.68 350.813Z" fill="#EB996E"/>
<path d="M396.68 333.783C396.74 333.923 396.01 334.153 395.33 333.633C394.65 333.113 394.67 332.353 394.82 332.373C394.97 332.393 395.14 332.863 395.64 333.223C396.14 333.583 396.61 333.643 396.68 333.783Z" fill="#EB996E"/>
<path d="M367.74 331.473L367.95 331.353L368.58 331.063L371.04 329.973C373.2 329.043 376.33 327.693 380.3 326.063C382.3 325.263 384.46 324.373 386.86 323.483C388.093 322.988 389.364 322.594 390.66 322.303C392.056 322.055 393.465 321.881 394.88 321.783C397.78 321.553 400.88 321.453 404.06 321.413H406.49H407.73C408.187 321.39 408.642 321.486 409.05 321.693C409.485 321.905 409.835 322.26 410.04 322.698C410.246 323.137 410.295 323.632 410.18 324.103C410.118 324.245 410.013 324.363 409.88 324.443L409.58 324.633L408.98 324.913C408.57 325.088 408.149 325.235 407.72 325.353C407.655 325.368 407.587 325.358 407.529 325.325C407.471 325.291 407.429 325.237 407.41 325.173C407.401 325.14 407.398 325.107 407.403 325.074C407.407 325.04 407.418 325.008 407.435 324.98C407.451 324.951 407.474 324.925 407.5 324.905C407.527 324.885 407.558 324.871 407.59 324.863C408.674 324.548 409.776 324.301 410.89 324.123C412.045 323.912 413.224 323.871 414.39 324.003C415.024 324.073 415.623 324.331 416.11 324.743C416.56 325.205 416.857 325.795 416.96 326.433C417.139 327.652 417.061 328.895 416.73 330.083L416.6 329.773C417.172 330.103 417.672 330.545 418.07 331.073C418.566 331.743 418.894 332.522 419.026 333.345C419.158 334.168 419.091 335.011 418.83 335.803C418.279 337.323 417.219 338.605 415.83 339.433L415.93 339.083C416.651 340.509 416.942 342.114 416.77 343.703C416.658 344.478 416.376 345.219 415.943 345.873C415.511 346.526 414.94 347.076 414.27 347.483L411.35 349.053L411.48 348.803C411.55 349.503 411.62 350.203 411.67 350.893C411.67 351.233 411.67 351.583 411.72 351.893C411.72 352.063 411.72 352.243 411.72 352.423C411.693 352.626 411.621 352.821 411.51 352.993C411.089 353.552 410.579 354.038 410 354.433C409.46 354.833 408.9 355.193 408.35 355.533C406.214 356.795 404.014 357.946 401.76 358.983H401.67L382.36 358.683L377.02 358.573L375.62 358.523C375.46 358.54 375.3 358.54 375.14 358.523C375.3 358.507 375.46 358.507 375.62 358.523H377.02H382.36L401.67 358.633H401.58C403.816 357.594 405.995 356.439 408.11 355.173C408.65 354.843 409.2 354.483 409.72 354.093C410.249 353.735 410.716 353.293 411.1 352.783C411.176 352.679 411.227 352.559 411.25 352.433V351.943C411.25 351.603 411.25 351.263 411.25 350.943C411.2 350.263 411.13 349.573 411.05 348.883C411.043 348.834 411.052 348.784 411.076 348.741C411.099 348.698 411.136 348.663 411.18 348.643L414.1 347.063C414.708 346.694 415.228 346.196 415.62 345.602C416.013 345.009 416.269 344.337 416.37 343.633C416.518 342.149 416.241 340.654 415.57 339.323C415.541 339.263 415.537 339.194 415.557 339.131C415.578 339.067 415.622 339.014 415.68 338.983C416.969 338.223 417.957 337.044 418.48 335.643C418.713 334.929 418.772 334.17 418.652 333.429C418.532 332.688 418.236 331.986 417.79 331.383C417.441 330.92 417.002 330.532 416.5 330.243C416.449 330.214 416.408 330.169 416.384 330.114C416.361 330.06 416.356 330 416.37 329.943C416.676 328.833 416.75 327.672 416.59 326.533C416.529 325.999 416.28 325.505 415.888 325.139C415.496 324.773 414.986 324.558 414.45 324.533C413.337 324.408 412.211 324.448 411.11 324.653C410.015 324.817 408.933 325.054 407.87 325.363L407.74 324.873C408.142 324.768 408.537 324.634 408.92 324.473C409.11 324.393 409.31 324.303 409.48 324.213C409.65 324.123 409.83 323.943 409.89 323.963C409.926 323.605 409.871 323.243 409.73 322.913C409.557 322.584 409.288 322.316 408.96 322.143C408.623 321.972 408.247 321.896 407.87 321.923H404.21C401.01 321.923 397.94 322.043 395.05 322.253C393.653 322.345 392.261 322.509 390.88 322.743C389.603 323.028 388.35 323.409 387.13 323.883C384.74 324.753 382.55 325.623 380.56 326.403L371.25 330.173L368.76 331.173L368.11 331.433L367.74 331.473Z" fill="#EB996E"/>
<path d="M298.25 342.473C296.356 343.737 294.626 345.232 293.1 346.923C291.711 348.73 290.555 350.706 289.66 352.803C289.709 352.11 289.885 351.432 290.18 350.803C291.411 347.709 293.593 345.087 296.41 343.313C296.969 342.927 297.592 342.642 298.25 342.473Z" fill="#EB996E"/>
<path d="M389.36 126.723C388.666 117.894 384.674 109.65 378.177 103.631C371.681 97.6125 363.156 94.2606 354.3 94.2426H352.47C332.79 95.3526 322.73 112.683 324.39 132.333L327.78 211.083C327.807 211.726 328.006 212.349 328.359 212.888C328.711 213.427 329.202 213.86 329.78 214.143L373.96 234.873L372.68 193.543C372.68 193.543 391.61 190.643 391.88 171.723C391.96 162.593 390.68 143.753 389.36 126.723Z" fill="#FFBE9D"/>
<path d="M372.79 193.473C364.004 193.464 355.406 190.93 348.02 186.173C348.02 186.173 353.82 199.793 372.7 198.173L372.79 193.473Z" fill="#EB996E"/>
<path d="M382.68 138.473C382.683 139.176 382.412 139.853 381.925 140.361C381.438 140.868 380.773 141.167 380.07 141.193C379.726 141.221 379.38 141.18 379.052 141.072C378.724 140.964 378.421 140.791 378.162 140.563C377.902 140.335 377.691 140.058 377.542 139.747C377.392 139.435 377.306 139.097 377.29 138.753C377.282 138.049 377.549 137.371 378.035 136.862C378.521 136.354 379.187 136.056 379.89 136.033C380.234 136.005 380.58 136.047 380.908 136.156C381.236 136.265 381.539 136.438 381.799 136.665C382.059 136.892 382.271 137.169 382.422 137.48C382.573 137.79 382.661 138.128 382.68 138.473Z" fill="#263238"/>
<path d="M354.08 139.353C354.088 140.058 353.819 140.738 353.331 141.246C352.843 141.755 352.175 142.052 351.47 142.073C351.126 142.1 350.781 142.058 350.453 141.949C350.126 141.84 349.824 141.667 349.565 141.44C349.306 141.212 349.095 140.935 348.944 140.625C348.794 140.314 348.708 139.977 348.69 139.633C348.684 138.928 348.954 138.25 349.442 137.742C349.929 137.234 350.596 136.936 351.3 136.913C351.644 136.885 351.989 136.927 352.317 137.036C352.644 137.145 352.946 137.318 353.205 137.546C353.464 137.773 353.675 138.05 353.826 138.361C353.976 138.671 354.062 139.008 354.08 139.353Z" fill="#263238"/>
<path d="M367.21 158.033C367.21 157.873 369 157.563 371.93 157.193C372.67 157.113 373.38 156.973 373.5 156.463C373.567 155.696 373.396 154.928 373.01 154.263L370.83 148.603C367.83 140.603 365.6 133.933 365.93 133.813C366.26 133.693 368.93 140.123 372.01 148.183L374.1 153.873C374.566 154.768 374.7 155.798 374.48 156.783C374.372 157.045 374.204 157.279 373.991 157.466C373.778 157.653 373.524 157.789 373.25 157.863C372.839 157.974 372.416 158.035 371.99 158.043C369.05 158.193 367.22 158.203 367.21 158.033Z" fill="#263238"/>
<path d="M358.68 160.033C359.15 160.033 359.15 163.153 361.85 165.403C364.55 167.653 367.9 167.303 367.93 167.743C367.93 167.943 367.18 168.363 365.76 168.393C363.91 168.417 362.111 167.786 360.68 166.613C359.311 165.487 358.433 163.873 358.23 162.113C358.08 160.793 358.43 160.013 358.68 160.033Z" fill="#263238"/>
<path d="M357.954 128.67C357.664 129.46 354.764 129.08 351.354 129.49C347.944 129.9 345.184 130.82 344.724 130.11C344.524 129.77 345.004 129.02 346.124 128.26C347.603 127.31 349.285 126.724 351.034 126.55C352.779 126.342 354.548 126.554 356.194 127.17C357.444 127.68 358.074 128.3 357.954 128.67Z" fill="#263238"/>
<path d="M384.704 131.17C384.184 131.82 382.184 131.17 379.774 131.1C377.364 131.03 375.334 131.53 374.864 130.84C374.654 130.51 374.984 129.84 375.864 129.22C377.062 128.477 378.454 128.104 379.863 128.151C381.273 128.197 382.637 128.66 383.784 129.48C384.644 130.16 384.924 130.84 384.704 131.17Z" fill="#263238"/>
<path d="M327.22 146.333C326.9 146.193 314.22 142.463 314.62 155.403C315.02 168.343 327.91 165.273 327.92 164.903C327.93 164.533 327.22 146.333 327.22 146.333Z" fill="#FFBE9D"/>
<path d="M324.96 160.123C324.9 160.123 324.74 160.283 324.36 160.473C323.832 160.718 323.231 160.75 322.68 160.563C321.3 160.093 320.08 157.963 319.95 155.633C319.887 154.527 320.068 153.421 320.48 152.393C320.589 151.984 320.797 151.608 321.084 151.298C321.372 150.988 321.731 150.753 322.13 150.613C322.386 150.538 322.66 150.554 322.906 150.657C323.152 150.761 323.355 150.947 323.48 151.183C323.66 151.543 323.59 151.803 323.65 151.823C323.71 151.843 323.93 151.603 323.81 151.073C323.722 150.754 323.533 150.473 323.27 150.273C322.908 150.015 322.459 149.911 322.02 149.983C321.492 150.102 321.003 150.356 320.6 150.718C320.198 151.08 319.894 151.54 319.72 152.053C319.204 153.19 318.974 154.436 319.05 155.683C319.21 158.293 320.62 160.683 322.5 161.173C322.843 161.256 323.2 161.262 323.546 161.191C323.891 161.12 324.217 160.974 324.5 160.763C324.94 160.473 325 160.143 324.96 160.123Z" fill="#EB996E"/>
<path d="M335.68 107.893L389.6 109.083C387.765 105.417 385.043 102.268 381.68 99.9226C374.67 94.4922 366.123 91.4158 357.26 91.1326C348.47 90.9726 330.56 101.693 324.19 107.753C319.09 112.603 319.13 116.803 319.13 116.803C318.32 123.803 322.23 131.743 323.79 138.613C324.59 142.153 326.14 152.863 326.14 152.863C329.14 152.863 330.21 150.493 329.76 147.553L329.21 136.023C329.21 136.023 339.31 128.843 334.52 115.703C333.78 114.653 332.14 109.853 335.68 107.893Z" fill="#263238"/>
<path d="M347.02 148.793C346.977 148.794 346.933 148.787 346.893 148.771C346.852 148.756 346.815 148.733 346.784 148.703C346.752 148.673 346.727 148.638 346.709 148.598C346.691 148.559 346.681 148.516 346.68 148.473C346.659 148.386 346.672 148.295 346.716 148.219C346.761 148.142 346.834 148.086 346.92 148.063C347.01 148.051 347.101 148.075 347.174 148.129C347.246 148.183 347.295 148.263 347.31 148.353C347.325 148.401 347.329 148.452 347.322 148.502C347.315 148.552 347.297 148.599 347.269 148.641C347.242 148.684 347.205 148.719 347.162 148.745C347.119 148.771 347.07 148.788 347.02 148.793Z" fill="#EB996E"/>
<path d="M352.58 147.543C352.4 147.543 352.23 147.433 352.18 147.213C352.154 147.12 352.165 147.021 352.209 146.935C352.254 146.85 352.329 146.785 352.42 146.753C352.517 146.747 352.612 146.78 352.684 146.843C352.757 146.907 352.802 146.996 352.81 147.093C352.839 147.183 352.83 147.281 352.787 147.365C352.744 147.449 352.67 147.513 352.58 147.543Z" fill="#EB996E"/>
<path d="M356.32 147.473C356.14 147.473 355.97 147.283 355.93 146.993C355.89 146.703 356.01 146.453 356.19 146.433C356.37 146.413 356.53 146.623 356.57 146.913C356.61 147.203 356.49 147.473 356.32 147.473Z" fill="#EB996E"/>
<path d="M349.74 152.283C349.57 152.283 349.42 152.193 349.42 152.083C349.42 151.973 349.57 151.873 349.74 151.873C349.91 151.873 350.06 151.973 350.06 152.083C350.06 152.193 349.92 152.283 349.74 152.283Z" fill="#EB996E"/>
<path d="M354.84 151.113C354.744 151.121 354.65 151.09 354.577 151.028C354.503 150.966 354.458 150.878 354.45 150.783C354.442 150.687 354.472 150.592 354.534 150.519C354.596 150.446 354.684 150.401 354.78 150.393C354.825 150.391 354.869 150.399 354.911 150.415C354.953 150.43 354.991 150.454 355.023 150.485C355.056 150.516 355.082 150.552 355.1 150.593C355.119 150.634 355.129 150.678 355.13 150.723C355.142 150.813 355.118 150.903 355.064 150.976C355.01 151.049 354.929 151.098 354.84 151.113Z" fill="#EB996E"/>
<path d="M381.35 148.003C381.306 148.01 381.261 148.008 381.217 147.997C381.174 147.986 381.133 147.966 381.098 147.939C381.062 147.912 381.033 147.878 381.011 147.839C380.989 147.8 380.975 147.757 380.97 147.713C380.948 147.625 380.961 147.533 381.006 147.454C381.05 147.376 381.124 147.318 381.21 147.293C381.3 147.281 381.391 147.305 381.464 147.359C381.536 147.413 381.585 147.493 381.6 147.583C381.612 147.627 381.615 147.673 381.609 147.718C381.603 147.763 381.587 147.806 381.564 147.846C381.541 147.885 381.51 147.919 381.473 147.946C381.436 147.973 381.394 147.992 381.35 148.003Z" fill="#EB996E"/>
<path d="M385.14 147.663C385.059 147.689 384.973 147.69 384.891 147.665C384.81 147.64 384.739 147.59 384.687 147.523C384.635 147.456 384.606 147.374 384.602 147.289C384.599 147.204 384.622 147.121 384.668 147.049C384.715 146.978 384.782 146.923 384.861 146.892C384.94 146.861 385.027 146.855 385.109 146.875C385.192 146.895 385.266 146.94 385.322 147.004C385.377 147.068 385.412 147.148 385.42 147.233C385.438 147.327 385.419 147.424 385.367 147.504C385.315 147.584 385.233 147.641 385.14 147.663Z" fill="#EB996E"/>
<path d="M378.01 148.093C377.933 148.111 377.852 148.1 377.783 148.061C377.714 148.022 377.663 147.958 377.64 147.883C377.623 147.799 377.639 147.712 377.686 147.641C377.733 147.57 377.806 147.52 377.89 147.503C377.973 147.485 378.06 147.502 378.132 147.549C378.203 147.596 378.253 147.669 378.27 147.753C378.279 147.832 378.256 147.911 378.208 147.975C378.16 148.038 378.089 148.08 378.01 148.093Z" fill="#EB996E"/>
<path d="M380.81 151.883C380.745 151.925 380.668 151.947 380.59 151.945C380.512 151.942 380.437 151.916 380.375 151.869C380.312 151.823 380.266 151.758 380.241 151.684C380.217 151.611 380.215 151.531 380.238 151.456C380.26 151.382 380.304 151.316 380.365 151.267C380.426 151.219 380.501 151.19 380.579 151.185C380.656 151.181 380.734 151.2 380.8 151.241C380.866 151.281 380.919 151.341 380.95 151.413C380.993 151.494 381.002 151.588 380.976 151.676C380.95 151.764 380.89 151.838 380.81 151.883Z" fill="#EB996E"/>
<path d="M384.04 151.243C383.964 151.228 383.896 151.184 383.851 151.121C383.807 151.058 383.788 150.979 383.8 150.903C383.835 150.837 383.892 150.785 383.961 150.756C384.029 150.727 384.106 150.722 384.177 150.741C384.249 150.761 384.312 150.805 384.356 150.865C384.401 150.925 384.423 150.998 384.42 151.073C384.391 151.145 384.335 151.203 384.264 151.234C384.193 151.266 384.113 151.269 384.04 151.243Z" fill="#EB996E"/>
<path d="M323.86 108.473C323.259 106.083 323.22 103.587 323.747 101.18C324.273 98.7725 325.351 96.5203 326.894 94.5997C328.438 92.6792 330.406 91.1427 332.643 90.1108C334.881 89.0789 337.327 88.5798 339.79 88.6526C342.31 88.7526 344.79 89.4626 347.31 89.1926C351.98 88.6826 355.58 84.9426 359.91 83.1226C363.328 81.7902 367.093 81.6394 370.607 82.694C374.121 83.7486 377.181 85.9482 379.3 88.9426C380.94 91.3926 382.01 94.4226 384.53 95.9426C386.7 97.2726 389.44 97.1626 391.88 97.9426C396.82 99.4226 400.2 104.673 399.94 109.823C399.731 112.402 398.818 114.874 397.299 116.969C395.781 119.064 393.716 120.701 391.33 121.703C388.93 122.661 386.345 123.068 383.766 122.895C381.188 122.722 378.681 121.973 376.43 120.703C372.36 118.433 368.72 114.573 364.06 114.703C359.24 114.843 355.06 119.383 350.3 118.443C347.82 117.953 345.91 116.043 344.09 114.283C342.27 112.523 340.19 110.733 337.66 110.583C335.13 110.433 333.82 113.903 334.73 116.263L323.86 108.473Z" fill="#263238"/>
<path d="M388.58 102.233C388.554 102.298 388.524 102.361 388.49 102.423C388.397 102.602 388.293 102.775 388.18 102.943C387.742 103.594 387.221 104.186 386.63 104.703C385.69 105.524 384.6 106.156 383.42 106.563C381.846 107.1 380.156 107.201 378.53 106.853C376.546 106.434 374.742 105.406 373.37 103.913C371.9 102.303 371.02 100.133 369.65 98.2326C368.979 97.2501 368.085 96.4412 367.04 95.8726C365.928 95.3227 364.7 95.0515 363.46 95.0826C362.175 95.1211 360.917 95.4638 359.79 96.0826C358.643 96.7319 357.705 97.6967 357.09 98.8626C356.44 100.053 355.97 101.353 355.19 102.503C354.82 103.101 354.313 103.603 353.712 103.968C353.111 104.333 352.431 104.55 351.73 104.603C350.397 104.623 349.089 104.247 347.97 103.523C346.917 102.861 345.956 102.064 345.11 101.153C343.44 99.4726 341.8 97.7926 339.76 97.3426C338.818 97.16 337.848 97.1787 336.914 97.3976C335.98 97.6165 335.103 98.0306 334.34 98.6126C333.038 99.5591 332.005 100.827 331.34 102.293C330.831 103.401 330.455 104.566 330.22 105.763C330.02 106.763 329.93 107.523 329.87 108.053C329.848 108.325 329.808 108.596 329.75 108.863C329.74 108.793 329.74 108.722 329.75 108.653C329.75 108.513 329.75 108.313 329.75 108.043C329.792 107.264 329.882 106.49 330.02 105.723C330.204 104.502 330.54 103.31 331.02 102.173C331.668 100.647 332.702 99.3172 334.02 98.3126C334.82 97.6851 335.746 97.2364 336.734 96.9966C337.723 96.7569 338.751 96.7316 339.75 96.9226C341.96 97.3926 343.67 99.1526 345.33 100.813C346.157 101.687 347.091 102.453 348.11 103.093C349.146 103.763 350.357 104.111 351.59 104.093C352.211 104.039 352.812 103.842 353.343 103.515C353.874 103.189 354.322 102.743 354.65 102.213C355.38 101.133 355.85 99.8426 356.52 98.6126C357.181 97.3535 358.192 96.3118 359.43 95.6126C360.632 94.9586 361.972 94.5988 363.34 94.5626C364.664 94.5354 365.975 94.8306 367.16 95.4226C368.27 96.0317 369.219 96.8953 369.93 97.9426C371.34 99.9426 372.18 102.063 373.58 103.623C374.884 105.062 376.603 106.062 378.5 106.483C380.063 106.843 381.695 106.771 383.22 106.273C384.377 105.902 385.452 105.315 386.39 104.543C387.219 103.872 387.955 103.096 388.58 102.233Z" fill="#455A64"/>
<path d="M398.35 102.473C398.48 102.791 398.555 103.129 398.57 103.473C398.648 104.444 398.557 105.422 398.3 106.363C397.916 107.759 397.234 109.056 396.3 110.163C395.134 111.509 393.678 112.572 392.04 113.273C389.061 114.486 385.805 114.852 382.63 114.333C381.68 114.199 380.739 114.012 379.81 113.773C379.461 113.711 379.124 113.596 378.81 113.433C378.81 113.353 380.28 113.713 382.68 113.963C385.78 114.365 388.931 113.962 391.83 112.793C393.399 112.125 394.802 111.122 395.94 109.853C396.847 108.803 397.528 107.577 397.94 106.253C398.286 105.024 398.425 103.747 398.35 102.473Z" fill="#455A64"/>
<path d="M306.32 310.783C306.526 312.826 307.31 314.769 308.58 316.383C309.74 317.893 312.09 319.383 313.98 319.253C315.404 319.325 316.823 319.027 318.097 318.387C319.371 317.748 320.458 316.788 321.25 315.603C323.56 311.943 324.12 304.313 322.25 299.803C320.98 296.703 318.12 293.803 314.77 293.733C310.37 293.633 307.61 296.813 306.67 300.033" fill="#E0E0E0"/>
<path d="M306.68 300.033C306.827 299.271 307.104 298.54 307.5 297.873C307.932 297.067 308.489 296.334 309.15 295.703C310.026 294.856 311.093 294.232 312.26 293.883C312.938 293.676 313.641 293.561 314.35 293.543C315.125 293.5 315.902 293.602 316.64 293.843C318.254 294.411 319.673 295.427 320.73 296.773C321.913 298.227 322.735 299.94 323.13 301.773C323.553 303.719 323.705 305.715 323.58 307.703C323.37 310.833 322.76 313.953 321.02 316.333C320.164 317.455 319.015 318.32 317.7 318.833C316.51 319.31 315.231 319.525 313.95 319.463C313.009 319.47 312.081 319.243 311.25 318.803C310.522 318.423 309.849 317.945 309.25 317.383C308.302 316.447 307.551 315.332 307.04 314.103C306.707 313.325 306.472 312.509 306.34 311.673C306.306 311.454 306.286 311.234 306.28 311.013C306.263 310.937 306.263 310.858 306.28 310.783C306.473 311.895 306.809 312.977 307.28 314.003C307.818 315.176 308.571 316.237 309.5 317.133C310.104 317.661 310.777 318.105 311.5 318.453C312.272 318.851 313.131 319.054 314 319.043C315.267 319.106 316.531 318.866 317.687 318.345C318.843 317.823 319.859 317.034 320.65 316.043C322.26 313.813 322.88 310.743 323.08 307.683C323.29 303.683 322.63 299.743 320.38 297.083C319.383 295.804 318.05 294.827 316.53 294.263C315.837 294.033 315.109 293.928 314.38 293.953C313.703 293.959 313.031 294.057 312.38 294.243C311.26 294.56 310.232 295.139 309.38 295.933C308.714 296.523 308.141 297.211 307.68 297.973C307.308 298.64 306.974 299.327 306.68 300.033Z" fill="#263238"/>
<path d="M303.98 310.983C304.188 313.026 304.971 314.968 306.24 316.583C307.4 318.093 309.75 319.583 311.64 319.453C313.064 319.525 314.483 319.227 315.757 318.587C317.031 317.948 318.118 316.988 318.91 315.803C321.21 312.133 321.78 304.513 319.91 300.003C318.64 296.893 315.79 294.003 312.44 293.933C310.579 293.917 308.767 294.529 307.297 295.67C305.827 296.812 304.785 298.416 304.34 300.223" fill="#E0E0E0"/>
<path d="M304.36 300.223C304.508 299.464 304.785 298.737 305.18 298.073C305.608 297.264 306.166 296.531 306.83 295.903C308.227 294.55 310.086 293.778 312.03 293.743C312.805 293.7 313.582 293.802 314.32 294.043C315.936 294.608 317.355 295.625 318.41 296.973C319.593 298.427 320.415 300.14 320.81 301.973C321.235 303.919 321.383 305.915 321.25 307.903C321.05 311.033 320.44 314.143 318.7 316.533C317.844 317.655 316.695 318.52 315.38 319.033C314.19 319.51 312.911 319.725 311.63 319.663C310.688 319.667 309.761 319.436 308.93 318.993C308.198 318.622 307.525 318.147 306.93 317.583C305.98 316.645 305.228 315.526 304.72 314.293C304.381 313.52 304.146 312.707 304.02 311.873C303.986 311.654 303.966 311.434 303.96 311.213C303.943 311.137 303.943 311.058 303.96 310.983C304.154 312.091 304.49 313.17 304.96 314.193C305.491 315.372 306.245 316.438 307.18 317.333C307.784 317.861 308.456 318.305 309.18 318.653C309.954 319.047 310.811 319.249 311.68 319.243C312.947 319.306 314.211 319.066 315.367 318.545C316.523 318.023 317.539 317.234 318.33 316.243C319.94 314.003 320.56 310.943 320.75 307.883C320.97 303.883 320.31 299.943 318.05 297.283C317.062 295.999 315.731 295.021 314.21 294.463C313.517 294.233 312.789 294.128 312.06 294.153C311.383 294.161 310.711 294.258 310.06 294.443C308.941 294.761 307.913 295.34 307.06 296.133C306.4 296.728 305.834 297.419 305.38 298.183C305.005 298.844 304.664 299.525 304.36 300.223Z" fill="#263238"/>
<path d="M308.22 299.103C307.111 298.964 305.986 299.19 305.017 299.748C304.048 300.305 303.287 301.164 302.85 302.193C302.025 304.291 302.025 306.624 302.85 308.723C303.198 309.807 303.767 310.808 304.52 311.663C305.294 312.517 306.37 313.037 307.52 313.113C308.359 313.072 309.176 312.829 309.9 312.404C310.624 311.979 311.235 311.385 311.68 310.673C312.454 309.571 312.98 308.316 313.224 306.992C313.467 305.668 313.422 304.307 313.09 303.003C312.63 301.263 311.36 299.493 309.57 299.443" fill="#E0E0E0"/>
<path d="M309.53 299.473C309.53 299.473 309.66 299.473 309.92 299.473C310.306 299.517 310.677 299.643 311.01 299.843C311.603 300.233 312.111 300.739 312.504 301.33C312.897 301.921 313.168 302.585 313.3 303.283C313.778 305.335 313.56 307.488 312.68 309.403C312.173 310.544 311.406 311.551 310.44 312.343C309.917 312.793 309.294 313.112 308.622 313.274C307.951 313.435 307.251 313.435 306.58 313.273C305.269 312.852 304.165 311.952 303.49 310.753C302.877 309.677 302.444 308.508 302.21 307.293C301.96 306.277 301.92 305.221 302.092 304.19C302.264 303.158 302.644 302.172 303.21 301.293C303.616 300.71 304.134 300.214 304.733 299.833C305.332 299.452 306 299.194 306.7 299.073C307.078 299.016 307.462 299.016 307.84 299.073C308.09 299.123 308.22 299.163 308.22 299.183C307.722 299.165 307.223 299.196 306.73 299.273C305.413 299.58 304.261 300.378 303.51 301.503C302.994 302.353 302.655 303.299 302.512 304.283C302.37 305.268 302.427 306.271 302.68 307.233C302.917 308.389 303.339 309.5 303.93 310.523C304.54 311.607 305.536 312.421 306.72 312.803C307.311 312.947 307.928 312.948 308.52 312.806C309.111 312.663 309.66 312.381 310.12 311.983C311.03 311.247 311.756 310.308 312.24 309.243C313.103 307.424 313.349 305.374 312.94 303.403C312.725 302.072 312.009 300.874 310.94 300.053C310.509 299.775 310.031 299.579 309.53 299.473Z" fill="#263238"/>
<path d="M313.26 315.543C313.19 315.543 313.08 315.223 312.73 314.823C312.276 314.308 311.687 313.93 311.03 313.733C310.345 313.542 309.64 313.432 308.93 313.403C308.37 313.403 308.02 313.313 308.01 313.243C308 313.173 308.35 313.093 308.92 313.033C309.679 312.951 310.447 313.019 311.18 313.233C311.944 313.452 312.601 313.943 313.03 314.613C313.35 315.133 313.32 315.533 313.26 315.543Z" fill="#263238"/>
<path d="M314.05 297.743C314.05 297.743 313.9 298.093 313.43 298.463C312.812 298.936 312.087 299.251 311.32 299.383C310.558 299.524 309.773 299.482 309.03 299.263C308.46 299.073 308.16 298.853 308.19 298.793C309.183 298.947 310.191 298.973 311.19 298.873C312.186 298.615 313.147 298.236 314.05 297.743Z" fill="#263238"/>
<path d="M169.058 113.399C168.698 113.259 154.748 109.599 155.588 123.709C156.428 137.819 170.418 134.059 170.428 133.649C170.438 133.239 169.058 113.399 169.058 113.399Z" fill="#FFBE9D"/>
<path d="M165.798 128.569C165.728 128.519 165.558 128.749 165.158 128.969C164.587 129.254 163.926 129.305 163.318 129.109C161.798 128.659 160.398 126.369 160.178 123.829C160.069 122.64 160.219 121.443 160.618 120.319C160.724 119.869 160.937 119.452 161.241 119.103C161.544 118.755 161.928 118.485 162.358 118.319C162.637 118.227 162.938 118.236 163.21 118.343C163.483 118.451 163.709 118.651 163.848 118.909C164.058 119.289 163.988 119.579 164.058 119.599C164.128 119.619 164.348 119.339 164.198 118.769C164.102 118.422 163.886 118.121 163.588 117.919C163.388 117.783 163.164 117.688 162.927 117.64C162.69 117.592 162.445 117.591 162.208 117.639C161.637 117.788 161.113 118.082 160.688 118.491C160.262 118.901 159.949 119.413 159.778 119.979C159.242 121.239 159.028 122.614 159.158 123.979C159.418 126.819 161.038 129.389 163.108 129.859C163.495 129.946 163.895 129.946 164.282 129.858C164.668 129.769 165.029 129.595 165.338 129.349C165.788 128.909 165.848 128.589 165.798 128.569Z" fill="#EB996E"/>
<path d="M204.278 63.0085C211.448 63.0085 218.748 63.0085 227.718 67.6985C233.378 70.6985 236.898 75.3285 239.848 80.9885C242.201 85.5902 243.35 90.7128 243.188 95.8785C242.928 100.759 242.908 104.169 240.958 108.649" fill="#263238"/>
<path d="M201.408 64.1186C206.448 63.7595 211.509 64.409 216.294 66.029C221.08 67.6491 225.494 70.2072 229.279 73.5538C233.064 76.9003 236.144 80.9681 238.338 85.5191C240.533 90.0701 241.797 95.013 242.058 100.059C242.978 117.729 243.788 136.839 243.598 146.459C243.178 167.119 222.488 170.169 222.488 170.169C222.488 170.169 222.948 176.289 223.488 183.889C223.729 187.519 223.239 191.161 222.048 194.599C220.857 198.037 218.989 201.202 216.553 203.905C214.118 206.609 211.166 208.797 207.871 210.34C204.575 211.883 201.004 212.749 197.368 212.889C193.796 213.025 190.231 212.456 186.879 211.214C183.527 209.971 180.452 208.08 177.831 205.649C175.21 203.217 173.094 200.293 171.604 197.043C170.114 193.793 169.28 190.281 169.148 186.709L166.078 103.449C165.704 93.5808 169.186 83.9549 175.786 76.6098C182.387 69.2648 191.587 64.7775 201.438 64.0986L201.408 64.1186Z" fill="#FFBE9D"/>
<path d="M222.488 170.169C222.488 170.169 209.788 170.829 195.988 161.999C195.988 161.999 202.238 176.999 222.858 175.339L222.488 170.169Z" fill="#EB996E"/>
<path d="M234.138 111.548C234.155 112.325 233.863 113.076 233.327 113.638C232.791 114.2 232.055 114.528 231.278 114.548C230.904 114.574 230.529 114.525 230.175 114.403C229.82 114.282 229.493 114.09 229.214 113.841C228.934 113.591 228.707 113.288 228.547 112.949C228.386 112.61 228.295 112.243 228.278 111.869C228.278 111.097 228.574 110.354 229.107 109.795C229.64 109.236 230.367 108.905 231.138 108.869C231.512 108.844 231.887 108.895 232.241 109.017C232.595 109.139 232.921 109.33 233.2 109.58C233.48 109.829 233.706 110.132 233.867 110.47C234.029 110.808 234.121 111.174 234.138 111.548Z" fill="#263238"/>
<path d="M237.008 107.369C236.638 107.749 234.418 106.079 231.238 106.059C228.058 106.039 225.728 107.619 225.388 107.229C225.218 107.049 225.598 106.359 226.618 105.629C227.997 104.683 229.637 104.194 231.308 104.229C232.959 104.23 234.565 104.763 235.888 105.749C236.858 106.499 237.188 107.199 237.008 107.369Z" fill="#263238"/>
<path d="M203.008 111.548C203.025 112.327 202.731 113.079 202.193 113.642C201.655 114.204 200.916 114.53 200.138 114.548C199.765 114.573 199.39 114.522 199.036 114.4C198.682 114.278 198.356 114.087 198.077 113.837C197.797 113.588 197.57 113.285 197.409 112.947C197.248 112.609 197.156 112.243 197.138 111.868C197.138 111.095 197.436 110.351 197.971 109.792C198.505 109.233 199.236 108.902 200.008 108.868C200.382 108.846 200.756 108.897 201.109 109.019C201.463 109.142 201.789 109.333 202.068 109.583C202.347 109.832 202.573 110.134 202.735 110.471C202.896 110.809 202.989 111.175 203.008 111.548Z" fill="#263238"/>
<path d="M205.798 107.719C205.428 108.099 203.198 106.429 200.028 106.409C196.858 106.389 194.518 107.959 194.168 107.569C194.008 107.399 194.378 106.699 195.408 105.969C196.79 105.029 198.428 104.54 200.098 104.569C201.747 104.58 203.35 105.112 204.678 106.089C205.618 106.849 205.978 107.539 205.798 107.719Z" fill="#263238"/>
<path d="M217.128 131.319C217.128 131.139 219.128 130.819 222.288 130.429C223.098 130.349 223.868 130.199 224.008 129.649C224.089 128.811 223.907 127.969 223.488 127.239C222.748 125.239 221.958 123.239 221.138 121.049C217.878 112.229 215.528 104.989 215.888 104.859C216.248 104.729 219.178 111.769 222.428 120.589C223.218 122.759 223.968 124.829 224.678 126.819C225.181 127.799 225.323 128.924 225.078 129.999C224.955 130.283 224.77 130.537 224.536 130.741C224.303 130.945 224.027 131.094 223.728 131.179C223.28 131.29 222.82 131.35 222.358 131.359C219.138 131.529 217.138 131.529 217.128 131.319Z" fill="#263238"/>
<path d="M207.768 133.469C208.288 133.469 208.258 136.889 211.188 139.359C214.118 141.829 217.798 141.479 217.818 141.959C217.818 142.179 216.988 142.629 215.438 142.659C213.417 142.662 211.46 141.954 209.908 140.659C208.422 139.414 207.473 137.645 207.258 135.719C207.138 134.319 207.528 133.449 207.768 133.469Z" fill="#263238"/>
<path d="M206.708 95.3185C206.388 96.1785 203.228 95.7485 199.498 96.1685C195.768 96.5885 192.748 97.5785 192.258 96.7985C192.048 96.4285 192.578 95.6185 193.798 94.7985C195.427 93.7899 197.264 93.1649 199.169 92.9708C201.075 92.7768 203 93.0188 204.798 93.6785C206.168 94.1885 206.848 94.8685 206.708 95.3185Z" fill="#263238"/>
<path d="M236.558 96.0685C235.998 96.7885 233.818 96.0185 231.188 95.9685C228.558 95.9185 226.328 96.4085 225.818 95.6485C225.598 95.2785 225.948 94.5585 226.928 93.8885C228.242 93.0786 229.768 92.6784 231.31 92.739C232.853 92.7995 234.342 93.3181 235.588 94.2285C236.508 94.9785 236.808 95.7185 236.558 96.0685Z" fill="#263238"/>
<path d="M166.288 109.919C166.288 109.919 167.188 114.699 167.428 116.849C167.518 117.639 167.428 126.389 169.538 126.849C171.368 127.229 174.998 125.559 176.618 121.939C178.238 118.319 181.318 109.629 180.978 105.679C180.528 100.299 180.278 94.8185 181.358 89.5185C182.438 84.2185 184.968 79.0585 189.218 75.7185C193.468 72.3785 199.618 71.2285 204.458 73.6485C207.458 75.1485 209.668 77.7985 212.458 79.6485C214.933 81.4014 217.964 82.1876 220.978 81.8585C222.474 81.6707 223.886 81.0641 225.052 80.1088C226.218 79.1534 227.09 77.888 227.568 76.4585C228.448 73.3085 226.828 69.8585 224.298 67.7685C221.768 65.6785 218.518 64.7185 215.298 64.0785C206.36 62.1592 197.061 62.811 188.478 65.9585C180.008 69.2485 172.478 75.5685 168.878 83.8985C164.698 93.5285 165.178 99.4385 166.288 109.899" fill="#263238"/>
<path d="M213.508 111.679C213.409 110.534 213.229 109.398 212.968 108.279C212.167 105.24 210.367 102.56 207.858 100.669C206.142 99.3705 204.145 98.4936 202.028 98.1085C199.597 97.6642 197.091 97.8748 194.768 98.7185C193.518 99.1648 192.344 99.8024 191.288 100.609C190.161 101.419 189.175 102.409 188.368 103.539C186.634 105.9 185.699 108.754 185.699 111.684C185.699 114.614 186.634 117.467 188.368 119.829C189.18 120.954 190.166 121.943 191.288 122.759C192.344 123.562 193.518 124.196 194.768 124.639C197.091 125.485 199.596 125.699 202.028 125.259C204.147 124.872 206.144 123.991 207.858 122.689C210.369 120.801 212.173 118.125 212.978 115.089C213.234 113.965 213.411 112.826 213.508 111.679C213.523 111.754 213.523 111.833 213.508 111.909V112.579C213.513 112.944 213.483 113.309 213.418 113.669C213.371 114.161 213.284 114.65 213.158 115.129C212.414 118.255 210.617 121.03 208.068 122.989C206.181 124.443 203.957 125.398 201.603 125.765C199.248 126.132 196.839 125.899 194.598 125.089C193.299 124.638 192.077 123.987 190.978 123.159C189.825 122.324 188.813 121.312 187.978 120.159C186.172 117.711 185.198 114.75 185.198 111.709C185.198 108.667 186.172 105.706 187.978 103.259C189.656 100.975 191.969 99.2356 194.628 98.2585C197.029 97.4016 199.614 97.198 202.118 97.6685C204.303 98.0835 206.359 99.0086 208.118 100.369C210.665 102.324 212.462 105.096 213.208 108.219C213.334 108.701 213.421 109.192 213.468 109.689C213.533 110.045 213.563 110.406 213.558 110.769V111.439C213.528 111.609 213.518 111.679 213.508 111.679Z" fill="#263238"/>
<path d="M249.878 111.679C249.773 110.535 249.592 109.399 249.338 108.279C248.535 105.239 246.731 102.558 244.218 100.669C242.503 99.3689 240.506 98.4918 238.388 98.1085C235.96 97.6641 233.458 97.8746 231.138 98.7185C228.578 99.6617 226.352 101.338 224.738 103.539C222.998 105.898 222.059 108.752 222.059 111.684C222.059 114.615 222.998 117.47 224.738 119.829C225.547 120.953 226.529 121.943 227.648 122.759C228.706 123.564 229.884 124.198 231.138 124.639C233.457 125.485 235.959 125.699 238.388 125.259C240.507 124.872 242.504 123.991 244.218 122.689C246.729 120.801 248.533 118.125 249.338 115.089C249.593 113.965 249.773 112.826 249.878 111.679C249.883 111.755 249.883 111.832 249.878 111.909C249.878 112.089 249.878 112.309 249.878 112.579C249.882 112.943 249.855 113.308 249.798 113.669C249.747 114.162 249.657 114.65 249.528 115.129C248.792 118.258 246.993 121.036 244.438 122.989C242.679 124.347 240.623 125.268 238.438 125.679C235.931 126.159 233.34 125.955 230.938 125.089C228.274 124.124 225.961 122.382 224.298 120.089C222.486 117.644 221.508 114.682 221.508 111.639C221.508 108.596 222.486 105.633 224.298 103.189C225.132 102.035 226.144 101.022 227.298 100.189C228.399 99.3612 229.62 98.7069 230.918 98.2485C233.322 97.3912 235.91 97.1876 238.418 97.6585C240.604 98.0721 242.66 98.9973 244.418 100.359C246.97 102.309 248.769 105.083 249.508 108.209C249.637 108.691 249.727 109.182 249.778 109.679C249.835 110.036 249.862 110.397 249.858 110.759C249.858 111.029 249.858 111.249 249.858 111.429C249.871 111.511 249.877 111.595 249.878 111.679Z" fill="#263238"/>
<path d="M222.128 110.178C222.128 110.258 221.618 109.998 220.828 109.738C219.796 109.391 218.706 109.249 217.618 109.318C216.543 109.398 215.492 109.676 214.518 110.139C213.768 110.509 213.348 110.829 213.298 110.759C213.248 110.689 213.598 110.288 214.298 109.818C215.284 109.225 216.397 108.875 217.545 108.798C218.693 108.722 219.843 108.921 220.898 109.378C221.768 109.758 222.168 110.138 222.128 110.178Z" fill="#263238"/>
<path d="M227.758 75.3185C227.968 74.2485 227.608 73.6485 228.218 73.2085C228.828 72.7685 230.218 74.0285 230.678 74.5485C230.838 74.7185 231.318 74.0585 231.508 73.9385C231.717 73.5097 231.839 73.0443 231.868 72.5685C231.778 71.8185 230.608 71.5685 230.058 71.1085C229.491 70.6098 228.827 70.2321 228.108 69.9985C227.816 69.8536 227.49 69.7876 227.164 69.8069C226.838 69.8262 226.522 69.9301 226.248 70.1085C226.086 70.3005 225.965 70.5239 225.893 70.7648C225.82 71.0056 225.799 71.2588 225.828 71.5085C225.826 72.0088 225.921 72.5048 226.108 72.9685C226.297 73.435 226.654 73.8135 227.108 74.0285" fill="#263238"/>
<path d="M165.518 98.9385C165.518 98.9385 175.648 102.649 180.918 104.889L180.618 99.7085L165.888 93.8785C165.888 93.8785 165.508 97.7285 165.518 98.9385Z" fill="#EBEBEB"/>
<path d="M166.468 90.8885C168.916 91.6466 171.311 92.5653 173.638 93.6385C176.043 94.5546 178.381 95.6338 180.638 96.8685C178.191 96.1105 175.795 95.1918 173.468 94.1185C171.064 93.2025 168.725 92.1233 166.468 90.8885Z" fill="#EBEBEB"/>
<path d="M169.518 200.009L168.738 175.499C168.738 175.499 173.608 197.929 199.118 197.639C223.488 197.359 223.048 177.879 223.048 177.879L223.918 187.759V227.669L208.018 292.779L187.708 295.319L165.268 206.319L169.518 200.009Z" fill="#879B93"/>
<path d="M220.778 192.169C220.703 192.353 220.605 192.527 220.488 192.689C220.183 193.181 219.849 193.655 219.488 194.109C218.206 195.796 216.675 197.279 214.948 198.509C212.386 200.342 209.513 201.698 206.468 202.509C202.739 203.509 198.85 203.778 195.018 203.299C191.202 202.773 187.491 201.656 184.018 199.989C181.2 198.64 178.521 197.019 176.018 195.149C174.325 193.906 172.703 192.571 171.158 191.149C170.608 190.649 170.208 190.229 169.928 189.949C169.779 189.817 169.645 189.669 169.528 189.509C169.698 189.614 169.856 189.739 169.998 189.879L171.298 190.999C172.418 191.999 174.078 193.329 176.238 194.879C178.753 196.69 181.432 198.264 184.238 199.579C187.67 201.197 191.329 202.283 195.088 202.799C198.851 203.271 202.669 203.023 206.338 202.069C209.338 201.29 212.18 199.997 214.738 198.249C216.457 197.062 218.002 195.641 219.328 194.029C220.288 192.829 220.738 192.139 220.778 192.169Z" fill="#263238"/>
<path d="M203.078 401.428L202.708 285.729L169.848 201.319L168.748 175.909L148.748 191.049C148.748 191.049 119.618 291.319 119.128 287.859C118.638 284.399 119.128 401.428 119.128 401.428H203.078Z" fill="#EBEBEB"/>
<path d="M202.288 401.109C202.148 401.109 202.028 375.039 202.028 342.879C202.028 310.719 202.148 284.648 202.288 284.648C202.428 284.648 202.548 310.719 202.548 342.879C202.548 375.039 202.428 401.109 202.288 401.109Z" fill="#263238"/>
<path d="M149.018 207.529L153.078 210.609L150.228 229.329L198.188 279.569L154.628 222.359L158.338 207.529H149.018Z" fill="#E0E0E0"/>
<path d="M204.878 342.159L131.268 320.579L128.828 264.669L149.018 191.009C149.018 191.009 100.898 215.019 97.6184 230.319C94.3384 245.619 86.4484 282.739 85.6184 309.589C84.8684 333.589 84.7584 349.589 90.2384 357.299C105.938 379.239 209.378 383.159 250.698 357.299" fill="#EBEBEB"/>
<path d="M199.118 280.779C199.118 280.779 199.028 280.699 198.878 280.509C198.728 280.319 198.488 280.029 198.218 279.689L195.718 276.489C193.538 273.669 190.428 269.629 186.598 264.649L156.668 225.479L154.418 222.479L154.338 222.379V222.259C155.618 217.139 156.868 212.169 158.058 207.429L158.298 207.749H148.978H148.738V207.509C148.738 201.509 148.738 195.909 148.738 190.989V190.889L148.818 190.829L163.288 179.829L167.288 176.829L168.288 176.059C168.402 175.964 168.526 175.884 168.658 175.819L168.328 176.109L167.328 176.919L163.418 179.979L149.058 191.119L149.138 190.959C149.138 195.879 149.138 201.429 149.138 207.479L148.898 207.249H158.218H158.618L158.538 207.569L154.838 222.399L154.788 222.179L157.048 225.129L186.848 264.399L195.848 276.329C196.848 277.729 197.698 278.819 198.268 279.589C198.528 279.949 198.728 280.239 198.888 280.449L199.118 280.779Z" fill="#263238"/>
<path d="M231.928 186.649C226.058 176.389 223.008 177.449 223.008 177.449L223.318 181.109V188.799L220.528 221.799L202.698 293.489L203.068 401.429H270.478L278.868 269.669L278.108 212.899L231.928 186.649Z" fill="#EBEBEB"/>
<path d="M278.118 212.898C278.118 212.898 295.568 225.779 297.118 246.509C298.348 263.339 301.118 309.429 301.668 319.459C302.468 335.079 290.298 371.669 258.618 361.309C239.618 355.089 169.438 331.239 169.438 331.239L174.108 301.428L257.408 306.428L259.068 236.949L278.118 212.898Z" fill="#EBEBEB"/>
<path d="M173.118 304.859C173.118 304.859 149.538 302.309 144.118 303.629C138.868 304.899 131.398 311.319 131.398 311.319L131.508 320.629L169.438 331.239L173.118 304.859Z" fill="#FFBE9D"/>
<path d="M202.708 282.709C202.734 282.598 202.771 282.491 202.818 282.389C202.898 282.159 203.018 281.849 203.168 281.469C203.498 280.629 203.978 279.469 204.578 277.949L209.858 265.029L217.738 245.889C218.488 244.099 219.228 242.228 220.158 240.398C221.088 238.568 222.098 236.739 223.158 234.909C225.457 231.177 227.954 227.572 230.638 224.109C231.998 222.359 233.368 220.649 234.788 219.009V219.279L231.848 211.809L231.748 211.559L231.998 211.469L244.268 207.319L244.138 207.659C238.438 198.139 233.628 190.099 230.208 184.399C228.528 181.579 227.088 179.319 225.558 178.399C224.982 178.051 224.354 177.798 223.698 177.649C223.465 177.605 223.235 177.548 223.008 177.479C223.243 177.494 223.477 177.524 223.708 177.569C224.388 177.691 225.041 177.931 225.638 178.279C226.566 178.882 227.368 179.659 227.998 180.569C228.882 181.75 229.699 182.978 230.448 184.249L244.548 207.428L244.698 207.678L244.418 207.769L232.148 211.979L232.298 211.648L235.248 219.118L235.308 219.259L235.198 219.379C233.798 220.999 232.428 222.709 231.078 224.459C228.404 227.897 225.914 231.476 223.618 235.178C222.548 236.998 221.498 238.788 220.618 240.618C219.738 242.448 218.958 244.269 218.208 246.069C215.208 253.249 212.488 259.719 210.208 265.169C207.928 270.619 206.068 274.959 204.778 278.019C204.138 279.509 203.628 280.679 203.278 281.509C203.108 281.889 202.978 282.179 202.868 282.409C202.829 282.515 202.775 282.616 202.708 282.709Z" fill="#263238"/>
<path d="M287.688 355.509C287.603 355.622 287.506 355.726 287.398 355.819L286.498 356.689C285.314 357.772 284.032 358.743 282.668 359.589C280.494 360.912 278.135 361.902 275.668 362.529C272.4 363.338 269.013 363.555 265.668 363.169C263.718 362.941 261.793 362.533 259.918 361.949C257.918 361.329 255.998 360.559 253.918 359.839C249.808 358.339 245.388 356.839 240.748 355.159C231.448 351.899 221.198 348.418 210.398 344.868C188.798 337.778 169.098 331.799 154.818 327.529L137.898 322.529L133.298 321.159L132.108 320.799C131.971 320.761 131.837 320.711 131.708 320.648L132.128 320.739L133.328 321.059L137.958 322.329C141.958 323.449 147.768 325.098 154.958 327.178C169.258 331.348 188.958 337.279 210.588 344.379C221.398 347.919 231.648 351.379 240.938 354.699C245.578 356.349 249.988 357.918 254.098 359.428C256.158 360.168 258.098 360.949 260.098 361.569C261.946 362.155 263.844 362.567 265.768 362.799C269.081 363.205 272.44 363.019 275.688 362.249C278.146 361.647 280.503 360.693 282.688 359.419C284.052 358.592 285.343 357.652 286.548 356.609L287.478 355.779C287.542 355.683 287.612 355.593 287.688 355.509Z" fill="#263238"/>
<path d="M131.468 320.799C131.468 320.909 130.138 320.619 128.028 320.709C126.795 320.759 125.573 320.961 124.388 321.309C122.943 321.742 121.564 322.371 120.288 323.179C117.985 324.698 116.038 326.697 114.578 329.039C113.468 330.839 112.978 332.039 112.888 332.039C112.942 331.731 113.036 331.431 113.168 331.149C113.471 330.353 113.839 329.583 114.268 328.849C115.67 326.385 117.637 324.291 120.008 322.739C121.326 321.907 122.758 321.27 124.258 320.849C125.484 320.517 126.748 320.345 128.018 320.339C128.871 320.327 129.722 320.404 130.558 320.569C130.871 320.603 131.177 320.68 131.468 320.799Z" fill="#263238"/>
<path d="M108.278 313.499C108.278 313.499 108.278 313.399 108.368 313.229C108.488 312.99 108.643 312.771 108.828 312.579C109.542 311.879 110.46 311.424 111.448 311.279C112.879 311.043 114.338 311.043 115.768 311.279C117.518 311.509 119.238 311.928 120.898 312.529C123.935 313.595 126.707 315.3 129.028 317.529C129.72 318.21 130.353 318.949 130.918 319.739C131.138 320.018 131.323 320.324 131.468 320.649C131.378 320.719 130.558 319.439 128.778 317.799C126.431 315.699 123.692 314.085 120.718 313.049C119.096 312.467 117.422 312.042 115.718 311.779C114.332 311.529 112.917 311.488 111.518 311.659C110.588 311.765 109.709 312.14 108.988 312.739C108.488 313.169 108.318 313.519 108.278 313.499Z" fill="#263238"/>
<path d="M135.758 249.319C135.596 248.828 135.482 248.322 135.418 247.809C135.268 247.329 135.058 246.759 134.828 246.099C134.598 245.439 134.198 244.719 133.738 243.959C132.662 242.168 131.406 240.493 129.988 238.959C128.235 237.095 126.31 235.401 124.238 233.899C120.479 231.15 116.204 229.188 111.668 228.129C110.289 227.836 108.887 227.656 107.478 227.589C106.959 227.591 106.441 227.551 105.928 227.469C106.445 227.395 106.967 227.368 107.488 227.389C108.914 227.373 110.338 227.5 111.738 227.769C116.365 228.733 120.73 230.681 124.538 233.479C126.643 234.992 128.587 236.718 130.338 238.629C131.764 240.199 133.012 241.923 134.058 243.769C134.508 244.559 134.798 245.329 135.058 245.979C135.318 246.629 135.458 247.259 135.578 247.749C135.678 248.267 135.738 248.791 135.758 249.319Z" fill="#263238"/>
<path d="M275.508 334.779C275.496 334.659 275.496 334.538 275.508 334.419V333.368C275.508 332.448 275.438 331.098 275.308 329.368C274.946 324.454 273.937 319.609 272.308 314.959C271.819 313.418 271.147 311.941 270.308 310.559C269.373 309.086 268.013 307.932 266.408 307.249C263.058 305.809 259.028 305.999 254.928 305.769L228.088 304.639C205.908 303.639 186.178 302.838 173.778 302.178L173.948 302.039C173.198 306.599 172.598 310.209 172.188 312.719C171.978 313.929 171.818 314.869 171.698 315.539C171.648 315.839 171.598 316.079 171.568 316.269L171.508 316.509C171.499 316.425 171.499 316.342 171.508 316.259L171.608 315.529C171.698 314.859 171.838 313.909 172.008 312.689C172.388 310.179 172.928 306.559 173.618 301.989V301.849H173.768L228.078 304.109L254.918 305.319C256.978 305.419 258.988 305.469 260.918 305.629C262.842 305.735 264.734 306.161 266.518 306.889C268.199 307.594 269.627 308.789 270.618 310.319C271.465 311.732 272.136 313.243 272.618 314.819C274.225 319.499 275.181 324.378 275.458 329.319C275.568 331.059 275.568 332.419 275.558 333.319C275.558 333.759 275.558 334.108 275.558 334.368C275.518 334.648 275.508 334.779 275.508 334.779Z" fill="#263238"/>
<path d="M259.618 269.559C259.758 269.559 259.878 277.629 259.878 287.559C259.878 297.489 259.758 305.559 259.618 305.559C259.478 305.559 259.358 297.489 259.358 287.559C259.358 277.629 259.478 269.559 259.618 269.559Z" fill="#263238"/>
<path d="M98.1984 228.489C98.1984 228.489 98.1384 228.718 97.9984 229.148C97.8584 229.578 97.6084 230.228 97.3984 231.148C96.9084 232.878 96.2884 235.459 95.5984 238.829C94.2084 245.569 92.4984 255.429 90.5984 267.769C89.6484 273.949 88.5984 280.769 87.5984 288.079C87.0884 291.749 86.7684 295.569 86.5084 299.529C86.2484 303.489 86.0384 307.529 85.8784 311.769C85.5784 320.179 85.3984 329.059 85.6384 338.309C85.7184 340.619 85.7984 342.959 85.9884 345.309C86.0484 346.489 86.2484 347.649 86.3884 348.819C86.602 349.988 86.8858 351.143 87.2384 352.279C87.95 354.573 89.0752 356.718 90.5584 358.609C92.0458 360.531 94.0015 362.039 96.2384 362.989C100.999 365.323 105.963 367.218 111.068 368.648C116.238 370.198 121.578 371.449 126.998 372.559C138.792 374.993 150.766 376.452 162.798 376.919C168.499 377.065 174.203 376.918 179.888 376.479C185.458 376.089 190.888 375.479 196.138 374.729C206.038 373.326 215.795 371.057 225.298 367.949C233.436 365.261 241.325 361.875 248.878 357.829V358.159L216.618 346.689L207.908 343.579L205.658 342.759C205.148 342.569 204.898 342.459 204.898 342.459L205.668 342.709L207.938 343.479L216.678 346.479L249.078 357.779L249.468 357.909L249.108 358.109C241.541 362.188 233.635 365.604 225.478 368.319C215.955 371.456 206.174 373.748 196.248 375.169C190.988 375.959 185.548 376.549 179.968 376.939C174.267 377.385 168.546 377.538 162.828 377.398C150.765 376.938 138.761 375.48 126.938 373.039C121.498 371.919 116.148 370.668 110.938 369.118C105.803 367.669 100.809 365.758 96.0184 363.409C93.688 362.429 91.6492 360.865 90.0984 358.868C88.5818 356.926 87.4329 354.724 86.7084 352.368C86.3457 351.214 86.0551 350.039 85.8384 348.849C85.6884 347.649 85.4984 346.469 85.4384 345.289C85.2484 342.929 85.1684 340.579 85.0984 338.289C84.8584 329.009 85.0984 320.129 85.3784 311.709C85.5384 307.509 85.7551 303.425 86.0284 299.459C86.2984 295.459 86.6284 291.659 87.1484 287.989C88.1484 280.639 89.2084 273.848 90.1484 267.678C92.1484 255.338 93.8884 245.489 95.3384 238.759C96.0584 235.389 96.6984 232.809 97.2184 231.079C97.4384 230.209 97.7184 229.569 97.8584 229.139C97.9984 228.709 98.1984 228.489 98.1984 228.489Z" fill="#263238"/>
<path d="M131.358 313.889C143.668 300.259 143.128 276.029 136.058 258.839C135.408 277.459 133.208 293.979 131.528 312.079" fill="#E0E0E0"/>
<path d="M136.088 262.319C136.11 262.518 136.11 262.719 136.088 262.919C136.088 263.369 136.028 263.919 135.978 264.619C135.858 266.169 135.698 268.289 135.488 270.869C135.048 276.209 134.488 283.459 133.798 291.479L132.178 312.099C131.988 314.679 131.828 316.799 131.708 318.349L131.558 320.039C131.546 320.237 131.52 320.434 131.478 320.629C131.449 320.433 131.449 320.234 131.478 320.039C131.478 319.589 131.478 319.039 131.528 318.329C131.578 316.849 131.688 314.709 131.828 312.069C132.138 306.789 132.638 299.489 133.298 291.439C133.958 283.389 134.618 276.109 135.148 270.839C135.418 268.259 135.638 266.149 135.798 264.599C135.888 263.909 135.958 263.349 136.008 262.909C136.008 262.709 136.035 262.511 136.088 262.319Z" fill="#263238"/>
<path d="M166.428 237.699C166.692 241.215 166.779 244.743 166.688 248.269C166.779 251.794 166.692 255.322 166.428 258.839C166.288 258.839 166.168 254.099 166.168 248.269C166.168 242.439 166.288 237.699 166.428 237.699Z" fill="#263238"/>
<path d="M158.408 272.809C158.618 274.853 159.405 276.795 160.678 278.409C161.838 279.919 164.188 281.409 166.078 281.279C167.502 281.351 168.921 281.053 170.195 280.413C171.47 279.773 172.556 278.814 173.348 277.629C175.648 273.969 176.218 266.339 174.348 261.829C173.078 258.729 170.228 255.829 166.878 255.759C162.478 255.659 159.718 258.839 158.778 262.059" fill="#E0E0E0"/>
<path d="M158.798 262.058C158.944 261.298 159.218 260.567 159.608 259.898C160.044 259.095 160.6 258.363 161.258 257.729C162.14 256.884 163.209 256.26 164.378 255.908C165.056 255.701 165.76 255.586 166.468 255.569C167.244 255.526 168.02 255.628 168.758 255.868C170.369 256.438 171.784 257.454 172.838 258.799C174.028 260.25 174.854 261.964 175.248 263.799C175.664 265.746 175.812 267.741 175.688 269.729C175.488 272.859 174.868 275.979 173.138 278.359C172.278 279.477 171.131 280.341 169.818 280.859C168.625 281.337 167.343 281.552 166.058 281.489C165.121 281.497 164.196 281.27 163.368 280.829C162.64 280.448 161.968 279.97 161.368 279.408C160.427 278.47 159.679 277.356 159.168 276.128C158.826 275.354 158.59 274.537 158.468 273.699C158.435 273.48 158.415 273.26 158.408 273.039C158.395 272.962 158.395 272.885 158.408 272.808C158.612 273.918 158.948 274.999 159.408 276.028C159.943 277.203 160.696 278.266 161.628 279.158C162.232 279.687 162.905 280.131 163.628 280.479C164.401 280.877 165.259 281.08 166.128 281.069C167.395 281.131 168.659 280.892 169.815 280.371C170.972 279.849 171.987 279.06 172.778 278.069C174.388 275.839 175.008 272.769 175.198 269.709C175.418 265.709 174.748 261.769 172.498 259.109C171.492 257.833 170.148 256.866 168.618 256.319C167.926 256.089 167.198 255.984 166.468 256.009C165.792 256.016 165.119 256.113 164.468 256.299C163.351 256.621 162.323 257.2 161.468 257.989C160.815 258.587 160.252 259.277 159.798 260.039C159.427 260.693 159.094 261.367 158.798 262.058Z" fill="#263238"/>
<path d="M156.068 273.009C156.279 275.052 157.067 276.994 158.338 278.609C159.488 280.119 161.848 281.609 163.738 281.479C165.162 281.55 166.58 281.252 167.854 280.612C169.129 279.972 170.215 279.013 171.008 277.829C173.308 274.159 173.878 266.539 172.008 262.029C170.738 258.919 167.888 256.029 164.538 255.959C162.677 255.943 160.866 256.555 159.396 257.696C157.926 258.838 156.884 260.442 156.438 262.249" fill="#E0E0E0"/>
<path d="M156.458 262.249C156.605 261.491 156.879 260.764 157.268 260.099C157.704 259.295 158.26 258.563 158.918 257.929C160.32 256.577 162.181 255.806 164.128 255.769C164.904 255.727 165.68 255.829 166.418 256.069C168.029 256.638 169.444 257.654 170.498 258.999C171.689 260.448 172.512 262.163 172.898 263.999C173.322 265.945 173.473 267.941 173.348 269.929C173.148 273.059 172.528 276.169 170.798 278.559C169.938 279.677 168.791 280.541 167.478 281.059C166.285 281.537 165.002 281.752 163.718 281.689C162.78 281.694 161.855 281.463 161.028 281.019C160.299 280.645 159.625 280.17 159.028 279.609C158.081 278.671 157.333 277.552 156.828 276.319C156.486 275.547 156.251 274.733 156.128 273.899C156.128 273.609 156.068 273.389 156.058 273.239C156.048 273.162 156.048 273.085 156.058 273.009C156.263 274.115 156.599 275.192 157.058 276.219C157.586 277.4 158.34 278.467 159.278 279.359C159.882 279.887 160.555 280.331 161.278 280.679C162.052 281.073 162.91 281.275 163.778 281.269C165.044 281.33 166.305 281.09 167.46 280.568C168.614 280.047 169.628 279.259 170.418 278.269C172.038 276.029 172.658 272.969 172.848 269.909C173.068 265.909 172.398 261.969 170.148 259.309C169.158 258.023 167.823 257.045 166.298 256.489C165.609 256.259 164.884 256.154 164.158 256.179C162.302 256.207 160.522 256.919 159.158 258.179C158.505 258.777 157.942 259.467 157.488 260.229C157.103 260.88 156.759 261.554 156.458 262.249Z" fill="#263238"/>
<path d="M160.318 261.128C159.209 260.988 158.084 261.213 157.114 261.771C156.145 262.329 155.384 263.188 154.948 264.218C154.118 266.316 154.118 268.651 154.948 270.748C155.292 271.835 155.861 272.837 156.618 273.688C157.39 274.546 158.467 275.067 159.618 275.139C160.452 275.092 161.262 274.846 161.98 274.421C162.699 273.996 163.305 273.406 163.748 272.699C164.522 271.597 165.049 270.342 165.292 269.018C165.536 267.694 165.49 266.333 165.158 265.028C164.698 263.288 163.418 261.518 161.628 261.468" fill="#E0E0E0"/>
<path d="M161.618 261.469C161.618 261.469 161.758 261.469 162.018 261.469C162.404 261.513 162.776 261.639 163.108 261.839C163.698 262.232 164.203 262.738 164.595 263.329C164.986 263.92 165.256 264.582 165.388 265.279C165.876 267.33 165.658 269.486 164.768 271.399C164.269 272.545 163.501 273.553 162.528 274.339C162.005 274.789 161.382 275.109 160.711 275.271C160.04 275.433 159.339 275.432 158.668 275.269C157.358 274.851 156.257 273.95 155.588 272.749C154.975 271.673 154.542 270.504 154.308 269.289C154.058 268.273 154.018 267.217 154.19 266.185C154.362 265.154 154.742 264.168 155.308 263.289C155.714 262.708 156.23 262.212 156.827 261.832C157.424 261.451 158.091 261.191 158.788 261.069C159.17 261.012 159.557 261.012 159.938 261.069C160.188 261.119 160.318 261.159 160.318 261.179C159.82 261.161 159.321 261.191 158.828 261.269C157.51 261.574 156.358 262.372 155.608 263.499C155.09 264.348 154.75 265.294 154.607 266.279C154.465 267.263 154.523 268.267 154.778 269.229C155.012 270.386 155.434 271.498 156.028 272.519C156.632 273.604 157.626 274.419 158.808 274.799C159.401 274.943 160.02 274.944 160.613 274.802C161.206 274.659 161.756 274.377 162.218 273.979C163.126 273.24 163.851 272.302 164.338 271.239C165.204 269.421 165.447 267.368 165.028 265.399C164.818 264.066 164.101 262.866 163.028 262.049C162.598 261.77 162.12 261.573 161.618 261.469Z" fill="#263238"/>
<path d="M165.358 277.569C165.278 277.569 165.168 277.249 164.828 276.849C164.37 276.334 163.778 275.957 163.118 275.759C162.435 275.562 161.729 275.451 161.018 275.429C160.468 275.429 160.108 275.339 160.108 275.269C160.108 275.199 160.448 275.119 161.018 275.059C161.778 274.978 162.545 275.046 163.278 275.259C164.042 275.478 164.7 275.969 165.128 276.639C165.438 277.159 165.418 277.559 165.358 277.569Z" fill="#263238"/>
<path d="M166.148 259.769C166.148 259.769 165.988 260.119 165.528 260.489C164.91 260.961 164.186 261.277 163.418 261.409C162.653 261.548 161.865 261.507 161.118 261.289C160.558 261.099 160.258 260.879 160.288 260.819C161.281 260.973 162.289 261 163.288 260.899C164.285 260.641 165.245 260.262 166.148 259.769Z" fill="#263238"/>
<path d="M234.858 188.139C234.858 188.139 234.978 188.139 235.188 188.259C235.494 188.395 235.791 188.548 236.078 188.719C237.151 189.325 238.156 190.042 239.078 190.859C242.153 193.567 244.388 197.1 245.518 201.039C246.702 204.907 247.522 208.878 247.968 212.899C248.148 214.439 248.238 215.689 248.298 216.549C248.349 216.997 248.349 217.45 248.298 217.899C248.186 217.463 248.112 217.018 248.078 216.569C247.948 215.619 247.778 214.399 247.588 212.949C247.035 208.967 246.169 205.034 244.998 201.189C243.886 197.338 241.75 193.861 238.818 191.129C237.574 190.035 236.25 189.036 234.858 188.139Z" fill="#263238"/>
<path d="M222.398 298.209C225.298 298.099 227.618 295.209 230.518 295.369C231.044 295.413 231.555 295.561 232.023 295.803C232.492 296.045 232.907 296.378 233.247 296.781C233.587 297.184 233.844 297.65 234.004 298.152C234.164 298.654 234.223 299.183 234.178 299.709C234.134 300.234 233.986 300.745 233.744 301.213C233.502 301.682 233.169 302.098 232.766 302.437C232.363 302.777 231.897 303.034 231.395 303.194C230.893 303.354 230.364 303.413 229.838 303.369C226.788 303.019 225.008 299.449 222.028 298.769" fill="#263238"/>
<path d="M246.978 300.679C246.071 300.677 245.165 300.603 244.268 300.459L244.428 299.459C248.008 300.029 251.018 299.459 253.368 297.709C256.368 295.539 258.238 291.649 259.038 286.149V285.939C259.368 283.759 259.818 240.989 259.818 232.869C259.818 220.179 248.688 218.449 248.208 218.379C247.728 218.309 237.638 216.609 232.268 230.459C226.648 244.969 217.658 272.929 217.068 276.209C216.988 276.609 216.878 277.109 216.758 277.679C215.818 281.879 213.878 290.609 219.698 295.629C226.188 301.239 231.308 299.069 231.518 298.979L231.928 299.889C231.688 299.989 226.048 302.439 219.048 296.389C212.768 290.969 214.798 281.849 215.778 277.459C215.908 276.899 216.008 276.459 216.078 276.029C216.678 272.729 225.698 244.649 231.338 230.099C236.978 215.549 248.258 217.369 248.338 217.399C248.418 217.429 260.778 219.299 260.778 232.869C260.778 239.559 260.338 283.769 259.988 286.089V286.289C259.148 292.069 257.108 296.179 253.918 298.519C251.899 299.969 249.464 300.727 246.978 300.679Z" fill="#263238"/>
<path d="M260.348 241.058C259.905 239.298 259.204 237.614 258.268 236.058C257.204 234.418 255.869 232.97 254.318 231.778C252.41 230.337 250.219 229.315 247.888 228.778C243.608 227.836 239.134 228.42 235.238 230.428C233.647 231.298 232.167 232.356 230.828 233.579C230.892 233.469 230.969 233.368 231.058 233.278C231.287 232.992 231.538 232.725 231.808 232.479C232.78 231.546 233.874 230.749 235.058 230.109C239.009 227.946 243.611 227.292 248.008 228.269C250.41 228.836 252.661 229.913 254.608 231.428C256.202 232.663 257.558 234.178 258.608 235.898C259.312 237.051 259.831 238.306 260.148 239.618C260.243 239.973 260.313 240.334 260.358 240.699C260.358 240.919 260.368 241.058 260.348 241.058Z" fill="#263238"/>
<path d="M285.818 320.999C285.449 319.551 284.988 318.128 284.438 316.739C283.017 313.424 280.661 310.596 277.658 308.599C275.977 307.571 274.107 306.891 272.158 306.599C270.551 306.349 268.933 306.182 267.308 306.099L264.018 305.869C263.614 305.857 263.212 305.804 262.818 305.709C263.22 305.66 263.627 305.66 264.028 305.709L267.328 305.769C268.968 305.805 270.604 305.938 272.228 306.169C274.25 306.432 276.194 307.113 277.938 308.169C281.029 310.215 283.417 313.161 284.778 316.609C285.195 317.637 285.503 318.706 285.698 319.799C285.791 320.191 285.832 320.595 285.818 320.999Z" fill="#263238"/>
<path d="M235.368 304.319C235.368 304.319 245.208 289.429 247.718 287.479C250.228 285.529 271.718 275.829 274.208 277.389C276.698 278.949 275.208 282.329 275.208 282.329C275.208 282.329 284.288 279.149 285.258 280.399C285.78 281.15 286.06 282.043 286.06 282.959C286.06 283.874 285.78 284.767 285.258 285.519C285.258 285.519 290.258 284.749 290.258 286.299C290.238 287.339 289.964 288.359 289.458 289.269C288.952 290.179 288.232 290.952 287.358 291.519C285.038 293.259 269.948 303.299 268.738 306.079L263.848 305.779L235.368 304.319Z" fill="#FFBE9D"/>
<path d="M263.668 300.049C263.779 299.718 263.931 299.402 264.118 299.109C264.597 298.294 265.139 297.519 265.738 296.789C267.749 294.39 270.162 292.36 272.868 290.789C275.561 289.214 278.385 287.875 281.308 286.789C282.418 286.359 283.308 286.039 283.958 285.789C284.279 285.656 284.615 285.562 284.958 285.509C284.672 285.707 284.359 285.865 284.028 285.979L281.438 287.089C278.583 288.257 275.81 289.617 273.138 291.159C270.48 292.709 268.079 294.663 266.018 296.949C264.458 298.799 263.758 300.099 263.668 300.049Z" fill="#EB996E"/>
<path d="M251.198 299.809C251.315 299.428 251.476 299.062 251.678 298.719C252.018 298.029 252.508 297.039 253.188 295.839C253.973 294.428 254.88 293.09 255.898 291.839C256.503 291.077 257.194 290.389 257.958 289.789C258.788 289.229 259.658 288.709 260.568 288.169C263.643 286.336 266.853 284.738 270.168 283.389C271.173 282.991 272.202 282.657 273.248 282.389C273.633 282.277 274.029 282.207 274.428 282.179C274.428 282.269 272.798 282.649 270.308 283.769C267.055 285.21 263.889 286.843 260.828 288.659C259.928 289.189 259.058 289.719 258.248 290.249C257.512 290.815 256.841 291.463 256.248 292.179C255.223 293.401 254.3 294.705 253.488 296.079L251.828 298.859C251.653 299.197 251.442 299.515 251.198 299.809Z" fill="#EB996E"/>
<path d="M433.035 136.147C428.915 146.447 422.335 163.097 419.305 170.747C418.879 171.83 418.9 173.039 419.363 174.107C419.826 175.176 420.693 176.017 421.776 176.447L449.915 187.657C450.452 187.871 451.025 187.977 451.603 187.97C452.18 187.962 452.751 187.84 453.281 187.612C453.811 187.383 454.292 187.052 454.694 186.638C455.096 186.224 455.413 185.734 455.625 185.197L469.276 150.877C469.751 149.685 469.988 148.412 469.971 147.128C469.954 145.845 469.684 144.578 469.177 143.4C468.67 142.221 467.935 141.154 467.015 140.259C466.095 139.365 465.008 138.661 463.816 138.187L465.816 133.187L447.396 125.877L445.495 130.617H445.425C443.046 129.752 440.424 129.845 438.112 130.877C435.801 131.909 433.98 133.798 433.035 136.147Z" fill="#F5F5F5"/>
<path d="M447.146 126.487L446.235 128.777L464.396 136.777L465.576 133.827L447.146 126.487Z" fill="#E0E0E0"/>
<path d="M450.839 119.107L468.016 125.949C468.755 126.244 469.347 126.82 469.661 127.55C469.976 128.281 469.987 129.107 469.693 129.846L467.872 134.417C467.683 134.893 467.312 135.273 466.842 135.476C466.372 135.678 465.84 135.685 465.365 135.496L446.209 127.865C445.733 127.675 445.352 127.305 445.15 126.835C444.948 126.365 444.941 125.833 445.13 125.358L446.951 120.787C447.245 120.048 447.821 119.456 448.552 119.141C449.283 118.827 450.109 118.816 450.848 119.11L450.839 119.107Z" fill="#EBEBEB"/>
<path d="M447.336 128.307C447.697 126.71 448.223 125.155 448.906 123.667C449.438 122.114 450.128 120.619 450.966 119.207C450.605 120.814 450.079 122.379 449.396 123.877C448.873 125.425 448.182 126.91 447.336 128.307Z" fill="#E0E0E0"/>
<path d="M449.766 129.277C450.127 127.677 450.653 126.119 451.336 124.627C451.857 123.072 452.547 121.58 453.396 120.177C453.034 121.777 452.508 123.335 451.826 124.827C451.304 126.381 450.614 127.874 449.766 129.277Z" fill="#E0E0E0"/>
<path d="M452.196 130.247C452.556 128.647 453.082 127.088 453.766 125.597C454.288 124.04 454.979 122.544 455.826 121.137C455.467 122.738 454.941 124.296 454.256 125.787C453.723 127.34 453.033 128.835 452.196 130.247Z" fill="#E0E0E0"/>
<path d="M454.625 131.217C454.979 129.615 455.505 128.055 456.195 126.567C456.718 125.01 457.409 123.514 458.255 122.107C457.893 123.708 457.363 125.266 456.675 126.757C456.146 128.31 455.459 129.804 454.625 131.217Z" fill="#E0E0E0"/>
<path d="M457.056 132.177C457.412 130.575 457.938 129.016 458.626 127.527C459.135 125.978 459.805 124.486 460.626 123.077C460.27 124.678 459.743 126.237 459.056 127.727C458.546 129.276 457.876 130.767 457.056 132.177Z" fill="#E0E0E0"/>
<path d="M459.495 133.147C459.858 131.546 460.388 129.987 461.076 128.497C461.605 126.944 462.292 125.45 463.125 124.037C462.772 125.639 462.246 127.198 461.555 128.687C461.033 130.244 460.342 131.74 459.495 133.147Z" fill="#E0E0E0"/>
<path d="M461.906 134.117C462.264 132.516 462.79 130.957 463.476 129.467C464.008 127.914 464.698 126.419 465.536 125.007C465.175 126.607 464.649 128.166 463.966 129.657C463.443 131.214 462.752 132.71 461.906 134.117Z" fill="#E0E0E0"/>
<path d="M464.336 135.077C464.697 133.48 465.223 131.925 465.906 130.437C466.428 128.88 467.119 127.384 467.966 125.977C467.604 127.577 467.078 129.135 466.396 130.627C465.869 132.179 465.179 133.671 464.336 135.077Z" fill="#E0E0E0"/>
<path d="M461.206 153.16L437.553 143.738C436.794 143.435 435.933 143.806 435.631 144.565L429.769 159.28C429.466 160.04 429.836 160.9 430.596 161.203L454.248 170.625C455.008 170.927 455.868 170.557 456.171 169.798L462.033 155.082C462.335 154.323 461.965 153.462 461.206 153.16Z" fill="#EBEBEB"/>
<path d="M454.356 169.237C454.383 169.135 454.417 169.035 454.456 168.937L454.756 168.117L455.926 165.027C456.926 162.357 458.426 158.587 460.206 154.027L460.316 154.297L437.156 145.127C437.086 145.127 437.796 144.857 437.496 144.987V145.047L437.446 145.177L437.346 145.427L437.146 145.927L436.746 146.927C436.476 147.587 436.216 148.247 435.956 148.927C435.436 150.237 434.956 151.527 434.406 152.797L431.486 160.087L431.356 159.777L447.916 166.497L452.676 168.497L453.956 169.037C454.109 169.099 454.259 169.169 454.406 169.247L453.986 169.107L452.736 168.637L447.976 166.817L431.176 160.247L430.956 160.167L431.046 159.937C431.966 157.617 432.926 155.177 433.936 152.637C434.436 151.367 434.936 150.077 435.476 148.767C435.736 148.107 435.996 147.447 436.266 146.767L436.656 145.767L436.866 145.267L436.966 145.017L437.016 144.887V144.827L437.366 144.677L460.496 153.877L460.686 153.957L460.606 154.147C458.726 158.747 457.176 162.527 456.086 165.217L454.826 168.217L454.496 168.987C454.416 169.167 454.369 169.25 454.356 169.237Z" fill="#E0E0E0"/>
<path d="M454.856 157.557C452.133 156.756 449.461 155.791 446.856 154.667C444.199 153.703 441.604 152.578 439.086 151.297C441.81 152.093 444.482 153.058 447.086 154.187C449.742 155.151 452.337 156.276 454.856 157.557Z" fill="#E0E0E0"/>
<path d="M453.795 160.227C451.071 159.433 448.399 158.467 445.795 157.337C443.141 156.369 440.546 155.243 438.026 153.967C440.749 154.765 443.421 155.73 446.026 156.857C448.681 157.823 451.276 158.948 453.795 160.227Z" fill="#E0E0E0"/>
<path d="M452.776 162.797C450.05 162.004 447.378 161.039 444.776 159.907C442.12 158.941 439.525 157.816 437.005 156.537C439.73 157.331 442.402 158.296 445.005 159.427C447.66 160.395 450.255 161.52 452.776 162.797Z" fill="#E0E0E0"/>
<path d="M462.826 137.647C459.878 136.755 456.983 135.697 454.156 134.477C451.26 133.415 448.426 132.193 445.666 130.817C448.618 131.704 451.516 132.762 454.346 133.987C457.238 135.047 460.07 136.269 462.826 137.647Z" fill="#E0E0E0"/>
<path d="M421.615 169.367C421.76 168.8 421.947 168.245 422.175 167.707C422.605 166.577 423.175 165.077 423.875 163.257C425.325 159.507 427.365 154.347 429.655 148.657C430.805 145.817 431.895 143.107 432.905 140.657C433.687 138.399 434.93 136.328 436.555 134.577C437.705 133.42 439.194 132.66 440.805 132.407C441.241 132.357 441.68 132.357 442.115 132.407C442.266 132.423 442.414 132.461 442.555 132.517C441.98 132.507 441.406 132.541 440.836 132.617C439.309 132.943 437.915 133.72 436.836 134.847C435.284 136.591 434.104 138.632 433.365 140.847C432.365 143.327 431.295 146.037 430.155 148.847C427.875 154.537 425.775 159.687 424.235 163.397L422.385 167.777C422.175 168.328 421.917 168.86 421.615 169.367Z" fill="white"/>
<path d="M453.235 187.457C452.839 187.199 452.471 186.901 452.135 186.567C451.795 186.257 451.365 185.897 450.855 185.497C450.345 185.097 449.795 184.607 449.125 184.137C447.599 182.991 446.006 181.936 444.355 180.977C442.329 179.835 440.228 178.833 438.065 177.977C435.892 177.124 433.664 176.419 431.396 175.867C429.54 175.423 427.66 175.089 425.766 174.867C424.956 174.747 424.216 174.717 423.576 174.657C422.936 174.597 422.365 174.577 421.915 174.567C421.44 174.57 420.965 174.533 420.495 174.457C420.964 174.375 421.44 174.342 421.915 174.357C422.375 174.357 422.916 174.357 423.586 174.357C424.256 174.357 424.985 174.357 425.795 174.487C427.716 174.655 429.623 174.949 431.505 175.367C433.806 175.902 436.065 176.6 438.266 177.457C440.452 178.345 442.571 179.391 444.605 180.587C446.258 181.577 447.844 182.672 449.355 183.867C450.005 184.357 450.555 184.867 451.045 185.297C451.472 185.656 451.879 186.036 452.266 186.437C452.62 186.746 452.944 187.088 453.235 187.457Z" fill="white"/>
<path d="M435.28 9.99176H428.68V39.5818H435.28V9.99176Z" fill="#879B93"/>
<path d="M417.18 21.4818V28.0818L446.77 28.0818V21.4818H417.18Z" fill="#879B93"/>
<path d="M456.55 24.8618C456.525 24.7296 456.509 24.596 456.5 24.4618C456.5 24.1718 456.45 23.7818 456.42 23.2918C456.42 23.0318 456.42 22.7418 456.36 22.4318C456.3 22.1218 456.26 21.7718 456.2 21.4318C456.089 20.5735 455.915 19.7246 455.68 18.8918C455.101 16.5927 454.177 14.3944 452.94 12.3718C450.025 7.48506 445.496 3.76904 440.134 1.8649C434.772 -0.0392448 428.914 -0.0120578 423.57 1.94177C422.475 2.33342 421.409 2.80123 420.38 3.34177C419.337 3.91504 418.334 4.55991 417.38 5.27177C416.406 5.99383 415.481 6.77884 414.61 7.62177C413.753 8.51201 412.954 9.45736 412.22 10.4518C410.706 12.4917 409.528 14.7603 408.73 17.1718C407.05 22.1711 407.05 27.5824 408.73 32.5818C409.526 34.9942 410.704 37.2631 412.22 39.3018C412.949 40.3002 413.748 41.2459 414.61 42.1318C415.478 42.9807 416.404 43.7692 417.38 44.4918C418.334 45.2036 419.337 45.8485 420.38 46.4218C421.411 46.9582 422.477 47.4259 423.57 47.8218C428.914 49.7607 434.766 49.7814 440.124 47.8805C445.482 45.9796 450.013 42.2753 452.94 37.4018C454.179 35.3766 455.103 33.1747 455.68 30.8718C455.916 30.0426 456.09 29.1969 456.2 28.3418C456.26 27.9618 456.33 27.6218 456.36 27.3418C456.39 27.0618 456.36 26.7418 456.42 26.4818C456.42 25.9818 456.48 25.6018 456.5 25.3118C456.508 25.1775 456.524 25.0438 456.55 24.9118C456.561 25.0449 456.561 25.1787 456.55 25.3118C456.55 25.6018 456.55 25.9918 456.55 26.4818V27.3518C456.55 27.6718 456.46 28.0118 456.42 28.3518C456.321 29.2153 456.16 30.0708 455.94 30.9118C455.386 33.2459 454.479 35.4818 453.25 37.5418C451.447 40.5856 449.014 43.2094 446.115 45.2374C443.216 47.2655 439.918 48.6512 436.44 49.3018C432.09 50.1082 427.604 49.7458 423.44 48.2518C422.327 47.8492 421.241 47.3749 420.19 46.8318C418.041 45.6478 416.06 44.1814 414.3 42.4718C413.421 41.5697 412.605 40.6073 411.86 39.5918C410.304 37.5112 409.098 35.1907 408.29 32.7218C407.466 30.1784 407.031 27.5251 407 24.8518C407.037 22.1822 407.471 19.533 408.29 16.9918C409.103 14.5277 410.308 12.2112 411.86 10.1318C412.608 9.11497 413.423 8.14948 414.3 7.24177C415.191 6.38535 416.136 5.58704 417.13 4.85177C419.873 2.82862 423.002 1.39131 426.324 0.629208C429.646 -0.132897 433.09 -0.203501 436.44 0.421773C439.901 1.08669 443.18 2.48 446.061 4.50925C448.942 6.5385 451.358 9.15727 453.15 12.1918C454.377 14.2492 455.284 16.4814 455.84 18.8118C456.059 19.6563 456.22 20.515 456.32 21.3818C456.32 21.7518 456.43 22.1018 456.45 22.3818V23.2418C456.45 23.7418 456.45 24.1318 456.45 24.4218C456.497 24.5651 456.53 24.7124 456.55 24.8618Z" fill="#879B93"/>
<path d="M79.6011 73.0451L2.1716 110.309C0.97226 110.887 0.467917 112.327 1.04512 113.526L53.0192 221.52C53.5964 222.72 55.0365 223.224 56.2359 222.647L133.665 185.382C134.865 184.805 135.369 183.365 134.792 182.166L82.8179 74.1716C82.2407 72.9722 80.8005 72.4679 79.6011 73.0451Z" fill="#E0E0E0"/>
<path d="M78.3675 76.5876L5.72266 111.549L56.0445 216.11L128.689 181.149L78.3675 76.5876Z" fill="#FAFAFA"/>
<path d="M57.5791 88.5385C56.1283 87.4151 54.3928 86.7188 52.5678 86.528C50.7429 86.3372 48.9009 86.6595 47.2491 87.4584L45.0191 83.0684C44.2414 81.4589 42.8586 80.2222 41.1725 79.6284C39.4864 79.0345 37.6339 79.1316 36.0191 79.8985C35.2154 80.2845 34.4958 80.8252 33.9013 81.4897C33.3069 82.1542 32.8493 82.9294 32.5549 83.7709C32.2604 84.6125 32.1349 85.5038 32.1853 86.394C32.2358 87.2841 32.4614 88.1556 32.8491 88.9584L35.0791 93.5885L33.5291 94.3685C31.9115 95.181 30.5479 96.4218 29.5869 97.9559C28.6259 99.49 28.1043 101.258 28.0791 103.068V105.368L59.7091 90.1485L57.5791 88.5385ZM40.6991 89.2585C40.0485 89.57 39.3202 89.6818 38.6061 89.5797C37.892 89.4776 37.2241 89.1662 36.6869 88.6848C36.1497 88.2034 35.7671 87.5737 35.5875 86.875C35.408 86.1764 35.4395 85.4402 35.678 84.7594C35.9166 84.0786 36.3515 83.4838 36.9278 83.05C37.5042 82.6163 38.1962 82.363 38.9164 82.3223C39.6366 82.2815 40.3527 82.4551 40.9744 82.821C41.596 83.187 42.0953 83.7289 42.4091 84.3784C42.6181 84.811 42.7397 85.2806 42.7668 85.7602C42.794 86.2398 42.7262 86.7201 42.5673 87.1735C42.4084 87.6268 42.1616 88.0444 41.841 88.4022C41.5204 88.76 41.1324 89.051 40.6991 89.2585Z" fill="#EBEBEB"/>
<path d="M39.7792 113.398C39.8492 113.528 35.4892 115.758 30.0492 118.398C24.6092 121.038 20.1492 123.028 20.0492 122.898C19.9492 122.768 24.3392 120.538 29.7792 117.898C35.2192 115.258 39.7192 113.268 39.7792 113.398Z" fill="#E0E0E0"/>
<path d="M31.1792 121.628C29.7227 122.619 28.1718 123.463 26.5492 124.148C24.9996 124.975 23.3715 125.645 21.6892 126.148C23.1582 125.175 24.719 124.348 26.3492 123.678C27.8913 122.845 29.5084 122.159 31.1792 121.628Z" fill="#E0E0E0"/>
<path d="M81.9091 108.618C81.9691 108.738 69.7491 114.758 54.6091 122.038C39.4691 129.318 27.1491 135.128 27.0891 135.038C27.0291 134.948 39.2491 128.858 54.3491 121.568C69.4491 114.278 81.8491 108.488 81.9091 108.618Z" fill="#E0E0E0"/>
<path d="M84.4291 113.838C84.4891 113.968 72.2691 119.978 57.1291 127.268C41.9891 134.558 29.6691 140.358 29.6091 140.268C29.5491 140.178 41.7591 134.128 56.9091 126.838C72.0591 119.548 84.3491 113.708 84.4291 113.838Z" fill="#E0E0E0"/>
<path d="M86.9392 119.068C87.0092 119.198 74.7792 125.208 59.6492 132.498C44.5192 139.788 32.1892 145.588 32.1192 145.498C32.0492 145.408 44.2792 139.358 59.4192 132.068C74.5592 124.778 86.8792 118.938 86.9392 119.068Z" fill="#E0E0E0"/>
<path d="M89.4591 124.298C89.5191 124.428 77.2991 130.438 62.1591 137.728C47.0191 145.018 34.6991 150.808 34.6391 150.728C34.5791 150.648 46.7991 144.588 61.9391 137.308C77.0791 130.028 89.3991 124.168 89.4591 124.298Z" fill="#E0E0E0"/>
<path d="M91.9792 129.518C92.0392 129.648 79.8192 135.669 64.6792 142.949C49.5392 150.229 37.2192 156.039 37.1592 155.949C37.0992 155.859 49.3492 149.769 64.4492 142.479C79.5492 135.189 91.9092 129.398 91.9792 129.518Z" fill="#E0E0E0"/>
<path d="M94.4892 134.748C94.5492 134.878 82.3292 140.888 67.1992 148.178C52.0692 155.468 39.7292 161.268 39.6692 161.178C39.6092 161.088 51.8292 155.038 66.9692 147.748C82.1092 140.458 94.4292 134.618 94.4892 134.748Z" fill="#E0E0E0"/>
<path d="M69.3492 152.658C69.0406 152.9 68.705 153.105 68.3492 153.268L65.4492 154.758C62.9892 155.988 59.5692 157.668 55.7892 159.488C52.0092 161.308 48.5592 162.938 46.0592 164.088L43.0592 165.428C42.7046 165.614 42.3284 165.755 41.9392 165.848C42.2527 165.614 42.5875 165.41 42.9392 165.238L45.8392 163.758C48.2992 162.518 51.7192 160.838 55.4992 159.018C59.2792 157.198 62.7292 155.578 65.2292 154.428L68.2292 153.088C68.5851 152.903 68.9608 152.759 69.3492 152.658Z" fill="#E0E0E0"/>
<path d="M77.9991 94.4185C76.6596 95.3509 75.2249 96.1387 73.7191 96.7684C72.2907 97.5543 70.782 98.1845 69.2191 98.6485C70.5587 97.716 71.9934 96.9282 73.4991 96.2984C74.9276 95.5126 76.4362 94.8824 77.9991 94.4185Z" fill="#E0E0E0"/>
<path d="M62.3491 170.068C60.1005 171.444 57.7619 172.667 55.3491 173.728C53.0113 174.948 50.5961 176.014 48.1191 176.918C50.3677 175.543 52.7064 174.32 55.1191 173.258C57.457 172.039 59.8721 170.973 62.3491 170.068Z" fill="#E0E0E0"/>
<path d="M65.1292 174.568C62.8403 175.961 60.4617 177.2 58.0092 178.278C55.6327 179.521 53.1775 180.607 50.6592 181.528C52.9505 180.138 55.3288 178.895 57.7792 177.808C60.1569 176.571 62.612 175.489 65.1292 174.568Z" fill="#E0E0E0"/>
<path d="M103.349 149.458C102.336 150.241 101.219 150.877 100.029 151.348C98.9132 151.983 97.7153 152.461 96.4691 152.768C97.4911 151.995 98.6108 151.359 99.7991 150.878C100.914 150.25 102.108 149.772 103.349 149.458Z" fill="#E0E0E0"/>
<path d="M105.619 153.618C104.597 154.392 103.477 155.028 102.289 155.508C101.174 156.137 99.9803 156.615 98.7391 156.928C99.752 156.146 100.87 155.51 102.059 155.038C103.175 154.404 104.373 153.926 105.619 153.618Z" fill="#E0E0E0"/>
<path d="M60.8891 182.748C59.9088 183.504 58.8285 184.12 57.6791 184.578C56.6008 185.191 55.4433 185.652 54.2391 185.948C55.2181 185.178 56.2982 184.545 57.4491 184.068C58.5294 183.472 59.6871 183.028 60.8891 182.748Z" fill="#E0E0E0"/>
<path d="M108.249 158.488C107.556 159.11 106.752 159.595 105.879 159.918C105.075 160.402 104.191 160.741 103.269 160.918C103.965 160.293 104.772 159.805 105.649 159.478C106.447 158.991 107.329 158.655 108.249 158.488Z" fill="#E0E0E0"/>
<path d="M59.2191 197.408C59.3052 197.329 59.399 197.259 59.4991 197.198L60.3391 196.638L63.5691 194.568L75.1791 187.278L75.4091 187.128L75.5091 187.378C76.0579 188.79 76.1038 190.347 75.6391 191.788C75.4033 192.57 74.9926 193.288 74.4381 193.888C73.8837 194.487 73.2001 194.952 72.4391 195.248C71.625 195.576 70.7424 195.698 69.87 195.602C68.9976 195.506 68.1625 195.195 67.4391 194.698C66.7156 194.139 66.1732 193.379 65.8797 192.512C65.5863 191.646 65.5547 190.713 65.7891 189.828C65.9691 189.149 66.3124 188.525 66.7891 188.008C66.9059 187.878 67.0329 187.758 67.1691 187.648C67.3042 187.525 67.4556 187.421 67.6191 187.338C67.7272 187.282 67.8473 187.253 67.9691 187.253C68.0909 187.253 68.211 187.282 68.3191 187.338C68.4895 187.455 68.6272 187.614 68.7191 187.798C69.3227 188.942 69.6643 190.206 69.7191 191.498C69.7951 192.742 69.6007 193.987 69.1491 195.148C68.7672 196.31 68.0112 197.312 66.9991 197.998C66.4857 198.305 65.8967 198.46 65.2991 198.448C64.7015 198.436 64.1194 198.256 63.6191 197.928C62.6875 197.342 61.9823 196.457 61.6191 195.418C61.1571 193.563 61.1571 191.623 61.6191 189.768L61.6791 189.388L61.9391 189.678C63.0001 190.887 63.6666 192.391 63.8491 193.988C63.9887 195.183 63.8728 196.393 63.5091 197.538C63.2768 198.251 62.9397 198.925 62.5091 199.538C62.3491 199.748 62.2191 199.888 62.1291 199.988C62.0391 200.088 61.9991 200.138 61.9891 200.128C62.5721 199.319 63.0212 198.421 63.3191 197.468C63.6333 196.347 63.715 195.173 63.5591 194.018C63.362 192.491 62.7025 191.06 61.6691 189.918L61.9891 189.828C61.5441 191.615 61.5441 193.482 61.9891 195.268C62.3246 196.208 62.9701 197.005 63.8191 197.528C64.2474 197.808 64.7458 197.96 65.2569 197.969C65.7681 197.978 66.2714 197.843 66.7091 197.578C67.6217 196.942 68.3026 196.026 68.6491 194.968C69.064 193.865 69.2412 192.686 69.1691 191.508C69.0965 190.292 68.7549 189.107 68.1691 188.038C68.1258 187.931 68.053 187.837 67.9591 187.768C67.9257 187.749 67.8877 187.739 67.8491 187.739C67.8105 187.739 67.7726 187.749 67.7391 187.768C67.4929 187.91 67.273 188.092 67.0891 188.308C66.6846 188.763 66.3964 189.308 66.2491 189.898C66.0407 190.684 66.068 191.513 66.3276 192.283C66.5872 193.053 67.0677 193.73 67.7091 194.228C68.3566 194.667 69.1007 194.941 69.8775 195.028C70.6544 195.115 71.4407 195.012 72.1691 194.728C72.862 194.461 73.4849 194.039 73.9908 193.495C74.4967 192.951 74.8722 192.299 75.0891 191.588C75.5316 190.256 75.4998 188.811 74.9991 187.498L75.3291 187.608L63.6191 194.738L60.3191 196.738L59.4491 197.238C59.3788 197.303 59.3017 197.36 59.2191 197.408Z" fill="#E0E0E0"/>
<path d="M111.139 172.198C111.136 172.518 111.082 172.836 110.979 173.138C110.878 173.512 110.723 173.869 110.519 174.198C110.24 174.674 109.795 175.03 109.269 175.198C108.945 175.309 108.593 175.309 108.269 175.198C107.936 175.061 107.646 174.837 107.429 174.548C107.019 173.937 106.645 173.303 106.309 172.648L103.859 168.068L104.309 167.968C104.229 170.258 104.149 172.758 104.049 175.378C104.049 176.008 104.049 176.618 103.979 177.228V178.228L103.529 177.298C102.159 174.488 100.889 171.858 99.7692 169.578H100.189C99.5462 171.857 99.2099 174.211 99.1892 176.578C99.1892 178.288 99.2992 179.258 99.2492 179.268C99.1631 179.044 99.1125 178.808 99.0992 178.568C99.0087 177.905 98.952 177.238 98.9292 176.568C98.8404 174.18 99.1032 171.791 99.7092 169.478L99.8592 168.898L100.119 169.438L103.949 177.128L103.449 177.228C103.449 176.628 103.449 176.008 103.519 175.378C103.629 172.758 103.729 170.258 103.819 167.968V167.068L104.229 167.858C105.109 169.508 105.919 171.048 106.649 172.428C106.965 173.077 107.315 173.708 107.699 174.318C107.846 174.56 108.065 174.749 108.325 174.859C108.586 174.968 108.874 174.993 109.149 174.928C109.546 174.789 109.903 174.553 110.187 174.243C110.471 173.932 110.675 173.556 110.779 173.148C110.878 172.824 110.998 172.507 111.139 172.198Z" fill="#E0E0E0"/>
<path d="M111.039 168.458C111.119 168.568 106.989 171.518 101.819 175.038C96.6491 178.558 92.3891 181.308 92.3091 181.188C92.2291 181.068 96.3091 178.128 101.529 174.608C106.749 171.088 110.959 168.338 111.039 168.458Z" fill="#E0E0E0"/>
<path d="M116.109 169.328C113.977 171.507 111.719 173.561 109.349 175.478C107.095 177.533 104.724 179.456 102.249 181.238C104.385 179.063 106.642 177.009 109.009 175.088C111.264 173.034 113.634 171.111 116.109 169.328Z" fill="#E0E0E0"/>
<path d="M298.51 46.2318H294.3L285.17 33.4018V25.0018C285.17 25.0018 278.66 24.6018 279.43 35.6018C280.2 46.6018 279.37 43.7918 279.37 43.7918C279.37 43.7918 265.56 43.8518 264.37 45.0518C263.53 45.9218 263.16 59.6418 263.01 67.0518C262.921 68.8467 263.435 70.6197 264.47 72.0891C265.504 73.5585 267 74.6401 268.72 75.1618C269.191 75.3029 269.678 75.3835 270.17 75.4018C273.61 75.4018 291.17 72.6018 291.17 72.6018H298.44L298.51 46.2318Z" fill="#F5F5F5"/>
<path d="M310.56 43.9219L307.97 72.7019H300.76V44.5019L310.56 43.9219Z" fill="#F5F5F5"/>
</svg>
